<mxfile host="app.diagrams.net" modified="2023-05-07T15:06:13.175Z" agent="5.0 (Windows NT 10.0; Win64; x64) AppleWebKit/537.36 (KHTML, like Gecko) Chrome/112.0.0.0 Safari/537.36" etag="3cvhV-pHzeWdoAbS-fEt" version="20.5.0" type="github">
  <diagram id="mWghsobgsTTB1N5aIoqW" name="Seite-1">
    <mxGraphModel dx="2036" dy="3391" grid="1" gridSize="10" guides="1" tooltips="1" connect="1" arrows="1" fold="1" page="1" pageScale="1" pageWidth="827" pageHeight="1169" math="0" shadow="0">
      <root>
        <mxCell id="0" />
        <mxCell id="1" parent="0" />
        <mxCell id="90qTcsNyrZuAhWfa71IT-1" value="" style="rounded=0;whiteSpace=wrap;html=1;fontFamily=Helvetica;fontSize=11;fontColor=default;" vertex="1" parent="1">
          <mxGeometry y="820" width="1560" height="480" as="geometry" />
        </mxCell>
        <mxCell id="90qTcsNyrZuAhWfa71IT-2" value="" style="rounded=0;whiteSpace=wrap;html=1;fontFamily=Helvetica;fontSize=11;fontColor=default;" vertex="1" parent="1">
          <mxGeometry x="60" y="1520" width="1340" height="440" as="geometry" />
        </mxCell>
        <mxCell id="90qTcsNyrZuAhWfa71IT-3" value="" style="rounded=0;whiteSpace=wrap;html=1;fontFamily=Helvetica;fontSize=11;fontColor=default;" vertex="1" parent="1">
          <mxGeometry x="30" y="-90" width="1520" height="820" as="geometry" />
        </mxCell>
        <mxCell id="90qTcsNyrZuAhWfa71IT-4" style="edgeStyle=orthogonalEdgeStyle;shape=connector;rounded=0;orthogonalLoop=1;jettySize=auto;html=1;entryX=0.5;entryY=0;entryDx=0;entryDy=0;labelBackgroundColor=default;strokeColor=default;fontFamily=Helvetica;fontSize=11;fontColor=default;endArrow=none;endFill=0;" edge="1" parent="1" source="90qTcsNyrZuAhWfa71IT-6" target="90qTcsNyrZuAhWfa71IT-21">
          <mxGeometry relative="1" as="geometry">
            <Array as="points">
              <mxPoint x="480" y="350" />
              <mxPoint x="320" y="350" />
            </Array>
          </mxGeometry>
        </mxCell>
        <mxCell id="90qTcsNyrZuAhWfa71IT-5" style="edgeStyle=orthogonalEdgeStyle;shape=connector;rounded=0;orthogonalLoop=1;jettySize=auto;html=1;entryX=0.5;entryY=0;entryDx=0;entryDy=0;labelBackgroundColor=default;strokeColor=default;fontFamily=Helvetica;fontSize=11;fontColor=default;endArrow=none;endFill=0;" edge="1" parent="1" source="90qTcsNyrZuAhWfa71IT-6" target="90qTcsNyrZuAhWfa71IT-24">
          <mxGeometry relative="1" as="geometry">
            <Array as="points">
              <mxPoint x="480" y="350" />
              <mxPoint x="635" y="350" />
            </Array>
          </mxGeometry>
        </mxCell>
        <mxCell id="90qTcsNyrZuAhWfa71IT-6" value="Terminblockierung 1&lt;br&gt;OR" style="rounded=0;whiteSpace=wrap;html=1;" vertex="1" parent="1">
          <mxGeometry x="420" y="270" width="120" height="60" as="geometry" />
        </mxCell>
        <mxCell id="90qTcsNyrZuAhWfa71IT-7" value="Angabe neuer Name&amp;nbsp;&lt;br&gt;P (1)" style="rounded=0;whiteSpace=wrap;html=1;" vertex="1" parent="1">
          <mxGeometry x="770" y="630" width="120" height="60" as="geometry" />
        </mxCell>
        <mxCell id="90qTcsNyrZuAhWfa71IT-8" style="edgeStyle=orthogonalEdgeStyle;shape=connector;rounded=0;orthogonalLoop=1;jettySize=auto;html=1;entryX=0.5;entryY=0;entryDx=0;entryDy=0;labelBackgroundColor=default;strokeColor=default;fontFamily=Helvetica;fontSize=11;fontColor=default;endArrow=none;endFill=0;" edge="1" parent="1" source="90qTcsNyrZuAhWfa71IT-10" target="90qTcsNyrZuAhWfa71IT-44">
          <mxGeometry relative="1" as="geometry" />
        </mxCell>
        <mxCell id="90qTcsNyrZuAhWfa71IT-9" style="edgeStyle=orthogonalEdgeStyle;shape=connector;rounded=0;orthogonalLoop=1;jettySize=auto;html=1;entryX=0.5;entryY=0;entryDx=0;entryDy=0;labelBackgroundColor=default;strokeColor=default;fontFamily=Helvetica;fontSize=11;fontColor=default;endArrow=none;endFill=0;" edge="1" parent="1" source="90qTcsNyrZuAhWfa71IT-10" target="90qTcsNyrZuAhWfa71IT-42">
          <mxGeometry relative="1" as="geometry" />
        </mxCell>
        <mxCell id="90qTcsNyrZuAhWfa71IT-10" value="Abfangen SMS mit Verifikationscode&lt;br&gt;P" style="rounded=0;whiteSpace=wrap;html=1;" vertex="1" parent="1">
          <mxGeometry x="130" y="450" width="120" height="60" as="geometry" />
        </mxCell>
        <mxCell id="90qTcsNyrZuAhWfa71IT-11" value="Mit gleichem Verifikationscode&lt;br&gt;I" style="rounded=0;whiteSpace=wrap;html=1;" vertex="1" parent="1">
          <mxGeometry x="510" y="450" width="120" height="60" as="geometry" />
        </mxCell>
        <mxCell id="90qTcsNyrZuAhWfa71IT-12" value="Mit gleichem Registrierungscode&lt;br&gt;I&amp;nbsp;" style="rounded=0;whiteSpace=wrap;html=1;" vertex="1" parent="1">
          <mxGeometry x="580" y="540" width="120" height="60" as="geometry" />
        </mxCell>
        <mxCell id="90qTcsNyrZuAhWfa71IT-13" style="edgeStyle=orthogonalEdgeStyle;shape=connector;rounded=0;orthogonalLoop=1;jettySize=auto;html=1;entryX=0.5;entryY=0;entryDx=0;entryDy=0;labelBackgroundColor=default;strokeColor=default;fontFamily=Helvetica;fontSize=11;fontColor=default;endArrow=none;endFill=0;" edge="1" parent="1" source="90qTcsNyrZuAhWfa71IT-15" target="90qTcsNyrZuAhWfa71IT-12">
          <mxGeometry relative="1" as="geometry" />
        </mxCell>
        <mxCell id="90qTcsNyrZuAhWfa71IT-14" style="edgeStyle=orthogonalEdgeStyle;shape=connector;rounded=0;orthogonalLoop=1;jettySize=auto;html=1;entryX=0.5;entryY=0;entryDx=0;entryDy=0;labelBackgroundColor=default;strokeColor=default;fontFamily=Helvetica;fontSize=11;fontColor=default;endArrow=none;endFill=0;" edge="1" parent="1" source="90qTcsNyrZuAhWfa71IT-15" target="90qTcsNyrZuAhWfa71IT-18">
          <mxGeometry relative="1" as="geometry" />
        </mxCell>
        <mxCell id="90qTcsNyrZuAhWfa71IT-15" value="Mit neuem Verifikationscode&lt;br&gt;P" style="rounded=0;whiteSpace=wrap;html=1;" vertex="1" parent="1">
          <mxGeometry x="640" y="450" width="120" height="60" as="geometry" />
        </mxCell>
        <mxCell id="90qTcsNyrZuAhWfa71IT-16" style="edgeStyle=orthogonalEdgeStyle;shape=connector;rounded=0;orthogonalLoop=1;jettySize=auto;html=1;entryX=0.5;entryY=0;entryDx=0;entryDy=0;labelBackgroundColor=default;strokeColor=default;fontFamily=Helvetica;fontSize=11;fontColor=default;endArrow=none;endFill=0;" edge="1" parent="1" source="90qTcsNyrZuAhWfa71IT-18" target="90qTcsNyrZuAhWfa71IT-25">
          <mxGeometry relative="1" as="geometry" />
        </mxCell>
        <mxCell id="90qTcsNyrZuAhWfa71IT-17" style="edgeStyle=orthogonalEdgeStyle;shape=connector;rounded=0;orthogonalLoop=1;jettySize=auto;html=1;entryX=0.5;entryY=0;entryDx=0;entryDy=0;labelBackgroundColor=default;strokeColor=default;fontFamily=Helvetica;fontSize=11;fontColor=default;endArrow=none;endFill=0;" edge="1" parent="1" source="90qTcsNyrZuAhWfa71IT-18" target="90qTcsNyrZuAhWfa71IT-7">
          <mxGeometry relative="1" as="geometry" />
        </mxCell>
        <mxCell id="90qTcsNyrZuAhWfa71IT-18" value="Mit neuem Registrierungscode&lt;br&gt;P" style="rounded=0;whiteSpace=wrap;html=1;" vertex="1" parent="1">
          <mxGeometry x="710" y="540" width="120" height="60" as="geometry" />
        </mxCell>
        <mxCell id="90qTcsNyrZuAhWfa71IT-19" style="edgeStyle=orthogonalEdgeStyle;shape=connector;rounded=0;orthogonalLoop=1;jettySize=auto;html=1;entryX=0.5;entryY=0;entryDx=0;entryDy=0;labelBackgroundColor=default;strokeColor=default;fontFamily=Helvetica;fontSize=11;fontColor=default;endArrow=none;endFill=0;" edge="1" parent="1" source="90qTcsNyrZuAhWfa71IT-21" target="90qTcsNyrZuAhWfa71IT-10">
          <mxGeometry relative="1" as="geometry">
            <Array as="points">
              <mxPoint x="320" y="440" />
              <mxPoint x="190" y="440" />
            </Array>
          </mxGeometry>
        </mxCell>
        <mxCell id="90qTcsNyrZuAhWfa71IT-20" style="edgeStyle=orthogonalEdgeStyle;shape=connector;rounded=0;orthogonalLoop=1;jettySize=auto;html=1;labelBackgroundColor=default;strokeColor=default;fontFamily=Helvetica;fontSize=11;fontColor=default;endArrow=none;endFill=0;entryX=0.5;entryY=0;entryDx=0;entryDy=0;" edge="1" parent="1" source="90qTcsNyrZuAhWfa71IT-21" target="90qTcsNyrZuAhWfa71IT-28">
          <mxGeometry relative="1" as="geometry">
            <mxPoint x="440" y="430" as="targetPoint" />
            <Array as="points">
              <mxPoint x="320" y="440" />
              <mxPoint x="440" y="440" />
            </Array>
          </mxGeometry>
        </mxCell>
        <mxCell id="90qTcsNyrZuAhWfa71IT-21" value="Abfangen&lt;br&gt;P" style="rounded=0;whiteSpace=wrap;html=1;" vertex="1" parent="1">
          <mxGeometry x="260" y="360" width="120" height="60" as="geometry" />
        </mxCell>
        <mxCell id="90qTcsNyrZuAhWfa71IT-22" style="edgeStyle=orthogonalEdgeStyle;shape=connector;rounded=0;orthogonalLoop=1;jettySize=auto;html=1;entryX=0.5;entryY=0;entryDx=0;entryDy=0;labelBackgroundColor=default;strokeColor=default;fontFamily=Helvetica;fontSize=11;fontColor=default;endArrow=none;endFill=0;" edge="1" parent="1" source="90qTcsNyrZuAhWfa71IT-24" target="90qTcsNyrZuAhWfa71IT-11">
          <mxGeometry relative="1" as="geometry" />
        </mxCell>
        <mxCell id="90qTcsNyrZuAhWfa71IT-23" style="edgeStyle=orthogonalEdgeStyle;shape=connector;rounded=0;orthogonalLoop=1;jettySize=auto;html=1;entryX=0.5;entryY=0;entryDx=0;entryDy=0;labelBackgroundColor=default;strokeColor=default;fontFamily=Helvetica;fontSize=11;fontColor=default;endArrow=none;endFill=0;" edge="1" parent="1" source="90qTcsNyrZuAhWfa71IT-24" target="90qTcsNyrZuAhWfa71IT-15">
          <mxGeometry relative="1" as="geometry" />
        </mxCell>
        <mxCell id="90qTcsNyrZuAhWfa71IT-24" value="RegulÃ¤re Anfrage&lt;br&gt;P" style="rounded=0;whiteSpace=wrap;html=1;" vertex="1" parent="1">
          <mxGeometry x="575" y="360" width="120" height="60" as="geometry" />
        </mxCell>
        <mxCell id="90qTcsNyrZuAhWfa71IT-25" value="Angabe gleicher Name&lt;br&gt;I" style="rounded=0;whiteSpace=wrap;html=1;" vertex="1" parent="1">
          <mxGeometry x="640" y="630" width="120" height="60" as="geometry" />
        </mxCell>
        <mxCell id="90qTcsNyrZuAhWfa71IT-26" style="edgeStyle=orthogonalEdgeStyle;shape=connector;rounded=0;orthogonalLoop=1;jettySize=auto;html=1;entryX=0.5;entryY=0;entryDx=0;entryDy=0;labelBackgroundColor=default;strokeColor=default;fontFamily=Helvetica;fontSize=11;fontColor=default;endArrow=none;endFill=0;" edge="1" parent="1" source="90qTcsNyrZuAhWfa71IT-28" target="90qTcsNyrZuAhWfa71IT-43">
          <mxGeometry relative="1" as="geometry" />
        </mxCell>
        <mxCell id="90qTcsNyrZuAhWfa71IT-27" style="edgeStyle=orthogonalEdgeStyle;shape=connector;rounded=0;orthogonalLoop=1;jettySize=auto;html=1;entryX=0.5;entryY=0;entryDx=0;entryDy=0;labelBackgroundColor=default;strokeColor=default;fontFamily=Helvetica;fontSize=11;fontColor=default;endArrow=none;endFill=0;" edge="1" parent="1" source="90qTcsNyrZuAhWfa71IT-28" target="90qTcsNyrZuAhWfa71IT-40">
          <mxGeometry relative="1" as="geometry" />
        </mxCell>
        <mxCell id="90qTcsNyrZuAhWfa71IT-28" value="Abfangen E-Mail mit Registrierungscode&lt;br&gt;P" style="rounded=0;whiteSpace=wrap;html=1;" vertex="1" parent="1">
          <mxGeometry x="380" y="450" width="120" height="60" as="geometry" />
        </mxCell>
        <mxCell id="90qTcsNyrZuAhWfa71IT-29" style="edgeStyle=orthogonalEdgeStyle;shape=connector;rounded=0;orthogonalLoop=1;jettySize=auto;html=1;entryX=0.5;entryY=0;entryDx=0;entryDy=0;labelBackgroundColor=default;strokeColor=default;fontFamily=Helvetica;fontSize=11;fontColor=default;endArrow=none;endFill=0;" edge="1" parent="1" source="90qTcsNyrZuAhWfa71IT-31" target="90qTcsNyrZuAhWfa71IT-36">
          <mxGeometry relative="1" as="geometry">
            <Array as="points">
              <mxPoint x="1230" y="400" />
              <mxPoint x="1360" y="400" />
            </Array>
          </mxGeometry>
        </mxCell>
        <mxCell id="90qTcsNyrZuAhWfa71IT-30" style="edgeStyle=orthogonalEdgeStyle;shape=connector;rounded=0;orthogonalLoop=1;jettySize=auto;html=1;entryX=0.5;entryY=0;entryDx=0;entryDy=0;labelBackgroundColor=default;strokeColor=default;fontFamily=Helvetica;fontSize=11;fontColor=default;endArrow=none;endFill=0;" edge="1" parent="1" source="90qTcsNyrZuAhWfa71IT-31" target="90qTcsNyrZuAhWfa71IT-34">
          <mxGeometry relative="1" as="geometry">
            <Array as="points">
              <mxPoint x="1230" y="400" />
              <mxPoint x="1110" y="400" />
            </Array>
          </mxGeometry>
        </mxCell>
        <mxCell id="90qTcsNyrZuAhWfa71IT-31" value="Terminblockierung 2&lt;br&gt;OR" style="rounded=0;whiteSpace=wrap;html=1;" vertex="1" parent="1">
          <mxGeometry x="1170" y="320" width="120" height="60" as="geometry" />
        </mxCell>
        <mxCell id="90qTcsNyrZuAhWfa71IT-32" style="edgeStyle=orthogonalEdgeStyle;shape=connector;rounded=0;orthogonalLoop=1;jettySize=auto;html=1;entryX=0.5;entryY=0;entryDx=0;entryDy=0;labelBackgroundColor=default;strokeColor=default;fontFamily=Helvetica;fontSize=11;fontColor=default;endArrow=none;endFill=0;" edge="1" parent="1" source="90qTcsNyrZuAhWfa71IT-34" target="90qTcsNyrZuAhWfa71IT-45">
          <mxGeometry relative="1" as="geometry" />
        </mxCell>
        <mxCell id="90qTcsNyrZuAhWfa71IT-33" style="edgeStyle=orthogonalEdgeStyle;shape=connector;rounded=0;orthogonalLoop=1;jettySize=auto;html=1;entryX=0.5;entryY=0;entryDx=0;entryDy=0;labelBackgroundColor=default;strokeColor=default;fontFamily=Helvetica;fontSize=11;fontColor=default;endArrow=none;endFill=0;" edge="1" parent="1" source="90qTcsNyrZuAhWfa71IT-34" target="90qTcsNyrZuAhWfa71IT-38">
          <mxGeometry relative="1" as="geometry" />
        </mxCell>
        <mxCell id="90qTcsNyrZuAhWfa71IT-34" value="Datenbankeintrag gezielt updaten&lt;br&gt;P" style="rounded=0;whiteSpace=wrap;html=1;" vertex="1" parent="1">
          <mxGeometry x="1050" y="410" width="120" height="60" as="geometry" />
        </mxCell>
        <mxCell id="90qTcsNyrZuAhWfa71IT-35" style="edgeStyle=orthogonalEdgeStyle;shape=connector;rounded=0;orthogonalLoop=1;jettySize=auto;html=1;entryX=0.5;entryY=0;entryDx=0;entryDy=0;labelBackgroundColor=default;strokeColor=default;fontFamily=Helvetica;fontSize=11;fontColor=default;endArrow=none;endFill=0;" edge="1" parent="1" source="90qTcsNyrZuAhWfa71IT-36" target="90qTcsNyrZuAhWfa71IT-50">
          <mxGeometry relative="1" as="geometry" />
        </mxCell>
        <mxCell id="90qTcsNyrZuAhWfa71IT-36" value="Ansicht Patienten-portal manipulieren&lt;br&gt;P" style="rounded=0;whiteSpace=wrap;html=1;" vertex="1" parent="1">
          <mxGeometry x="1300" y="410" width="120" height="60" as="geometry" />
        </mxCell>
        <mxCell id="90qTcsNyrZuAhWfa71IT-37" style="edgeStyle=orthogonalEdgeStyle;shape=connector;rounded=0;orthogonalLoop=1;jettySize=auto;html=1;entryX=0.5;entryY=0;entryDx=0;entryDy=0;labelBackgroundColor=default;strokeColor=default;fontFamily=Helvetica;fontSize=11;fontColor=default;endArrow=none;endFill=0;" edge="1" parent="1" source="90qTcsNyrZuAhWfa71IT-38" target="90qTcsNyrZuAhWfa71IT-51">
          <mxGeometry relative="1" as="geometry" />
        </mxCell>
        <mxCell id="90qTcsNyrZuAhWfa71IT-38" value="POST-Request an Applikationsserver&lt;br&gt;P" style="rounded=0;whiteSpace=wrap;html=1;" vertex="1" parent="1">
          <mxGeometry x="1110" y="500" width="120" height="60" as="geometry" />
        </mxCell>
        <mxCell id="90qTcsNyrZuAhWfa71IT-39" value="Anfrage Registrierungscode&lt;br&gt;P (7)" style="rounded=0;whiteSpace=wrap;html=1;" vertex="1" parent="1">
          <mxGeometry x="190" y="630" width="120" height="60" as="geometry" />
        </mxCell>
        <mxCell id="90qTcsNyrZuAhWfa71IT-40" value="Hacking E-Mail Konto Patient&lt;br&gt;P (7)" style="rounded=0;whiteSpace=wrap;html=1;" vertex="1" parent="1">
          <mxGeometry x="450" y="540" width="120" height="60" as="geometry" />
        </mxCell>
        <mxCell id="90qTcsNyrZuAhWfa71IT-41" style="edgeStyle=orthogonalEdgeStyle;shape=connector;rounded=0;orthogonalLoop=1;jettySize=auto;html=1;entryX=0.5;entryY=0;entryDx=0;entryDy=0;labelBackgroundColor=default;strokeColor=default;fontFamily=Helvetica;fontSize=11;fontColor=default;endArrow=none;endFill=0;" edge="1" parent="1" source="90qTcsNyrZuAhWfa71IT-42" target="90qTcsNyrZuAhWfa71IT-39">
          <mxGeometry relative="1" as="geometry" />
        </mxCell>
        <mxCell id="90qTcsNyrZuAhWfa71IT-42" value="Hacking Telefon Patient&lt;br&gt;P" style="rounded=0;whiteSpace=wrap;html=1;" vertex="1" parent="1">
          <mxGeometry x="190" y="540" width="120" height="60" as="geometry" />
        </mxCell>
        <mxCell id="90qTcsNyrZuAhWfa71IT-43" value="Von E-Mail Dienstleister&lt;br&gt;I" style="rounded=0;whiteSpace=wrap;html=1;" vertex="1" parent="1">
          <mxGeometry x="320" y="540" width="120" height="60" as="geometry" />
        </mxCell>
        <mxCell id="90qTcsNyrZuAhWfa71IT-44" value="Von SMS Dienstleister&lt;br&gt;I" style="rounded=0;whiteSpace=wrap;html=1;" vertex="1" parent="1">
          <mxGeometry x="60" y="540" width="120" height="60" as="geometry" />
        </mxCell>
        <mxCell id="90qTcsNyrZuAhWfa71IT-45" value="UPDATE an DBMS von Applikations-server&lt;br&gt;I" style="rounded=0;whiteSpace=wrap;html=1;" vertex="1" parent="1">
          <mxGeometry x="980" y="500" width="120" height="60" as="geometry" />
        </mxCell>
        <mxCell id="90qTcsNyrZuAhWfa71IT-46" value="Keine freien Termine anzeigen&lt;br&gt;P(8)" style="rounded=0;whiteSpace=wrap;html=1;" vertex="1" parent="1">
          <mxGeometry x="1240" y="590" width="120" height="60" as="geometry" />
        </mxCell>
        <mxCell id="90qTcsNyrZuAhWfa71IT-47" style="edgeStyle=orthogonalEdgeStyle;shape=connector;rounded=0;orthogonalLoop=1;jettySize=auto;html=1;entryX=0.5;entryY=0;entryDx=0;entryDy=0;labelBackgroundColor=default;strokeColor=default;fontFamily=Helvetica;fontSize=11;fontColor=default;endArrow=none;endFill=0;" edge="1" parent="1" source="90qTcsNyrZuAhWfa71IT-50" target="90qTcsNyrZuAhWfa71IT-46">
          <mxGeometry relative="1" as="geometry" />
        </mxCell>
        <mxCell id="90qTcsNyrZuAhWfa71IT-48" style="edgeStyle=orthogonalEdgeStyle;shape=connector;rounded=0;orthogonalLoop=1;jettySize=auto;html=1;entryX=0.5;entryY=0;entryDx=0;entryDy=0;labelBackgroundColor=default;strokeColor=default;fontFamily=Helvetica;fontSize=11;fontColor=default;endArrow=none;endFill=0;" edge="1" parent="1" source="90qTcsNyrZuAhWfa71IT-50" target="90qTcsNyrZuAhWfa71IT-52">
          <mxGeometry relative="1" as="geometry" />
        </mxCell>
        <mxCell id="90qTcsNyrZuAhWfa71IT-49" value="AND" style="edgeLabel;html=1;align=center;verticalAlign=middle;resizable=0;points=[];fontSize=11;fontFamily=Helvetica;fontColor=default;" vertex="1" connectable="0" parent="90qTcsNyrZuAhWfa71IT-48">
          <mxGeometry x="-0.1267" relative="1" as="geometry">
            <mxPoint x="-23" as="offset" />
          </mxGeometry>
        </mxCell>
        <mxCell id="90qTcsNyrZuAhWfa71IT-50" value="Aufruf von Portal erfassen&lt;br&gt;P" style="rounded=0;whiteSpace=wrap;html=1;" vertex="1" parent="1">
          <mxGeometry x="1300" y="500" width="120" height="60" as="geometry" />
        </mxCell>
        <mxCell id="90qTcsNyrZuAhWfa71IT-51" value="UPDATE an DBMS&lt;br&gt;P (9)" style="rounded=0;whiteSpace=wrap;html=1;" vertex="1" parent="1">
          <mxGeometry x="1110" y="590" width="120" height="60" as="geometry" />
        </mxCell>
        <mxCell id="90qTcsNyrZuAhWfa71IT-52" value="HTML von Patient Ã¼berschreiben&lt;br&gt;P(8)" style="rounded=0;whiteSpace=wrap;html=1;" vertex="1" parent="1">
          <mxGeometry x="1370" y="590" width="120" height="60" as="geometry" />
        </mxCell>
        <mxCell id="90qTcsNyrZuAhWfa71IT-53" value="DBMS Zugriff&lt;br&gt;I" style="rounded=0;whiteSpace=wrap;html=1;fontFamily=Helvetica;fontSize=11;fontColor=default;" vertex="1" parent="1">
          <mxGeometry x="1005" y="960" width="120" height="60" as="geometry" />
        </mxCell>
        <mxCell id="90qTcsNyrZuAhWfa71IT-54" style="edgeStyle=orthogonalEdgeStyle;shape=connector;rounded=0;orthogonalLoop=1;jettySize=auto;html=1;entryX=0.5;entryY=0;entryDx=0;entryDy=0;labelBackgroundColor=default;strokeColor=default;fontFamily=Helvetica;fontSize=11;fontColor=default;endArrow=none;endFill=0;" edge="1" parent="1" source="90qTcsNyrZuAhWfa71IT-57" target="90qTcsNyrZuAhWfa71IT-79">
          <mxGeometry relative="1" as="geometry" />
        </mxCell>
        <mxCell id="90qTcsNyrZuAhWfa71IT-55" style="edgeStyle=orthogonalEdgeStyle;shape=connector;rounded=0;orthogonalLoop=1;jettySize=auto;html=1;entryX=0.5;entryY=0;entryDx=0;entryDy=0;labelBackgroundColor=default;strokeColor=default;fontFamily=Helvetica;fontSize=11;fontColor=default;endArrow=none;endFill=0;" edge="1" parent="1" source="90qTcsNyrZuAhWfa71IT-57" target="90qTcsNyrZuAhWfa71IT-62">
          <mxGeometry relative="1" as="geometry">
            <Array as="points">
              <mxPoint x="1195" y="950" />
              <mxPoint x="1385" y="950" />
            </Array>
          </mxGeometry>
        </mxCell>
        <mxCell id="90qTcsNyrZuAhWfa71IT-56" style="edgeStyle=orthogonalEdgeStyle;shape=connector;rounded=0;orthogonalLoop=1;jettySize=auto;html=1;entryX=0.5;entryY=0;entryDx=0;entryDy=0;labelBackgroundColor=default;strokeColor=default;fontFamily=Helvetica;fontSize=11;fontColor=default;endArrow=none;endFill=0;" edge="1" parent="1" source="90qTcsNyrZuAhWfa71IT-57" target="90qTcsNyrZuAhWfa71IT-53">
          <mxGeometry relative="1" as="geometry">
            <Array as="points">
              <mxPoint x="1195" y="950" />
              <mxPoint x="1065" y="950" />
            </Array>
          </mxGeometry>
        </mxCell>
        <mxCell id="90qTcsNyrZuAhWfa71IT-57" value="Einsicht/Diebstahl persÃ¶nlicher Daten&lt;br&gt;OR" style="rounded=0;whiteSpace=wrap;html=1;fontFamily=Helvetica;fontSize=11;fontColor=default;" vertex="1" parent="1">
          <mxGeometry x="1135" y="870" width="120" height="60" as="geometry" />
        </mxCell>
        <mxCell id="90qTcsNyrZuAhWfa71IT-58" style="edgeStyle=orthogonalEdgeStyle;shape=connector;rounded=0;orthogonalLoop=1;jettySize=auto;html=1;entryX=0.5;entryY=0;entryDx=0;entryDy=0;labelBackgroundColor=default;strokeColor=default;fontFamily=Helvetica;fontSize=11;fontColor=default;endArrow=none;endFill=0;" edge="1" parent="1" source="90qTcsNyrZuAhWfa71IT-59" target="90qTcsNyrZuAhWfa71IT-81">
          <mxGeometry relative="1" as="geometry" />
        </mxCell>
        <mxCell id="90qTcsNyrZuAhWfa71IT-59" value="Raten von Nutzername/Passwort&lt;br&gt;anhand Informationen&lt;br&gt;P" style="rounded=0;whiteSpace=wrap;html=1;fontFamily=Helvetica;fontSize=11;fontColor=default;" vertex="1" parent="1">
          <mxGeometry x="1395" y="1050" width="120" height="60" as="geometry" />
        </mxCell>
        <mxCell id="90qTcsNyrZuAhWfa71IT-60" style="edgeStyle=orthogonalEdgeStyle;shape=connector;rounded=0;orthogonalLoop=1;jettySize=auto;html=1;entryX=0.5;entryY=0;entryDx=0;entryDy=0;labelBackgroundColor=default;strokeColor=default;fontFamily=Helvetica;fontSize=11;fontColor=default;endArrow=none;endFill=0;" edge="1" parent="1" source="90qTcsNyrZuAhWfa71IT-62" target="90qTcsNyrZuAhWfa71IT-80">
          <mxGeometry relative="1" as="geometry" />
        </mxCell>
        <mxCell id="90qTcsNyrZuAhWfa71IT-61" style="edgeStyle=orthogonalEdgeStyle;shape=connector;rounded=0;orthogonalLoop=1;jettySize=auto;html=1;entryX=0.5;entryY=0;entryDx=0;entryDy=0;labelBackgroundColor=default;strokeColor=default;fontFamily=Helvetica;fontSize=11;fontColor=default;endArrow=none;endFill=0;" edge="1" parent="1" source="90qTcsNyrZuAhWfa71IT-62" target="90qTcsNyrZuAhWfa71IT-59">
          <mxGeometry relative="1" as="geometry" />
        </mxCell>
        <mxCell id="90qTcsNyrZuAhWfa71IT-62" value="Identifizierung Centre-Worker&lt;br&gt;P" style="rounded=0;whiteSpace=wrap;html=1;fontFamily=Helvetica;fontSize=11;fontColor=default;" vertex="1" parent="1">
          <mxGeometry x="1325" y="960" width="120" height="60" as="geometry" />
        </mxCell>
        <mxCell id="90qTcsNyrZuAhWfa71IT-63" style="edgeStyle=orthogonalEdgeStyle;shape=connector;rounded=0;orthogonalLoop=1;jettySize=auto;html=1;entryX=0.5;entryY=0;entryDx=0;entryDy=0;labelBackgroundColor=default;strokeColor=default;fontFamily=Helvetica;fontSize=11;fontColor=default;endArrow=none;endFill=0;" edge="1" parent="1" source="90qTcsNyrZuAhWfa71IT-64" target="90qTcsNyrZuAhWfa71IT-69">
          <mxGeometry relative="1" as="geometry" />
        </mxCell>
        <mxCell id="90qTcsNyrZuAhWfa71IT-64" value="Abfangen SMS&lt;br&gt;P" style="rounded=0;whiteSpace=wrap;html=1;fontFamily=Helvetica;fontSize=11;fontColor=default;" vertex="1" parent="1">
          <mxGeometry x="960" y="1740" width="120" height="60" as="geometry" />
        </mxCell>
        <mxCell id="90qTcsNyrZuAhWfa71IT-65" style="edgeStyle=orthogonalEdgeStyle;shape=connector;rounded=0;orthogonalLoop=1;jettySize=auto;html=1;entryX=0.5;entryY=0;entryDx=0;entryDy=0;labelBackgroundColor=default;strokeColor=default;fontFamily=Helvetica;fontSize=11;fontColor=default;endArrow=none;endFill=0;" edge="1" parent="1" source="90qTcsNyrZuAhWfa71IT-66" target="90qTcsNyrZuAhWfa71IT-84">
          <mxGeometry relative="1" as="geometry" />
        </mxCell>
        <mxCell id="90qTcsNyrZuAhWfa71IT-66" value="Eindringen in Applikationsserver&lt;br&gt;P" style="rounded=0;whiteSpace=wrap;html=1;fontFamily=Helvetica;fontSize=11;fontColor=default;" vertex="1" parent="1">
          <mxGeometry x="1089" y="1740" width="120" height="60" as="geometry" />
        </mxCell>
        <mxCell id="90qTcsNyrZuAhWfa71IT-67" style="edgeStyle=orthogonalEdgeStyle;shape=connector;rounded=0;orthogonalLoop=1;jettySize=auto;html=1;entryX=0.5;entryY=0;entryDx=0;entryDy=0;labelBackgroundColor=default;strokeColor=default;fontFamily=Helvetica;fontSize=11;fontColor=default;endArrow=none;endFill=0;" edge="1" parent="1" source="90qTcsNyrZuAhWfa71IT-68" target="90qTcsNyrZuAhWfa71IT-64">
          <mxGeometry relative="1" as="geometry" />
        </mxCell>
        <mxCell id="90qTcsNyrZuAhWfa71IT-68" value="Identifizierung Patient&lt;br&gt;P" style="rounded=0;whiteSpace=wrap;html=1;fontFamily=Helvetica;fontSize=11;fontColor=default;" vertex="1" parent="1">
          <mxGeometry x="960" y="1650" width="120" height="60" as="geometry" />
        </mxCell>
        <mxCell id="90qTcsNyrZuAhWfa71IT-69" value="Erhalt von Registrierungscode (zwei mal pro Code)&lt;br&gt;I&amp;nbsp;" style="rounded=0;whiteSpace=wrap;html=1;fontFamily=Helvetica;fontSize=11;fontColor=default;" vertex="1" parent="1">
          <mxGeometry x="960" y="1830" width="120" height="60" as="geometry" />
        </mxCell>
        <mxCell id="90qTcsNyrZuAhWfa71IT-70" style="edgeStyle=orthogonalEdgeStyle;shape=connector;rounded=0;orthogonalLoop=1;jettySize=auto;html=1;entryX=0.5;entryY=0;entryDx=0;entryDy=0;labelBackgroundColor=default;strokeColor=default;fontFamily=Helvetica;fontSize=11;fontColor=default;endArrow=none;endFill=0;" edge="1" parent="1" source="90qTcsNyrZuAhWfa71IT-72" target="90qTcsNyrZuAhWfa71IT-87">
          <mxGeometry relative="1" as="geometry" />
        </mxCell>
        <mxCell id="90qTcsNyrZuAhWfa71IT-71" style="edgeStyle=orthogonalEdgeStyle;shape=connector;rounded=0;orthogonalLoop=1;jettySize=auto;html=1;entryX=0.5;entryY=0;entryDx=0;entryDy=0;labelBackgroundColor=default;strokeColor=default;fontFamily=Helvetica;fontSize=11;fontColor=default;endArrow=none;endFill=0;" edge="1" parent="1" source="90qTcsNyrZuAhWfa71IT-72" target="90qTcsNyrZuAhWfa71IT-68">
          <mxGeometry relative="1" as="geometry">
            <Array as="points">
              <mxPoint x="1105" y="1640" />
              <mxPoint x="1020" y="1640" />
            </Array>
          </mxGeometry>
        </mxCell>
        <mxCell id="90qTcsNyrZuAhWfa71IT-72" value="Merhfachnutzung Verfikationscode&lt;br&gt;OR" style="rounded=0;whiteSpace=wrap;html=1;fontFamily=Helvetica;fontSize=11;fontColor=default;" vertex="1" parent="1">
          <mxGeometry x="1045" y="1560" width="120" height="60" as="geometry" />
        </mxCell>
        <mxCell id="90qTcsNyrZuAhWfa71IT-73" value="EntschlÃ¼sseln der Daten&lt;br&gt;P (10)" style="rounded=0;whiteSpace=wrap;html=1;fontFamily=Helvetica;fontSize=11;fontColor=default;" vertex="1" parent="1">
          <mxGeometry x="1135" y="1230" width="120" height="60" as="geometry" />
        </mxCell>
        <mxCell id="90qTcsNyrZuAhWfa71IT-74" style="edgeStyle=orthogonalEdgeStyle;shape=connector;rounded=0;orthogonalLoop=1;jettySize=auto;html=1;entryX=0.5;entryY=0;entryDx=0;entryDy=0;labelBackgroundColor=default;strokeColor=default;fontFamily=Helvetica;fontSize=11;fontColor=default;endArrow=none;endFill=0;" edge="1" parent="1" source="90qTcsNyrZuAhWfa71IT-75" target="90qTcsNyrZuAhWfa71IT-77">
          <mxGeometry relative="1" as="geometry" />
        </mxCell>
        <mxCell id="90qTcsNyrZuAhWfa71IT-75" value="Identifizierung der Kommunikations&lt;br&gt;protokolls&lt;br&gt;P" style="rounded=0;whiteSpace=wrap;html=1;fontFamily=Helvetica;fontSize=11;fontColor=default;" vertex="1" parent="1">
          <mxGeometry x="1135" y="1050" width="120" height="60" as="geometry" />
        </mxCell>
        <mxCell id="90qTcsNyrZuAhWfa71IT-76" style="edgeStyle=orthogonalEdgeStyle;shape=connector;rounded=0;orthogonalLoop=1;jettySize=auto;html=1;entryX=0.5;entryY=0;entryDx=0;entryDy=0;labelBackgroundColor=default;strokeColor=default;fontFamily=Helvetica;fontSize=11;fontColor=default;endArrow=none;endFill=0;" edge="1" parent="1" source="90qTcsNyrZuAhWfa71IT-77" target="90qTcsNyrZuAhWfa71IT-73">
          <mxGeometry relative="1" as="geometry" />
        </mxCell>
        <mxCell id="90qTcsNyrZuAhWfa71IT-77" value="Man-in-the-Middle-Angriff&lt;br&gt;P" style="rounded=0;whiteSpace=wrap;html=1;fontFamily=Helvetica;fontSize=11;fontColor=default;" vertex="1" parent="1">
          <mxGeometry x="1135" y="1140" width="120" height="60" as="geometry" />
        </mxCell>
        <mxCell id="90qTcsNyrZuAhWfa71IT-78" style="edgeStyle=orthogonalEdgeStyle;shape=connector;rounded=0;orthogonalLoop=1;jettySize=auto;html=1;entryX=0.5;entryY=0;entryDx=0;entryDy=0;labelBackgroundColor=default;strokeColor=default;fontFamily=Helvetica;fontSize=11;fontColor=default;endArrow=none;endFill=0;" edge="1" parent="1" source="90qTcsNyrZuAhWfa71IT-79" target="90qTcsNyrZuAhWfa71IT-75">
          <mxGeometry relative="1" as="geometry" />
        </mxCell>
        <mxCell id="90qTcsNyrZuAhWfa71IT-79" value="IP-Adressen herausfinden&lt;br&gt;P" style="rounded=0;whiteSpace=wrap;html=1;fontFamily=Helvetica;fontSize=11;fontColor=default;" vertex="1" parent="1">
          <mxGeometry x="1135" y="960" width="120" height="60" as="geometry" />
        </mxCell>
        <mxCell id="90qTcsNyrZuAhWfa71IT-80" value="Brute-Force-Angriff fÃ¼r Nutzername/Passwort&lt;br&gt;I" style="rounded=0;whiteSpace=wrap;html=1;fontFamily=Helvetica;fontSize=11;fontColor=default;" vertex="1" parent="1">
          <mxGeometry x="1265" y="1050" width="120" height="60" as="geometry" />
        </mxCell>
        <mxCell id="90qTcsNyrZuAhWfa71IT-81" value="Auslesen der unverschlÃ¼sselten Daten&lt;br&gt;P (6)" style="rounded=0;whiteSpace=wrap;html=1;fontFamily=Helvetica;fontSize=11;fontColor=default;" vertex="1" parent="1">
          <mxGeometry x="1395" y="1140" width="120" height="60" as="geometry" />
        </mxCell>
        <mxCell id="90qTcsNyrZuAhWfa71IT-82" style="edgeStyle=orthogonalEdgeStyle;shape=connector;rounded=0;orthogonalLoop=1;jettySize=auto;html=1;labelBackgroundColor=default;strokeColor=default;fontFamily=Helvetica;fontSize=11;fontColor=default;endArrow=none;endFill=0;" edge="1" parent="1" source="90qTcsNyrZuAhWfa71IT-83">
          <mxGeometry relative="1" as="geometry">
            <mxPoint x="1215" y="1820" as="targetPoint" />
            <Array as="points">
              <mxPoint x="1279" y="1820" />
            </Array>
          </mxGeometry>
        </mxCell>
        <mxCell id="90qTcsNyrZuAhWfa71IT-83" value="Auffinden von Whitelist&lt;br&gt;P" style="rounded=0;whiteSpace=wrap;html=1;fontFamily=Helvetica;fontSize=11;fontColor=default;" vertex="1" parent="1">
          <mxGeometry x="1219" y="1740" width="120" height="60" as="geometry" />
        </mxCell>
        <mxCell id="90qTcsNyrZuAhWfa71IT-84" value="&amp;nbsp;Verifikationscodes nach Benutzung auf Whitelist setzen&lt;br&gt;P (10)" style="rounded=0;whiteSpace=wrap;html=1;fontFamily=Helvetica;fontSize=11;fontColor=default;" vertex="1" parent="1">
          <mxGeometry x="1155" y="1830" width="120" height="60" as="geometry" />
        </mxCell>
        <mxCell id="90qTcsNyrZuAhWfa71IT-85" style="edgeStyle=orthogonalEdgeStyle;shape=connector;rounded=0;orthogonalLoop=1;jettySize=auto;html=1;entryX=0.5;entryY=0;entryDx=0;entryDy=0;labelBackgroundColor=default;strokeColor=default;fontFamily=Helvetica;fontSize=11;fontColor=default;endArrow=none;endFill=0;" edge="1" parent="1" source="90qTcsNyrZuAhWfa71IT-87" target="90qTcsNyrZuAhWfa71IT-66">
          <mxGeometry relative="1" as="geometry" />
        </mxCell>
        <mxCell id="90qTcsNyrZuAhWfa71IT-86" style="edgeStyle=orthogonalEdgeStyle;shape=connector;rounded=0;orthogonalLoop=1;jettySize=auto;html=1;labelBackgroundColor=default;strokeColor=default;fontFamily=Helvetica;fontSize=11;fontColor=default;endArrow=none;endFill=0;" edge="1" parent="1" source="90qTcsNyrZuAhWfa71IT-87" target="90qTcsNyrZuAhWfa71IT-83">
          <mxGeometry relative="1" as="geometry">
            <Array as="points">
              <mxPoint x="1185" y="1730" />
              <mxPoint x="1279" y="1730" />
            </Array>
          </mxGeometry>
        </mxCell>
        <mxCell id="90qTcsNyrZuAhWfa71IT-87" value="RegulÃ¤re Anfrage eines Verifikationscodes&lt;br&gt;P" style="rounded=0;whiteSpace=wrap;html=1;fontFamily=Helvetica;fontSize=11;fontColor=default;" vertex="1" parent="1">
          <mxGeometry x="1125" y="1650" width="120" height="60" as="geometry" />
        </mxCell>
        <mxCell id="90qTcsNyrZuAhWfa71IT-88" value="AND" style="text;html=1;align=center;verticalAlign=middle;resizable=0;points=[];autosize=1;strokeColor=none;fillColor=none;fontSize=11;fontFamily=Helvetica;fontColor=default;" vertex="1" parent="1">
          <mxGeometry x="1173" y="1710" width="50" height="30" as="geometry" />
        </mxCell>
        <mxCell id="90qTcsNyrZuAhWfa71IT-89" value="" style="shape=image;verticalLabelPosition=bottom;labelBackgroundColor=default;verticalAlign=top;aspect=fixed;imageAspect=0;image=data:image/png,iVBORw0KGgoAAAANSUhEUgAAAxIAAAEfCAYAAADVxfA8AAAAAXNSR0IArs4c6QAAAARnQU1BAACxjwv8YQUAAAAJcEhZcwAADsMAAA7DAcdvqGQAAE3jSURBVHhe7d0HfMz3/wfw12USiR1FCCWIWTt2ErFLUUqrpUPxVz+rxs9oVYui0qq2ajWqfqifmr/aRIgVM1aILSISiRhJhESS+9/7m+8RaYwjuZG8no9H5O57I3fnc3ef12dqtDogIiIiIiIygJX6m4iIiIiI6IUxSBARERERkcEYJIiIiIiIyGAMEkREREREZDAGCSIiIiIiMhiDBBERERERGYzLv1oAjUajniIyT/wYISIiynsYJCyABAl/f3/1HJF58fHxYZAgIiLKgzi0iYiIiIiIDMYgQUREREREBmOQsDC2VuewbWgfTD3+QDlvbR2LEL9e8PGZgmWR6XMp7JICsbDTLKy/a62cz0ijSUHC3i/gM+Mgoqz/ebm5sL+7HjN8fs7yORARERGR6TFIWJgUrSveaO+My1F3kaY7b6WNxfUTNqhSJQTBl+8q10m7FoK/3avDvSj/e4mIiIgoZ7CmaWG0WjsUK1kCkceuIFp6FCIOw/9SQ3g2LYrQ0GuIs0rC9fMX4NyqJiqlhePiilHo6eMDH5+e+Hh+EM4/0P+X30XUzm8xSj1+IckatkkXcPxP/fV90Gl6AM4ladN7MEb9Cr+pPR8dD7sVgIWdJiu9ILaaYKz+UHebcf64oHtMqcemo9OY7bgUewBr1dv4+IzD1N2RuG9zDQd0xz6eMwczesrx/hi16RoSrKxgcycAi0Z00h3riV6zDiFa9yitr6981DORsTflrtJjMQ4/zh6R/nh7zsSyiIe66yQj4dgPuueV/jfl8k7TD5h17wsRERGRJWKQsDhWyF+1MboGncG5xGRcP34AIV1bomvLJnD/+wwuapMQfSURr5d0QNzuXzHyUgdM2hiAXQG+GHDnJ3y3MwrK+jqbA7G/9Of4cfNodAyZrjt+DYlnVuGLw00xZtNOBAbMwZAbc7HgyG3lr+JqEvL3WYLAzd/ho/C5+CW0PDzeOoedJ6KAOxG4eE13Hd0/1xNvIfRQCEq1KIyoBXOxt/b3WBcQgMCVTWD3nR/WhOsq9LrK/s04d3RevAPb5tUDfNdgZ2wE9sxfgF0es/C/gAWY1iAJV9P/8jPcRESF4VgYsBp+3c7Bb1kwbt3ainlfxqLC/M0I3PQBqsfpnpcVl88lIiIiym4MEhYorUAFuLuF4NqtONy4kowm9SqgQOmqaIRTOHPmGA5u8UBT9zRcPXsBcdsmY2AHb3h6f4TxW27g4onLiJE7adcJXSvnQ4rdG2jbo7rueDhi6/0Lc7rb4+auPzBv+AhMO55P+XuK+k3R0jUftPlfg0spad0vBPcG1REZcBxnLoYgsHpt1E4Mx7XoKwjdWBFeFRJxNvgqjvp+iM7e3mjRfSY2Jp5H8OU70Kbmh3vzeqhsr0V+ZxeUkPuPP4fTu6uhdfOKKJBWEK5NmqG+HH+mmvBsUg6O2gIo7lJMdz4VD8JCsLO6N1pXdsBDO3e0bF8XDmlcmpSIiIgouzFIWKDU1OJw80nDtrXLsWGDC8qVyI80K1e4d7iIbSv8sbuOOyo7pOoShw0qjl6Gbf7+yj4U8rNjtEd6xf2RFNyPj9f9vo/oDeMwMDARiQ+d4TZsJqa0fJh+lSzZpPeMnD2HI2fCYeP5Pvp0uogj/9uGQynl4Fo8FdpEb/RdsuPR3/b3/wMzWzipt382bb6CKOYgs0CIiIiIyBwxSFggrTYfXN6oh1IrV2JrzcZoWMYGaWmFUK6aK67uCoWtx+t4Lc0RrlXLI3KrP/bcAWyTT2PblF7otzlaHdr0PcbO2YsrsSex638xaNDEDY5xcYBzVXh3bIummsPYFRSPu/EP0q+fBW3+knCtsgXzF6ahoVtFlHYtiGOrNyGka0PUKeGGas11f3PDCURpNEi9thzTO03GYhnalBWnyhmufw/hOzZiS6IVUgsU1QWKY9hzKhZWSeewP/C8eoOsWCNfuerwCgnAtnOJuuccih2bjnJoExEREVEOYJCwUJqiZeDm4ICKnjVQIfWhLlzYoEiFavBALXjVKgmN1g6Fm3+GHz2CMbubD1q0/xrLnIdgtJfuMrmDdp9iaNVd+OWdBTjgNQHDmpVBuSZt0WLLYHT19kGXpWl4vYkDIiNu4p7yF/9JWUHKq4LulPSKFEapSu4ogyrpQ63SyqJZv6HoHDMZ77dsiTYfnkDa6L7oWjY1/caZWZXJcP1PMOaQPVzleKGGePMzZ1ye0A1evTcgqozrM4cqJRVvjwGTiuFS/3a65/w79j90UC8hIiIiouyk0eqop8lMaTQaZWgQGcZGE4lj87/CWOthWPppDRRM41CpnCCrcvFjhIiIKO9hjwTlKja3Hy8569nyA4y91RkTO1dliCAiIiLKZuyRsADskSBzxh4JIiKivIk9EkREREREZDD2SFgA6ZEgIiIyNVYZiCgjBgkLwKFNRERkahzGSESZcWgTEREREREZjEGCiIiIiIgMxiBBREREREQGY5AgIiIiIiKDMUgQEREREZHBGCSIiIiIiMhgDBJERERERGQwBgkiIiIiIjIYgwQRERERERmMQYKIiIiIiAzGIEFERERERAZjkCAiIiIiIoMxSBARERERkcEYJIiIiIiIyGAMEkREREREZDAGCSIiIiIiMhiDBBERERERGYxBgoiIiIiIDMYgQUREREREBmOQICIiIiIigzFIEBERERGRwRgkiIiIiIjIYAwSRERERERkMAYJIiIiIiIyGIMEEREREREZjEGCiIiIiIgMxiBBREREREQGY5AgIiIiIiKDMUgQEREREZHBGCSIiIiIiMhgDBJERERERGQwBgkiIiIiIjIYgwQRERERERmMQYKIiIiIiAzGIEFERERERAZjkCAiIiIiIoMxSBARERERkcEYJIiIiIiIyGAMEkREREREZDAGCSIiIiIiMhiDBBERERERGYxBgoiIiIiIDMYgQUREREREBmOQICIiIiIigzFIEBERERGRwRgkiIiIiIjIYAwSRERERERkMAYJIiIiIiIyGIMEEREREREZjEGCiIiIiIgMxiBBREREREQGY5AgIiIiIiKDMUgQEREREZHBGCSIiIiIiMhgDBJERERERGQwBgkiIiIiIjIYgwQRERERERmMQYKIiIiIiAzGIEFERERERAZjkCAiIiIiIoMxSBARERERkcEYJIiIiIiIyGAMEkREREREZDAGCSIiIiIiMhiDBBERERERGYxBgoiIiIiIDMYgQUREREREBmOQICIiIiIigzFIEBERERGRwRgkiIiIiIjIYAwSRERERERkMAYJIiIiIiIyGIMEEREREREZjEGCiIiIiIgMxiBBREREREQGY5AgIiIiIiKDMUgQEREREZHBGCSIiIiIiMhgDBJERERERGQwBgkiIiIiIjIYgwQRERERERmMQYKIiIiIiAzGIEFERERERAZjkCAiIiIiIoMxSBARERERkcEYJIiIiIiIyGAMEkREREREZDAGCSIiIiIiMhiDBBERERERGSzHgsSiRYtQu3ZtaDSaRz9dunTBzp071WsQERERmbeUlBQkJSXh4cOHePDgAe7fv69eYhi5D7ltcnKy8iP3RfQy7ty5g549e8LR0fFRHbtUqVIYM2aMcpkxabQ66uls89FHHymBYeLEiUp4KFy4sPLEfvzxx0c/ch16MVJA/P391XNERETG5+PjgxyoMpgFCQtpaWnK87O3t0dqairi4+OVyn9cXJxynevXryu/RXh4OC5fvqyeezEeHh7KfYuCBQsqlUAbGxuljiTHHRwclMcgj0X/OIgyO3bsGJo1a4ZKlSqhSZMmKFmypHJcymNAQADs7Oxw4MABpVwZQ7YHCQkPa9euVYJEVk9CXgAvLy+lx0JCBj0fgwQREZlabgkS+tAglXh5PhIUbt68iYSEBOV0YGCgek3jq1WrllJ3Kl26NPLnz48iRYqgQIECSg8GwwVJo3yZMmXQpk0b1KlTRz36pNWrVyu9XWfOnFGP5KxsDRLyBMuXL6+ECBnW9DQSIqRXQkIFPR+DBBERmZqlBgkJDTIsSSrh9+7dQ3R0tFJfuXr1Kk6cOKFey7y1aNFCCRfFixdXwoU+DEnrM+UdMnRp3bp16NWrl3oka1LH/v77740y+idbg4T0REiPxIsEBEnccj0JHvRsDBJERGRqlhQkpKIt5PszMjISMTExFhUcnkeChaurK0qUKKH0WMgQLPZW5H6VK1dG/fr1UbVqVfVI1vbv368MlVu5cqV6JOdka5CQEJHx97PI8Ca5nvymZ2OQICIiUzP3ICEt9PKjDw8RERHYunWremnuJcOh3NzclGAhlUcJUQwVuZOU7W+++UY993QyX0JC8+HDh9UjOSdbV22SXoYrV66o557N2LPKiYiIKPeR1nghvQ5HjhzBt99+i99//z1PhAghFUYZFy/DWdavX6/0vMhroh/+RLmH9D69SP1Z5kjIHCBjyNYeCRmqJBOonxcm5PLXX3/dIsdamkJe7pGQpfKkVSmjxMRE5YPyaZydnVGsWDH1XDoXFxdl4hqRpWDZJ3Njbj0SMu/BysoKly5dwunTp3PNsKXsIhNyZSiMrBAl/2/GqlhSzmnVqpXy//m0idZ6Eizbtm2LadOmqUdyTrav2iSTrGVyx7Bhw9Qj/6RfElYmXdPz5dYgoa8oxcbGKi1JMgEuKipKWXLv4MGD6rXSv7wyk67cp5EvFVl9I6NTp07hxo0byumGDRvCyclJWXqvQoUKSsIvW7asUgGTSWxEOY1lnyyRuQQJaWmX5VklPEgLPD2bfGbUq1dPWe1HXjdra2v1ErI0Mhe5b9+++L//+z/ky5dPPfok+S759ddfleFNxpiHnO1BQr+8q8x/yCpM6PeYkOtltTws/VNuCBIXLlxQKk1hYWHKaX3lRr6YMldqhIz3zCmyFri07GauxGV8TLIus/SayePJycdCuZ+Ud1lzXsqanNa/l1n2ydKYOkjol0BlgHg5+kAhG5fJ68geCsskG9Ht3r0b77333j/q0fJ5LsP6ZB7FyJEj1aM5K9uDhNAPcZInqN8rQsZ0SZKSdCQ9EVyt6cVZWpCQ1tbz588jNDT0UcXJ3d0dVapUUSpNctpcW0D1LcX6zYbkeUgLsbTkSldiuXLllK5itt5SVnJ72ZeKCIdJ5V2mChIZhzAtX75cPUovSzbGk/e1NGDY2tqqR8mS9O/fH0uWLFG+W/TfJ7LAgAx9/frrr40WIkSOBAk9CQwyH0Ke1FdffaX0VHCVJsNZQpCQls6jR49i7969T1Q+pOIkuy9aeuVDKoVSOZQxuPJ/kfH5PWuoCeV+mcu+VLakTMgKKrm57NetW5c9FnmMsYOEDMOR7z/pPdu2bZsScCn7dOzYUfmskteZ+1FYHqlf//bbb5gyZYoyAkjmw3366adGH+2To0FCTz4IjPnhk9uYa5CQCobsACqrZAjpMpX1jXND5el55LlL5XHXrl24ffu2MgFKnjtDRd6gX1Zv+/btSmsQyz7Lfl5gzCCh74WQ91leWX3JFGQYY+vWrZWFGuT1Jstj6jo2g4QFMKcgIRUHaRmSSoTw9PREs2bNlB038yp5TWQ4n3zZyRwQqVi1a9cuT78muRHL/j+x7OctxgoSEiJk0YANGzawF8JI9L0TUt9goLAsDBL0XOYQJKQFVia3yaRMqSzIrpoc1vBPMsxlz549ynwgaanu06eP8uHMceWW68CBA8r7T1/2WVHOWsayL/MpZH6cjMWm3MMYQUKG2XAuhGnI+1UaSCRIcO6E5WCQoOcyZZCQStTixYuV0927d0ejRo1YKX5BGSugvXr1Ur6E+dpZjoxln4HQMPLaSaCQXgqW/dwjJ4OEflnS4OBgrshkQjLUqXPnzsoO2Vwm1jJYRJCQB2lqeTmImCJI6CtRMnlHvjzYsvjyZEz5ihUrGCgsRMayr+/up5fDsp+75FSQYIgwL/owIas6cZhTzrP0OjZ7JCyAMYOEfPHPnDlTOT18+HAOX8pGGStVQ4cOZTgzMzJ8b968ecquobLhD8t+9mHZzx1yMkjoh8+SedCHCdn0jMOczJup69gMEhbAGEFC1pBfsGABgoKC+EWfw/RhTSqsgwcP5nh7E2PZNx59WJPeHtmclGXfsuREkEhLS8Px48cZIsyQPkxILyI3rzNfpq5js8+KlC93aYEVfn5+rEjlMGnpnj17Npo2bYrevXvzC9SE9GVfdphm2c95MkzM19dX+S1lPyAgQL2E8iLZqVrm0fAz0DzJiln79+9XKqpET8MeCQuQkz0SMtxAJkWOGTOGY8FNQFa6+fnnn+Hk5KQMJTP2+HH7u+sx+e3LqLp6GDoWSlWPPptGk4L4PRPRed9bWDqmMUqmPvt2hl7fWBYuXKjsA8GybxpS9mUjJdmZtV+/fpw78RI0mmTEhS7F9GAvTHyvAmxy+Hs2O3skpCfi3r17+PHHH9UjplGxSju07N4AJbNoVk2LOooFK/Yg+u5d9cjLKVSoBGq2fw/epW5g08q9OBwerl5iGWSuWI0aNTjEyUyZuo7NIGEBciJIyHCOb775Rjk9evToR1usk/HJ/8Wff/6pbOw3fvx4sx/uYelBImPZnzBhAiuwJqQfVhYZGclhfi/ByioBl5YPxnDrifire3mLChIyL0KWC5ZNTc1FjfafonNdDY6s3IHNZy+qR0n861//Uhq8OMTJ/DBI0HNld5DQV6RkF9733nuPFSkzId37y5YtU4Z+GKtC9bhHogecfx2CuYW9UG3nSmy+WRF1R07AV2+6osj9UOxe5IvxK3RfrHU/xVfje6BuyFdKMFjdPxrz1R6NToWTMgSGenA8Mgtfj9iAo6gLT8+b2JV/oHK8wOnFmDthie5v6B5A3T4YPuw9dHSxS39AOSxj2f/kk0/Uo2Rq+p5RY5b9V/UoIK91Qpu0Pdh6zAGuPYdj/IcNUfLwBLwX6IRmx7Zia8XPMb13NAImZizz3eF5eTr6nHsXf3xaA4W0ibixaTz+HTcIc1vHYNPcH/DzdrmyB1pNHIxh3qk4MWnEP96f31b+G5/2X4lrumsW/Gwufq/4N6Yo7znAoc0X+H6YDyrbp+nOZY/sChISIiQ8/v777+oR85BVkKjSqCOaN66FUo6yFGoSbp0/ioB991CrmydKIwUOjvmhDPxJvocEOMBR91GWHHUSh2JLo0H14rBLjsHJXftws7y30iPhf0D3v+rjioe3UlC4aAFdJSweYft3Y31wFNwbt4VHHRc4yh0mx+L8wSAsD5D/TdOTXlvpmeCSsObH1HVszpHIYzJXpBgizId8SMtk35EjRyrDPrKbjSYSJ+cOxZi9V3HpzxG633fwRBVDk4ybce7ovHgHts2rB/iuwc7bybgeMBvjL7wJ302r8JP735ixOkT3hfls9jc3Yd6XsagwfzMCN32MxraJj4+PiYXLD5uxY8cmrO18EfN+DsQFXVUoaNrHGLP7JPbJ78yPLRswRJivHj165GjZzw42dwKwoP8srA8/ihW633/fUr8+r9qh7OerEbh5NDqGTMd3O6MgX+mJx5xQfe4OBI7SYue4zGV+P+7Ub4VOfx/EsftWuvfmVQSvdkDrJvYInjcXe2t/j3UBAQhc2QR23/lhTbiu8pbF+3NL8U/w9QBXXYhYiLXdE+D/dQiK/rABgQFzMPTmT/DdGQnr2+vh2/UXbDi1Wvm9/rbpx7tLZVR6YM1duQpNULdRdTjdOozl8+dj1Y6rsHV7A/XdJDxYw0F7DVv/swQB5+MA2zTEHt6E1brPV23J6njD6SL+XuqPCw+KoHKVUulh4xEb2Cacwl+/rcbRG7YoV6sSqlZtjga1nRC7fyNmz16InVds4NagBlpUfF29jWnJfDIJfykpKeoRonQMEnmMuVWkbDXBWP2hj9LSlfmn66owpOiS9quSlsOEvV/AZ8ZBRJl5a4pM9pXx4lKhkopvdpGx1Ld3z8G4K23wbr6VmLS1GXo2KPbEB4A2NT/cm9dDZXst8ju7oIRyNBHRETEo2Kg2atoXQfW+y7C+bzU4Kpc9TSoehIVgZ3VvtK7sgBT7ymjcotKj44fiNsGvTzu0bNkeXb7ai8RDZxB6txyaD+iG4j/swu2OnVDcdwk2ZnOFJyfLvq3VOWwb2gdTjz9Qj6SzSwrEQiNX3h6V9w9XI1jz/DHN5vL+kLIve03IvInsLPvZwcYqHHvmL8Chrp5w3bwAm1p1glex9BZAh7Zt0bGsPVLs3kDbHtVx8cRlxMgF9eujfnE8tcwfT6oNjw47sGRnBLQRh7EKzdC8+EWcCb6Ko74forO3N1p0n4mNiecRfPnOU96fj2k1xVGmcQK2fz4Ew5ZG4IHPVHzTrjTSirbBgBHR+G2zM94aFg0/vyBEakw3PEXmRty4cUOpmJo7+4IlUNTRDo6uHni3f390a1kJTpp8KFbCSXdpGu5FReLs7XvpV74XhdPnopHyIBkPkYTY8GjE3ovB3cQ02NrZZaps3UPk+WuIStRdHp+sO2+FfCWKwsmqIMo16YBBgz6BV+VC0Og+c0u/Zj6NfadPn+boEvoHBok8RIYPCBnOZC4eauvg7T/8laFbu+Z3R8GCn8F3R6Byfk23ctky5lertYFj08nwH9XQbCb6Pou3rgLRqlWrR/t5ZAcbhGDr9yfh3sEJFyfvRvF+PqhjZ5zXQqu1Qv4CTnBQuxgSG4zFvJ3p/8fpP4OVid5a59po7uGP3866o+t7R+C348pTg6RUQmQZ3RelL/s5FaAfprmh5cfVcfDIJcQ92sApDffP7MffnVqiRTHjBQlLJr1y9erVy9ayny3Or8ecLY3xjkMgvl9eDd3a6iqUBnw2ZV3mHeHeoDoiA7Zi+brNQLfaeF1XTLSJ3ui7ZEeG6/6BmS2k4vpsKVpXNPr3f7Dq53fQpngEoreNQj/ffbgOBxSv2RBNNv0P/q91xQd7l2HtBam85ow7d+4oE6jld1akRdtce52yloiwvX9j0qRJ6s8UrNoXrV72NClI1gUKgyWFYdeyJRn+1iws33davdD0ZLNOCYJEGTFI5BFS6ZIxyDKx2pKGM9ncPoC1U3uqvRTjMHV3JFLursf0ThMxdYoc/xK//DIUPqOmY/qITrrzPfHxirO4cewHjJLbjPoTgXdSH7W43tXddobufn6cPQI95fKeM7Es4qH618yHhL34+PhsWx4zBdXRZkRNhG6MR8UvmuPmAn8EJ79I67MDSrg4Iy7oGE4mxePKioFoOXY7LqoZRJuvIIo5HMOeU7GwSjqH/YHndUetka9cdXiFbMeqI7GwTg7Fjk1HkWj15HFYxeHGpjHoNGY7LljbQhNzDLsP+ODTKqFY82c99G359Mmj0mItE6V/+ukn3L59Wz2aNX3Zl+vnHF1Yqtr40VAVYW19G2eCrqBhvQooor2OiytGpZc5KaPzg3AhKU0pl52m6spuT93xcfPw2yTdZd98lV52dWV7zrmrOLWgf/ptfjuJKI31c98TLVt+jUXB8cpjAOJw5b//enRbPemhSlDfIy1bjsUP/hHqJcmIP/s7Zsjjkfsf9QfWRyQrc2kev+emYFlkzgUjKfsRERHmtTRspY4Y2HY//kpsgRHvnsaqLecRr4bcxC1bsD48CTbJx7FlRQgq1nodzsolwuoZZd5eKTNvX16EOX9VgVetkkD+11Gt+Wls23BC9/+lQeq15brXfTIWy9CmZ0i5ew+pD3bBr+NATLvdAK3a9MA7XesAMfG4Z5WMmycPYl/7t+BzYw2WNO2FLm45NydJAoS832rXro1FixapRx+zs7NDSEiIes68JcVF41a8HUq5V0T98uVRx6c3hn8xAl5u2f0dmoYH0beQYFcSNWqVgUtJd7T+cBi+GN3HbIY26UkI5PAmyohBIo+QNfJlyIwlrc6kDCfIYrzwinPJsEq8jrte87Btx1f4qI7T43HKSzqj1Lzv4RvZA5MCFmGK899YcuCGMmb5sZuIqDAcCwNWw6/bOfgtCza7IU8S9mR/A1nRJjuGeWi1dijSfCC+Lb8Vyx90x5dt9uC/h2JfYB6CPUp7D8IUtw0Y2b4z+q6qjL6DvFBRfbkeONTDm5854/KEbvDqvQFRZVzhkKZFUvH26O9bBVZTu8Kr/e/Y/9BBuX7G4z7eXdFrR1UMGNwC7tpL2D1vFW5+7oki6//GzZEfoEORp7f4yjAYKdMlS5ZE9+7dlYnqT3udpHVbxt/ndIB+mK8hOva7gL2h6TNIrBNDsOd4F7xT1w53dv+KkZc6YNLGAOwK8MWAOz/9Yyz9ru/eRE1bXaXP3gv9Nm7G8lFxWPnlKpzoMFtX9nujxrp12BF+9cXfE0hC3I6pGB7eG9/2q4OS2sc9UDa3tho0h+WSrqA8un//8ehV6sVb4w0l/0+yFHJ2lf3skJJWFs3690ODNbtwtV0/tN/+N3bGqmHKNRnhP7yNFu3mIaipDCd6cjx8StE2WZZ5t9SHSHWojoZtXtMV6EZoWMYm/e/0G4rOMZPxfsuWaPPhCaSN7ouuZZ/We5gPrnUbwX3pYHRfWhBtfZuh2E/d0EqGUK2rqPydqjc3Yt73JfBpuxj878cSus+VRiilzbmKYHldhXvnzp1Kr8TEiRPh5eWlnNeTJV9lfwJLEHZpH44eOIlY+ypo37s3OjYpheQLx3H4QvaXy6Srh3Ew+Cbsq3vhk37voFHJZFw4dAqBF83rtYqOjmavBD2BqzZZgFddtUm6IxcvXqxsgmbObC7OQaeRJTBh7buoo32ojC+f1+drLJHFSx4pg7p9vVHCLz6LlYIao9ytdZj89nG4LPkCH7jEq0sjfok/Si5E12euMmQ++xtkJHsdlChRQhnyQVmTFjJp+ZRW7D59+jyxqZyxy75t5DJ8uq4Wpn9WCQ82jsMXmtFY0MEGp+YPxpBlN9Rrqdp9gwVNNqGfWv7KaMKw5+vRWOU9F75NHdLL5gZvzJveDlXTDmJ5l0WIHt8F+WZMfrH3xIT9usuKo+LonzC37WsZWo3SkHpsBrosr4eZM9qjUtp99X3wJpa0DsSwEVt1UTujLhj5Sxmc+tc15f5fdL+RVyW9TRUqVDDbsm9uyxobg/RSGfpdLmFCQkWXLl0wf/58pQdRfpNlatGiBRo1agR7e3v1CJkaV22iHCchRCpYliir8cI/vVlcvfRpCqKgQ+4o2u3atVOWhKWnk+VCx40bhwEDBiih4dtvv300f0KGWBiz7GtdmuODa4dwLDECwetc8VbDkukfsmk2ugr9Mmx7VI79sWO0xz8mzP5DESc4Zuo3euH3RPEu+Nf4pnD6ZRP2JD19cu2LzGHpUtr4G1F16NCBZT8XkCBx7Ngx5fTWrVsNmttE5kf2/WCIoIxyXY+E/C36Jxn6Ye5zIzL3SChDm6b9G/OKjsXUfrXgHP4nfAdeQNkJ1RAxJuIZPRLpPQ5vFblr8T0SYuzYscq4cRnu8TRS4dOTVsOnyW3Xe9Z1hPTmyGZ/xpOGlOBf8MXuONyy76Irr7VQSPsAcbsno9cad4z6shd8HE5j44zJ+Ku+L753/BVdntUjoV5WNu1weo/E9BGos3bMi70n5teF76LGSJoxAgvfmPlEr4Tt7fWY1mcPUiaNw7hq17D5+68xzWYEVn4ajYXq8X/XBW5s+Baf7mqFuf9+gGXd0983xuqREIMGDVLKvZubm1mWr+y8Xk49B5Fd15PL5bv8Wd+zGb/rM19v9erVyu+3335b+UyrWrWqcp4sy5dffsm6Vg542XqyMevYWeHQJgsgr1/GD3tDyOo2EiKkxdbcZQ4SyrHbB7Ay0+ZMo2odwcynhIHcGCTk/09weNPzyZh6ea9IS7ZUUgoUKIDPP/9cvdQ4ZEje3O5LcWPyLIx9I59yzFoThXP//R7j5h3FTRR/YuMyffl7oSDhOxODix56sfeEBInF7+CN879i1HB7dF75KVrYp4+Nl8nWcaFL1Y0Bn79hYDfHrY/eV8YMErLaloODA8u+mdAHiZcVGxuLgwcPKsv8du3aFa+/bl4TienFSJAg85Hrg8Ty5cuVlgcZF1m4cGH1KBniVYIEK6GWz5LCoCnp50O4uLjgo48+wtGj6TvCsuxbLin7MlF3yJAh6hEypZcNEleuXMGwYcN0gdUTPXv2VBZKIMskcyQaNmxoUas/5nZSR+zcubMylNcUcnwg+dy5c1GuXDllshURGU5aZOnpZMy1zIuQECHzJCRwybwJWV3E2fnxQpxkeaTsJyQ8bx91MleyFKzMkZClYKUh8bPPPkOhQoXUS02jSpN3MfzLoXi3STX1SLqnHX+WQoVKoNm7Q/Hl+H5oV6WievTl7stSFCxYUNmZnMyDNLRIz7ssl/20vVtyWo4GCXmCMsnql19+UYKEqZ4kEeU+MoxJVrWS/SFq1aqlrMwkv/WioqLYakZkIrKSmgQIqQfIj5yXSbpS6cntQ5rO7luOmWa2mVx2kcYZGxvT7YxOT5KgPnLkSNSpU8dkDfY5OrRJ1o+WH/1a0vrTZBgObcrbpMVdxopzaNNj0voi+wzIDuAy1jqr/VFY9i0fy755eZGhTTKMSYYWym/9sq8ZJSUl4fTp04/en8YmvQUdfEoi9mQ0nKpUQFHcwvmDQQhOqqw7/hoi/bchOK0CmjeuhVKO1oA2AZGnj2PX3hCkOleFh2dDuBW1B5JjcHLXPtws7w3viok4tPIwrFv4oIbtZew+bguPllncF5Jw6/xRBOy7h1rdPFEaKXBwzIfkq4ex72ZpNKjjAkeZw5wcm+ExueLhrRQULlpAV2GLR9j+3Vjsf0R5LqYg70X2SJgHCejy/pL3mjTa608bexpBjvVI6HsjZFykkADBXgnjk9YfGeJhLmw1wVj9obprboafrqvCkKILTM8jO+zO8PkZ6+8a9kFmY3MNQVN6YdS+OPWI5QgPD1c2XqPHihUrhm+++QaffPLJMzdZTExM32jNHGX5Xug5A/POxr/ARoF5Q2hoqLJiE1kOqcToKzSZQ4SQXgnT90g4opRzHLYvXoOjtwqgUoOaKK3/+tGUhkeLN1As6Sw2/ec/2Hg0DsWq10Hj6q54vW59uDnewqF1m3EqoQhq1KsEdTkFFKnXHLUdIhCw8RBi9VlLUwJ1G1WH063DWD5/PlbtuApbtzdQ3y0/NLrbOGivYet/FmP9hcKoV9sJsfs3Yvbshdh5xQZuDWqoj8kGtgmn8Ndvq3H0hi3K1aqE+mXLKndvbG3atOHCOWZE6tVSx5b3nDTUSw+gKXolcixIZHyCwpRPMi+rUqUKjhwxXetFVrRxBVF30hqll0X/s6ZbOdi8wAdUUqGOGOU/2Kgrx5jayZMnubpJJjKE6XkVTHd3dwQHB6vnzJM2rga6z9+mvg+2YduUgjg3ctUz933ISy5duqTMsSPLId/5+gbEp3FyclIm7ZpOPMJCLuFsZAguhIQjwb4wXiuoJomCzihm/wCRoRdxWBeGYk6dxtUEOxQrUQIFnWyRdisSR8POYc3sqfh5yW48kNtYOcOtYkE8vBODc9EZtnO0L4aijnZwdPXAu/37o1vLSnDS5NPdl+w8n4Z7UZE4FR2HAiWKwsmqIMo16YBBgz6BV+VC0NgXUR/TPUSev4aoxBjcjU9W7tZUpD5hZZXjU2vpBWRurBemarDPkRKR1RMU7JUwPpl0KmT3X3Mmu8Qm7P0CnaZOx/SePvAZtwGHz/yOGXJaWmpH/YH1EclP9EjY3AnAohGddJf3xMdz5mB6p1m64xqkhO/Aqqk91Vbe/hi16Zrua0N19xyC5vXXHR+HqbsjkaD7UJQlZtc+uv7j4+ZA5gEEBQUpIZwMI0EjLCxMWTHOMljBvlJDNLEJRsi1e4g/m3X5n95pIqZOkfI6Bf85pH8P6K7TcyaWRTzUvZeSn7htp+lrERCeqLy/fEb9Cj+1rHeaHoBzSeZbKZCyv27dOlSuXFk9QrmFtGpnnM9kSjb57PDK2y1q43D1fAw0ZSvrQoCrelAvEWF7/8akSZPUnylYtS+LUQJJYdi1bEmG681C8F3zaf2X4CcTrRkkzEPmxnphqgb7HCkRWT1BwV4J05Al9zZv3qyeMz1NwTgc/bJreuVH+fkZf99Jb4FNPOaE6nN3IHCUFjvHxcLlh83YsWMT1na+iHk/B+KSfsxH2jXsmb8Auzxm4X8BCzCtfBiOJkpxvouzmxdhfcWpWBcQgMAlXrD1XQP/WFtorO/j6I4I2H+8ANvmlcOtiQvxv6vh2DNvLvbW/j79+iubwO47P/wvwjw+wGX5yxo1ajxz+A49nQytWLNmjXrOvEkAuB0cgH0pdfCGzWbMG5N1+bdKvI67XvOwPWAoml9ejFXVp2NNwEYs//gK/GYHIjx8JaZ+dh5pY3XlPmA1fn59CybPCcRF6cS7moT8fZYgcPN3+Ch8LhYcMd9GHemlkSUNWfZzH5msK6s3yVAZ0yiISs298K53c5Sv+Brs4m8gPE79zI+LQWxSPpRyr4j65cvDuUY1uDomIzY6GnHxD2FVtBTqlnPDm/1GYciADnCWTgNtIm4cP4Wr8YVQ+Y0yeDTwNikWt+LtHt1XHZ/eGP7FCHi5PV4EIjHxDu5F30KCXUnUqFUGLiXd0frDYfhidJ/Hw63MQN26ddVTZGpPa6wXpmiwz/Yg8awnKNgrYXytW7fG0qVLzaZl9p9DmwajU+H0jbJQvz7qFwcehIXgUNwm+PVph5Yt26PLV3uReOgMTkSlb1SH+HM4vbsaWjeviAJpBVG2ZQe0dZCUUQS1+0zAAIfTCF47BcM+8MOB9FtAm5ofdbt6o46dFnbub6JbyxAEHz+CM8FXcdT3Q3T29kaL7jOxMfE8gi/fVW9lOtIiK0ua9ujRQz1ChjK3sp+ZpuAprOzfWgnUUs47T01FZd+uaHA79Bnlvyaa1SgGK60dipUuC4elg/H+1PXYl9YFviM9UTjsNA54+KBbvWK6wF0IVdq+iXYHQhByLVn3/mqKlq75oM3/GlxKme+ESSn7sqlghw4d1COU20ivRH3d571phm3GI+zsHRRr6Ik6jjdxNOg4burbjrTXcSDwOGLtq6B9797oULcgYkOCsT/kKi4fPYwLCUXRoHMH1H3tIcKOnEaM/nZp0Th3PlrplaicT00A2mgcPXDy0X11bFIKyReO4/CF++mXq6LO7MbB4Juwr+6FT/q9g0Ylk3Hh0ClcN5MOiXfffVdZipm9EebhaY31whQN9tm+apM8CfmRJ/o0L3IdeuxVVm3SkxUypHXb1KufyATT5V2+QdCoPzCjSUH1qDzHlAw7+XrA+cg0dFleDzNntIdbqhoedGRoh7LD7u+1ED1oN/LN/xK9SumCgbKbcDBKLO4E+0lfYGuDfvB0KoA6dSKxrM9VVF3dA8V/Ga7sGix/19bqHDYO+xJbfd5H1bknHt2POZHVamTVGq5Y82rM9XVMfy+k71Y9sGLGL+g0pB6b8ezyn2GHaetbwdgYdBUI34DvdlRF347X4HemA+ZNb6fcNv02Z+HS9wb8Irr/YxftjO9DcyH/Z7J8LzeiMy8SeLOzypCSkgLZ7Xr+/PnqETI3MqSpWbNmXKnJTEhj/fNWZ3qR62SnbI2Xz+uN0GOvhPHJF0B8fLyybKb5s0K+ctXhFbIdq47E6s7G4camMeg0ZvvjoU1OlVGt+Wls230R93SXh+/YiC0ytEmbgLjL+VG0WmO89ZY7bE7sx2HEIS4xLX1o05fTMHX3ddw6F4DN55vDs3G99PvZcAJRusCWem05pneajGWRpu1Tloqv7FI5cOBA9Qi9rE6dOiEiIsJCyr54gfKvY20dixC/XujwezJqvdkNHXu8hQ6J96BxqQqPA/7qbe/i7JYN2OxRHdXL2Km3NG/S4CFlv3fv3uoRyq1kiFPRokXxwQcfqEfInHh4eCghgszHs3oj9IzdK5GtQeJFnqAw9pMkKBtzDR48WFl7Xyqp5i6laBv0960Cq6ld4ePdFb12VMWAwS1QQV9ircqgWf9+8DwwFG9598OYQ/ZQprhZV9Idd8axz9+Et/dI+N6sjLoOVxEWfT99aNPIt+F9eiK6jI9DZd8P0aGoC5r1G4rOMZPxfsuWaPPhCaSN7ou3XEwXJGRivGyyNnToUI4PzwZS9sePH4/JkydbRNkXzy3/OqmpxfDG20PRN/kHfNDSEy2670Oyrux2avUhxv5aSb3t2xh8uS2+GNgCFS2gQVHK/rRp0zBmzBiW/TzC1tYWrq6u3O/FzMiQs8aNGys9UOyNMA8v2lgvjNlgn21DmwztSjF214sly46hTXoHDhzArFmz4Ovr+2hFJ0unrFIT/Au++rIoOq/8FC3s1fkWFkjGhsv+CLJLJedGZK/cWPZzEwkRskNrr169WKk0U9k9tCmj1NRUpTfKVBvV0WMSImShg3z58ilBj8yDodMCDL3+y8q2HokX7Y3QY6+EaUhXpbR0yxe2uS8J+yzWmihcXDEKPZ+YpNoNzSw4RMj/h4SISpUqMUTkgNxS9nMjfYiQncoZIvImafWWJWE5zMm05HPyvffeY4gwM4b0RugZq1ciW3okXrZ3gb0SLyY7eyT0pHVWJp9+++23ygcHmZa+IiXvB4aInKXvmZBQwbJvejLcTIbyseybv5zskdB7+PAhbt26hW3btuHy5cvqUTIGWY5XVtKSOgdXaDIvL9u7YIxeiWwJEq/yQI3xJC1dTgQJwS9w8yCTgGX8PkOd8bDsmweWfctijCAhkpOTlb+za9cuJfhTzpOeIJmrwvkQ5udVGt2N0WD/ykHiVR8keyWeL6eChJD19b/77jvltEzG5thx45HXfs6cOcqKQjIZmK+9cbHsmw7LvmUyVpAQaWlpSqv4+fPnsXz5cvUoZTcJ8DKpWvaJYIgwT6/a4J7TDfavHCSy4wHm9JO0dDkZJPRkgtvMmTMxfPhw5ctCVrqhnCMtsbKCloRoWZ6Ur7fpsOwbF8u+5TJmkNCT3omkpCQcPXoUgYGB6lF6VTKhWkKEzMnThzYyP9nR2J7TDfavFCSy68GxV+LZjBEkRMZWwj59+nCoQQ6QITV+fn6Ii4tTKq5ubm7qJWRKMkdl0aJFLPs5SMq+BLaCBQuib9++LPsWyBRBQkhFV/5uZGQkjhw5oqzuRC9PFjSoVq2aUrews7OM/WXyquxqaM/JBvtXChLZ+cBy8klaOmMFCT35kJ43b55ympWq7CGVKNmt99SpU+jXrx+8vb3VS8icyHjsxYsXK6dZ9rNHxrLPCe6WzVRBQk8mYkvL+aVLl5T3KidjG0Z2qW7UqJHyGnJFJvOXnY3sOdlg/9JBIrsfFHslns7YQUIvc6VKlubjMATD6NdFl0qUrI/PoTOWgYHi1clrKJ9bLPu5h6mDhJ4MdZJdsdlD8WL0PRASIOSHcyEsQ3Y3sOdUg/1LB4mceEA59SQtnamChF7GCoGEvdatW3PX2WeQIWJ79+7Fpk2blPMMYZZLyv7atWsRFhbGsv8CWPZzN3MJEnoSKOzt7XHt2jVcvHiRcygy0M+B0K/EJPUIBgjLkRON6znVYP/SQULGE8sDys4HI5ttyMYZEiboMVMHCT0ZR75582Zs374d5cqVU9aclm5SVhLSd6SWVjGpeK5bt07ZFVTKsVSiyPJlLvvy2ccKcrqsyn6HDh04ByIXMrcgoZeSkqI8LplLcfXqVZw+fTrP9lLI93L58uXx2muvPQpaZHmksi91YvmuyU45UXd/pTkSZBzmEiT0MlccGjZsqHx4yU7leam19mmvA8NV7pX5/1wqVrJ0Yl4r+9LzcO7cOZb9PMZcg0RG+spzfHy8Eipkjk5uDxXy3nNxcUGpUqWQmpqqDPviKkxkLAwSFsDcgkRGGStWQUFBSmXK09MT7u7uyrJyua1SIV9KsgxhcHAwDh48qLS+1qxZM89VJClvlX15rrKiFct+3mYJQSIjCRUyqVjKb3R0tPKzdetW9VLLJb2h0uNXvHhxpedBlsiV4CABgsjYGCQsgDkHicykoh0aGqpUsOQxS0ulVKqqV6+OsmXLWtTGUzKcJTw8XBkfr688yfOpU6dOrg1K9PLyUtnnkL28ydKCREYy/EmGPslypzKEOiYmBrdu3UJUVJTZ91jIaksSGuRHQrsEBlnBisOWyBwwSFgASwoSmUnlSiokJ0+exNmzZ5WKllRIpAu2QoUKykQw2VHTlOOppdKUmJioPDZpsZIvFnm9paWnRo0aSqVJKk/SdczgQC9KHyxkqUpLK/tS3qtUqaI8TpZ90rPkIJGZ9FbId6sECxkOJHv73Lx5EwkJCcpp+d4y9vKyMjlawoE0Osj7TUJDgQIFlNAgIYjBgcwRg4QFsOQgkRWpYMXGxiotQtISJGNZpcVTyBeVKFmyJEqUKKGcdnZ2RrFixZTTGcmxjEMq9MMvMtP/LSGVJvn7QlahunHjxqOKklTo5G9J6zErTpQT9MH63r17LPtkcXJTkMiKvtdCgoX+PSChQs5LL4ZcLqQn48GDB8ppPQkmMsxRT1ZNkvdTZtKroN8ETjZnzJcvn/K35JgEBnl95YehgSwFg4QFyG1B4mkyVob0lS2hbynNTK4rLal6+h6EzBwdHZWWVT2pPInMlTEiU3la2ZfeDGkhzexVyz7DAr2M3B4knkeChPzol1HVBwshcxQyVv4lkEi40NMvwSrH5TWUAEGUGzBIWIC8EiSIiMh85fUgQUT/xPXBiIiIiIjIYM8OEil/wddNo7SIP/op/SF67YvE4w49IuPTjycnIiIisgQpB3rALWOdWlMaJT5fhZ3xaeo1spAWgqAJ3uh14J/DXIGjWP1eIVRfuhTf5WuCHlleJ2c9t0ci7VpjvBMUr04Aeoj4NQ8R7vkT5t99xpMmIiIiIqInXLOfjhUP0yfVa+O/x4jADzFo8z8Xy3gk7TQCv0t6SgN+Xbz9512EvP8+Rj/YhxUejupx4zFwaJMNHOt1RSfrXdgZmoi0iEX44T1HNVW1hffyUMTr0tHKHsXg3fZ1lJakNWwiRjW3Tb9O6b4YdPqu7n7u4frej/Fh6fREZtvnB/wkx69PxIe6++n7mbvuthmvT0RERESUu6Rdfx/vNH5Nd+rJurHGexwmnrmGw76D8O+k/firUSf0WDIDfWw747139HVvDar/FZ5+R0od+v8w8XqKrn7+E8YqdW9dPfxf/9LdZoB6/Pn19tILQg0adWRgkNA9yR2L8HeqJ7wqR2LNyNHw89yPaF2qSg1vjAq9x2NMqAM0dvewp8z32Jx6FhtL/oofG2/BdW0izn61C78OX4WQkNH4uNl1RPxxDanacOx3n4mhuuNnUuVvXEdQrb9wRnf80L+24tfp/ghR/jYRERERkeUqk/Rv9LBVw4JTL4zTVdtj4u4j7doMjPcBHLffgVabgGsDt2PK4K2w+3w2ptvL6KC/saLlPWhSLuF0jxBd/fkIVr1bUL3XDFIvYe2YL+H35h7c1l0nsPpubE/RKMefX2+/juv93GHIHunPDRJWZSQFOanpxREuHxVH2V1D8H9W23BwVwxOD6yFErrLrMt+jYUpx7Hz5A1oUu1RuV0D1LKyQqkK5eE8wweufX7BfxK+wgq/nigaEoStbXriCx8X3QMog/of9UWfrQexPVyWSmuKd96qikJwhotb+lrqRERERESW7smhTRuwwPO/mL/oICLO7MGWpEX4tXphpb5dpuchpPgfxOrI4uot9Zqia1OpPz/F3SMIWt4K73R5A4VRCu69BuADG61y/Pn1dvU+DPDcmzw5R0L3c/0PLGtSSrmhNuZtfHbm/uPLtBcQ8o5T+g0VBeDS4yCuha/AT2/EwTVcl8IaDsFvIelrpBMRERER5UmOPnizaxWk3LgDmSYd4+OHgFR9nVp+5mKiy83062aD59fbDfcS2UPl1ACN3t2Ov/wCEZKWhoTTQ9HHthsGhTqoVxAXsWNkIdh/ZY2mwyeh78j++CTmDlLdGqDN1v9isn8E0nANhxf5YXGbhmhVljs5EhEREVEekOCPDWsuoFSzmnCr2gx9di1T68aRCJ3zBmxbLcQJZW2jO4i5++Ru6kAhFCplg5iL13WX6q6/bg22KYfrpdfP1x5PP75sHpbI0Cb98WfW2w338kHCqgG6TJuFMdfeRg1razhVD0X4f6ZgmnuiegVREV7DZ2F6Yh+8YS3dKPtxSXedQb1/w+97SsPlwzKw1pRF49DhmDWzG6qmbxZJ9FzcoI+IiIgszZNzJD7FuFILsezdyrAtMwqTdpZV68alUXXFmxj/czfUsmuMlhPisbNtO3ivylhtLwePTz9A+58aoYimDbodq4Qqcti6gq5+Pgl9NzTTHa+HFtvLZzj+vHq74biztQWQwsaKMxERmRJ3tiayNPdwfWsP9HyzFt67OQWfFXr5/oOnyf57JDICbkhHRERElIlsYDe1evo2ChkWSeqfAyFCMEgQEREREeUGVtXRaGwIrusnVKuLJBmypKshGCSIiIiIiMhgDBJERERERGQwBgkiIiIiIjIYgwQRERERERmMQYJyJY0mBQl7v4DPjIOIsn7xDUpsbK4haEovjNoXpx55NkOvT0RERJRbMEhQrqTV2sCx6WT4j2qIkqmp6lEiIiIiyi4MEmSRnrdBX8Yeibt312OGzzj8OHsEevr4wKfnTCyLeKi7VhpSItZj4YhO8PHpiY9/O4mIR5njyR6NjD0PNppInFrQX9nLwnP4UgREpt/IWhOFiytGpf8Nub/5QbiQxO3aiYiIKHdikKBcweZOABb0n4X14UexQvf771uZi/ZNRFQYjoUBq+HX7Rz8lgUjxuoCdv7oh90es7B54yA0X/cLFh5LVq//NMm4vXsOxoZ2gO+mHdg6tByswiQsJOPO7l8x8lIHTNoYgF0Bvhhw5yd8t/M6rG+vh2/XX7Dh1Grl9/rbmvS7IiIiIrJgDBJkkTLubG1jFY498xfgUFdPuG5egE2tOsGrmFa9VK8mPJuUg6O2AIq7FFOO2N6PwtXQCmhYrzxs7Vvgk7/n4ct6dsplTxePq2euoFSbxnjDTgv78s3g2Ug9fvYC4rZNxsAO3vD0/gjjt9zAxRNhiCjeHgNGROO3zc54a1g0/PyCEKnJqa1hiIiIiIyDQYIs3/n1mLOlMd5xCMT3y6uhW9tKcNJmDhI5Q6vNDydn+/QzaTaoOHoZtvn7K0OvlB9ljoY1itdsiCab/gf/17rig73LsPbC83o+iIiIiMwbgwRZvkodMbDtfvyV2AIj3j2NVVvOI17z/OFDD/OXhKv7JRw8cgUPHx7BqqFd8cmGaKSpl+cv4ASHwIM4fDMVSVf2YFeQHHWCa9XyiNzqjz13tEgO24b1fydlOg7YJp/Gtim90H/LDWg1ybh58iD2tX8LPjfWYEnTXuji9ryeDyIiIiLzxiBBFi8lrSya9e+HBmt24Wq7fmi//W/sjH1+kEjVVIHXsL5ofmAo2rUbjUWlh2CkVwn1TWGDfNU6YUiT3ZjZ3QddlqahvIcMR7JD4eaf4UePYMzu1gptZoUhrZxMts543Act2n+NZc5DMNqrNOxubcW870vg03Yx+N+PJdC3byOU0qYof4WIiIjIUmm0OuppMlMajea5qxTlNTJHgq8JEZHxyOcuqwxElBF7JIiIiIiIyGAMEkREREREZDAGCSIiIiIiMhiDBJm127dv49tvv1XPPZZ5fsT169ezvB4RERER5QwGCTJrRYoUQXx8PNavX68eydqiRYtQq1Yt9RwRERER5TQGCTJ7ffv2xbJly3D//n31yJM7W584cQIRERFPHCMiIiKinMUgQWbPzc0NrVq1wp9//qkeedK8efPQp08f5M+fXz1CRERERDmNQYIsQteuXbF9+3ZlLkRGMuTJxcUFHh4e6hEiIiIiMgYGCbIIMleiV69eylwIPRnqJEOeevTooR4hIiIiImNhkCCLIXMgZC6EzIkQMtRJhjzJ0CciIiIiMi4GCbIYMgdC5kLInAghQ51kyBMRERERGR+DBFkUmQshcyKEDHWSIU9EREREZHwarY56msyURqP5xwZsudmFCxeU34mJibh69apyWsh5uUx+nzlzBvXq1VMvyVrJkiVRokQJ9Rzg7OyMYsWKKacljHCVJyKiFyfDS1llIKKMGCQsQG4LEjJJWuY6hIeH4969e8qcB9l07uDBg8rlDRs2hJOTk3I64yZzBQoUQNmyZZXTSUlJsLe3V04/TWxsLGJiYtRzwKVLl5CQkKCc1r+e7u7uSqiQeRYODg7KeQkb7OkgInoSgwQRZcYgYQEsOUjcvn1bCQzSsyCB4dSpU7hx44byhaTvMZDKuzDFpGlZTlZ6OEJDQx/1eGR8jPKYypUrpwSY0qVLq7ciIsp7GCSIKDMGCQtgSUFCgsO5c+cQEhKCI0eOKBV0+fKRngVXV1elQm4Jrf36XhN5/NKTERQUpBxv1KgRatasiSpVqjBYEFGewiBBRJkxSFgAcw8S0qq/Z88eBAcHK8OTOnfunCsr2xlDkqwYJYFI5mnUr1//iSFYRES5EYMEEWXGIGEBzDFISHjYvHnzowq1p6enMkQpL1Wo5TU4evQo9u7di7CwMGVPC4YKIsqtGCSIKDMGCQtgLkFCWuSl0rxp0yblvISHZs2acYiPjrw2x44dw8qVK5XTXbp0QevWrTlpm4hyDQYJIsqMQcICmDpIyATkwMBALF26VBm25OXlxVb3Z8jYW1OjRg107NiRrxcRWTwGCSLKjEHCApgqSEiAWLFihbKKkWz+1rRpU7awG0AmbMskbemlELIrt2yoR0RkiRgkiCgzBgkLYOwgIS3qixYtehQg5MuDm7e9mgMHDmDx4sXK6eHDh5tkqVsiolfBIEFEmTFIWABjBQlpQf/zzz+VITkMEDlDAsWsWbOUIU8DBw5kDw8RWQwGCSLKzEr9TXmcbBbXt29fZefn2bNnK+P6GSKynwxt8vPzU+ZMdO/eHevXr1cvISIiIrIs7JGwADnZIyG9EAsWLFDG8o8ZM4aTgo1IhpD9/PPPyunRo0ezd4KIzBp7JIgoM/ZI5GFSkf3mm2+U0/pWcjIeWTZ36tSpqFOnDgYNGqT0ChERERFZCgaJPEpCxMiRI5WVmIYMGcJhTCbUo0cPDB06FNOmTVPmUBARERFZAgaJPEhaviVESOVV5kKQ6cncCV9fX2UiNsMEERERWQIGiTxGeiKk5VtCBPc0MC8y1IlhgoiIiCwFg0Qecvv27Uc9EQwR5iljmJANAYmIiIjMFYNEHvLdd9+hS5cuDBFmTsKEhL0JEyYoq2oRERERmSMGiTwiICBA+S0Te8n8Sdhr1KiRskEgERERkTlikMgD9HtFyIZzZDn69eun7DLOIU5ERERkjhgk8gDZzK5Vq1Zwc3NTj5AlkCV5e/XqhY0bN6pHiIiIiMwHg0QesGnTJrRo0UI9R5ZEdpJdt24d50oQERGR2WGQyOVkuVdhrN4IK6sEXFnxsVIBfvwzDlN3RyLByrDiZq2JwoUlUzHvQho0mhQk7P0CPjP24rLy+yCirK1hc/sAln+xBsEajXp5+vHcQnolOnfuzF2viYiIyOwwSORyZ8+eRb169dRzxlPws4XYsmMH/P23Ydu8crg1cSV23taol74YK0Ti+KoopOluptXawLHpZPiPaorXld8NUTI1Fbh1FP8NSdNdW3+5ejwXqVmzJsLCwtRzREREROaBQSKXu3fvHkqUKKGeM527Pg1Qr7BG6WW4uGIUeio9FT3x8fwgXEiyhs2dACwa0Sm9B6PnTCyLuIvz//0Jv8adwsr+/8ac4HMImtf/US9Hp+kBuHT/CFZ8sxJxcb9iZJ+l2LtT3yORioRjP2CU2hvy4+wRuusfwN276zHD52esv2udoYfjoHo8/XrK41L+/kPddZKzvB9j93iULVuWE66JiIjI7DBIUI6I+/UTtG3ZUlcBb43WA1Yg0vo+4h8k4c5uXaX/UgdM2hiAXQG+GHDnJ3y38zzObV2MVdWnY03ARiz/+Ar8Zh+G9p0h+KxgDXSf/w2635iNKXfewxzd7QI3f4ePwufqwkUl9JjQHQULfgbfxT3xhm3637a/uQnzvoxFhfmbEbjpA1SPu4ZEq+f1htxERIXhWBiwGn7dzsFvWTBu3dr6EvdDRERElDcwSFCOyDi0aesf/dBsz3KsCr2Bq2cvIG7bZAzs4A1P748wfssNXDwRgbTSZeGwdDDen7oe+9K6wHdkS1R+VDrtUbL9WMx44x7CAhdj3piJ+PVMPvWyzFLxICwEO6t7o3VlBzy0c0fL9nXhkKZVL3+amvBsUg6O2gIo7lJMd/5l74eIiIgob2CQoBxmBfvyzeDZKB637iUBaTaoOHoZtvn7K8vSKj+jmsOt2TdY+Zcv/lXTBvnC/8TIgXOwJka9CyQhatNUjDqehMSHLqgzfjamtHyoXkZEREREpsAgkcs5Ozvj0qVL6jlTSEPSlT3YFVQNdV4vA9eq5RG51R977gC2yaexbUov9N9yBif9eqHD78mo9WY3dOzxFjok3kLcfSmeCbiTcBvR4bdR/PU68OnYDG4x/rr7S793kT8lHvEP9D0F1shXrjq8QgKw7Vyi7m+EYsemo8qQJG2+gijmcAx7TsXCKukc9geeV2+Tlaffj7GFhoZyDxAiIiIyOwwSuVzlypURFJSh1m0kGedItPnwBNJG98VbLvYo3Pwz/OgRjNndfNCi/ddY5jwEo71qoM7bQ9E3+Qd80NITLbrvQ7Lu+p3LlUe99+yw/fMJ+CO/F6qt6ofO3h9gyK6icGuSiguRt5Hq2hDdKq/C131+w+7bKcrfTireHgMmFcOl/u10f+N37H/ooBx/4FAPb37mjMsTusGr9wZElXF95lClp92Pse3duxfu7u7qOSIiIiLzoNHqqKfJTGk0GmUI0MsaO3YsunTpAg8PD/VI3mGjicSx+V9hrPUwLP20BgqmyVKxhsuu+zHU7du3MWjQIPj5+Sl7ShARmYqsmMcqAxFlxB6JPEBCxKsEEUsjm9StndpT+dLzbPkBxt7qjImdqxpc+c+u+3kVa9asQatWrRgiiIiIyOywR8ICvGqPhJBW7QEDBqBWrVrqETJ30hvRvXt3rFy5EkWKFFGPEhGZBnskiCgz9kjkERIipk2bhvv376tHyNzNmTMHw4cPZ4ggIiIis8QgkUdIT0SjRo2wYMEC9QiZs/Xr1yM+Ph4dO3ZUjxARERGZFwaJPKRfv36IjIzEwoUL1SNkjg4cOIBly5Zh8ODB6hEiIiIi88MgkYfIhN3Ro0dj+/btDBNmSkLErFmz4Ovri9KlS6tHiYiIiMwPg0QeI+PtpZLKMGF+9CFizJgxDBFERERk9hgk8iCppM6ePRvnz5/HTz/9xAnYZmDFihWPeiK4shYRERFZAgaJPEp6JiZMmKCcHjlyJK5fv66cJuOSJV6//fZbBAcHK+GOPRFERERkKRgk8jCZMzFkyBBlr4LevXsrKwWR8chQJtnfw83NTQl1XOaViIiILAk3pLMA2bEh3fNIj8TPP/+MuLg4Ze8CqdxSzpDXetGiRYiIiOBrTUQWgxvSEVFmDBIWwBhBQi8gIEDZa6JGjRr46KOPONQmG8kwpjVr1mDp0qVKgJAvZekVIiKyBAwSRJQZhzbRE7y9veHn56dM+JW5E7KyE+dPvBoJEPI6yhAysXLlSmWjOYYIIiIismTskbAAxuyRyEhWc5K/K5ujSQ+FVH65otCLu3DhAgIDA5UeiPfffx9du3blPAgisljskSCizBgkLICpgoSeBIqgoCClJV20b98eTZs2ZaU4C/JanThxAmvXrkVYWBh69erF14qIcgUGCSLKjEHCApg6SGQkleTDhw8rrewNGzZEly5dULly5TxdUdaHB1mFad26dejcuTM8PDyUHyKi3IJBgogyY5CwAOYUJPQyV54lVLRp0wZVqlTJExO0Zd7DsWPHcPLkySeef+3atdn7QES5EoMEEWXGIGEBzDFIZCShQnbJlp6KI0eOKJXsRo0aoWbNmrkmWMhzOnfuHEJCQp54jtLrkNd7ZIgob2CQIKLMGCQsgLkHicxklaezZ88qrfXyWyrdMllbJmq7urqiePHiZh0u5PHGxsYiNDQUly5dUuaHCP1zcHd3594PRJTnMEgQUWYMEhbA0oJEZlIxDw8Px9WrV5XhULIRm1TSZThQqVKlUKFCBRQoUABly5aFg4ODUUKGPizIT0xMDKKjoxEVFaW8zq+99poSGiQslCtXTnlc3E+DiPI6BgkiyoxBwgJYepB4GlkeNXNFXh8yhLT8u7i4KKfFyyw9Kz0KCQkJyun4+HgcPHhQOa2/b0dHxyeCjBzj/g5ERP/EIEFEmTFIWIDcGiSeR4ZIJSYmKqflt/RoGEqGUkkvhx6HJBERvRwGCSLKjEHCAuTVIEFEROaDQYKIMrNSfxMREREREb0wBgkiIiIiIjIYgwQRERERERmMQYKIiIiIiAzGIEFERERERAZjkCAiIiIiIoMxSBARERERkcEYJIiIiIiIyGAMEkREREREZDAGCSIiIiIiMhiDBBERERERGYxBgoiIiIiIDMYgQUREREREBtNoddTTZKY0Go16ioiIyHRYZSCijBgkiIiIiIjIYBzaREREREREBmOQICIiIiIigzFIEBERERGRwRgkiIiIiIjIQMD/A4/lyyqjG8sgAAAAAElFTkSuQmCC;" vertex="1" parent="1">
          <mxGeometry x="540" y="-50" width="786" height="287" as="geometry" />
        </mxCell>
        <mxCell id="90qTcsNyrZuAhWfa71IT-90" value="" style="shape=image;verticalLabelPosition=bottom;labelBackgroundColor=default;verticalAlign=top;aspect=fixed;imageAspect=0;image=data:image/png,iVBORw0KGgoAAAANSUhEUgAAAwsAAAEOCAYAAADG9IsgAAAAAXNSR0IArs4c6QAAAARnQU1BAACxjwv8YQUAAAAJcEhZcwAADsMAAA7DAcdvqGQAAERdSURBVHhe7d0JnE31/8fx98zYs2TNOmTfQsi+j4oilGglKf1b5ReitPxKaVHahWglyVK/CpE1hbJWdtn3LevUaJb//Zy5h2scxjDLnfF69jjNzLnXues55/s+3y0kzkcAAAAAkECo/ycAAAAAnIKwAAAAAMATYQEAAACAJ8ICAAAAAE+EBQAAAACeGA0pHQsJCfH/BgQnDi8AAKRvhIV0zMLCjBkz/H8BwSUiIoKwAABAOkczJAAAAACeCAsAAAAAPBEWMojMoWs1vWcXDVr+j/N3WNh+rRh5myIiXtCYnfF9G7JEzdWotm/q20Nhzt+BQkKidfSnAYp49RftCjv99mCR9dC3ejXibc/XAAAAgORFWMggouPCVb11QW3cdUixvr9D4/Zrx2+ZVKHCCi3deMi5T+y2FfqmYhVVzMfHDgAAgMRRaswg4uKyKH/hQtq5bJP2WM3A9kWasaGOmjbMp9Wrt+lwaJR2rFuvgi2vULnYrfpzXB91johQRERndRu+QOv+cb8Kh7Rr9ovq41+/PipMmaPWa/nn7v0j1PblWVobFRdfE9HnPY0c1PnE+s0HZmlU24FObUbmkKWa2NX3b56YofW+5xSz7GW17feDNuxfqK/8/yYi4gkN+nGn/s60TQt967oNHapXO9v6HuozZZuOhoYq08FZ+uixtr51nXXbm79qj+9Zhu0Yf6KGIbBW5JBT8/CE3nj3sfjn23mIxmz/13ef4zq67HXf64p/TLu97csLg7oWBQAAIK0RFjKMUGWvVF8dFqzS2sjj2rF8oVZ0aKEOLRqo4jer9GdclPZsitTlhXPo8I/vqfeG6/T85FmaM2uw7jv4ll6ZvUvOuDVT52p+0f/ojal91WbFy7712xS5aoIGLGqoflNma+6soXpk9/sasfgv51G1JUrZu3ymuVNf0V1b39c7q0up7g1rNfu3XdLB7fpzm+8+vv/tiDyg1b+uUJEml2rXiPf1U43X9PWsWZo7voGyvDJSk7b6Cu2+Av2+wxXV7pOZmj6sljR4kmbv3655w0doTt039b9ZI/TSVVHaEv/IZ7FP20v30qhZEzXyprUaOWapDhyYpmFP7Vfp4VM1d8odqnLY97pCGXoWAADgbAgLGUjsJaVVsewKbTtwWLs3HVeDWqV1SdFKqqc/tGrVMv3yfV01rBirLWvW6/D0gbr/uuZq2vwuPfn9bv3520bttY20aqsO5bMpOkt1Xdupim/9Vu2v9ZCGdsyqfXM+1rBej+ml5dmcx3PUbqgW4dkUl/0yFStiV+nzqOJVVbRz1nKt+nOF5lapoRqRW7VtzyatnlxGzUpHas3SLVoyuKvaNW+uJh2HaHLkOi3deFBxMdlVsXEtlc8ap+wFi6mQbf/IWq38sbKublxGl8TmVniDRqpt68/qCjVtUFI54y5RgWL5fX/H6J/NKzS7SnNdXT6H/s1SUS1a11SOWIb1BAAAOBvCQgYSE1NAZSNiNf2rsfruu2IqWSi7YkPDVfG6PzV93Az9eGVFlc8R40sVmVSm7xhNnzHDmafBlpl968YXzk+I1t9Hjvh+/q093z2h++dGKvLfgir76BC90OLf+Lt4yhRfw7FmrRav2qpMTW9Xl7Z/avH/puvX6JIKLxCjuMjm6v7ZzBOPPWPGxxrSJJf/359dXLbcyp/DemUAAAAgpREWMpC4uGwqVr2Wiowfr2lX1Fed4pkUG5tHJSuHa8uc1cpc93JdFptT4ZVKaee0GZp3UMp8fKWmv3Cb7p26x98M6TX1H/qTNu3/XXP+t1dXNSirnIcPSwUrqXmba9UwZJHmLDiiQ0f+ib+/h7jshRVe4XsNHxWrOmXLqGh4bi2bOEUrOtTRlYXKqnJj32N+95t2hYQoZttYvdx2oD6xZkhecpUPuP8xbZ05Wd9Hhirmkny+0LBM8/7Yr9CotZo/d53/H3gJU7aSVdRsxSxNXxvpe82rNXPKEpohAQAAJIKwkMGE5CuusjlyqEzTqiod868vQGRS3tKVVVfV1KxaYYXEZdGljR/QG3WX6t2bItSk9X81puAj6tvMd5ttoNU96llpjt65eYQWNntajzYqrpINrlWT7x9Wh+YRaj86Vpc3yKGd2/fpmPOIp3NGZmpW2veb1W5cqiLlKqq4KsQ3i4otoUb39lS7vQN1e4sWuqbrb4rt210dSsTE/+OEQosH3P9u9fs1q8JtfZ46uv6Bgtr49E1qdud32lU8/KzNiqIKtNZ9z+fXhh6tfK/5Q83/N4f/FgAAAJxJSJyP/3ekMyEhIU4zHiRNppCdWjb8GfUPe1Sj76mq3LE0a0oJNtoVhxcAANI3ahZwUcj018nhWpu2uEP9D7TTs+0qERQAAADOgpqFdIyaBQQzahYAAEj/qFkAAAAA4ImahXTMahYAAEhrFCWAjIuwkI7RDAkAkNZocghkbDRDAgAAAOCJsAAAAADAE2EBAAAAgCfCAgAAAABPhAUAAAAAnggLAAAAADwRFgAAAAB4IiwAAAAA8ERYAAAAAOCJsAAAAADAE2EBAAAAgCfCAgAAAABPhAUAAAAAnggLAAAAADwRFgAAAAB4IiwAAAAA8ERYAAAAAOCJsAAAAADAE2EBAAAAgCfCAgAAAABPhAUAAAAAnggLAAAAADwRFgAAAAB4IiwAAAAA8ERYAAAAAOCJsAAAAADAE2EBAAAAgCfCAgAAAABPhAUAAAAAnggLAAAAADwRFgAAAAB4IiwAAAAA8ERYAAAAAOCJsAAAAADAE2EBAAAAgCfCAgAAAABPhAUAAAAAnggLAAAAADwRFgAAAAB4IiwAAAAA8ERYAAAAAOCJsAAAAADAE2EBAAAAgCfCAgAAAABPhAUAAAAAnggLAAAAADwRFgAAAAB4IiwAAAAA8ERYAAAAAOCJsAAAAADAE2EBAAAAgCfCAgAAAABPhAUAAAAAnggLAAAAADwRFgAAAAB4IiwAAAAA8ERYAAAAAOCJsAAAAADAE2EBAAAAgCfCAgAAAABPhAUAAAAAnggLAAAAADwRFgAAAAB4IiwAAAAA8ERYAAAAAOCJsAAAAACkok2bNmn27NnOYr8Hs5A4H//vSGdCQkI0Y8YM/18AAKS+iIgIXUxFiejoaMXExDjnYPuZNWtWhYaevPZ65MgR56e9J3Z7QvbvwsLCnN/tZ44cOZzfTVRUlPPvbHv207aNjGXZsmW65557tHLlShUpUsRZt2vXLlWqVEkffPCBatSo4awLJoSFdIywAABIaxk1LFjB3c6zmTJlcgrvx44d0/Hjx7Vv3z7n9h07djg/Dx48qN9++835/UI1adLE+Zk7d27lzJlT2bNnd37mypXLCRb2+PZeZ86c+ZSAgvThyy+/VKdOndS8eXNncf3zzz+aP3++Zs2apUmTJql9+/b+W4IDYSEdIywAANJaRggLsbGx+vfff51CuL2Ww4cPO6HgwIEDzlXf5AoDF+Lyyy9XiRIlVKBAAeXJk0d58+bVJZdc4gQIkyVLFucngpOFyuLFi+uaa67RlVde6V97qqVLl2ratGnatm2bLr30Uv/atEdYSMcICwCAtJZew4LVHFg4sGZFe/bs0d69e7Vly5agCAZJYbURRYsWVcGCBZ0CpoUHq3WwGhEEj379+un777/XjTfe6F/jbeLEiU7tQ//+/f1r0h5hIR0jLAAA0lp6CQvWf8BqD7Jly+YEAwsI69evT3fhIDF25bpYsWIqVKiQU06wz4Zah7RXs2ZNVaxY0embcDarVq3S2rVrtWjRIv+atEdYSMcICwCAtBbsYcFqEKyj8O7du51+BitWrNDGjRv9t2ZsdevWVbly5ZzwYLUN7oLUZx2XLTBYc7Kzse/mkiVLnI7QwYKwkI4RFgAAaS0Yw4L1QbCaBPtptQcZsQYhqdwaB2s37wYopB4LChYYEgsLVrOwevVqJzAEizQJCx999JGTmGxp1qyZ8+YFW8/v9OBiDAt2VSgyMtL5fevWrc7oFAl5nRDKli17yvB0LqsSdNl9gPTo77//1vbt2/1/yTnRJGT7jRWYAtkoK6VLl/b/dZK1fc6fP7/zu+031h4aOJNgCgvW/8DOjdZB2c4Fc+fO9d8CV7Vq1VS5cmVn37dARROl1HH//fdrwYIF59RnoV69eho6dKh/TdpL1bBg4cBCgXXAsZ8WEmydhQdb99VXX6lUqVL+eyMxGTEsuGHACjtu4cbGrP7ll1+c2+vUqeMMIWcKFy7stMlMKDw8/LRgkFjhKfAxLEDY1Rd3+7Y9G32CAhPSkn1X9+/f77S13rBhg44ePao//vjDaVphrMDmssJAQjZqio2kEsj2AevQmZC7fWMhxN1/3Mew7bvbs1Bho7Lg4hUMYcFCgnXotVFkFi9efNHXIpyrNm3aOMHByhOEhpRlE69ZrcIDDzzglC+82MhbVia2pnLBVB5OtbDg1iK88cYbuuuuu/xrT7J1FhbszQym4aKCWXoPC1b4sdoBa59nO4i9Freg7tYEuFf+U/OqvxtY3JoLO+m4BSYLKzaJil2RsedGbQSSm1tLYN83K7SvWbPmtO+ee+U/NQvq7vNyA4Z1DrX91g0sVmC0/aFkyZJOiCBcXzzSMixYMyN7bBvm1K7aEhLOj4UGuwhg76eNEIWUMWLECPXs2VOtWrU6bfhUGzZ16tSpevPNN3Xvvff61waHVAsLlpAeffRRZzkTt9bBUhUSl97CgoUDK/TYwdwNBrVq1ToxdrSFBJuAJpgFBpx169Y5tRFWiLOd3l6PdSQL9teA4PLXX385I1/YlSS7Imr7SHoreHsFHHtdVatWdQog1laX8JBxpVVYsNoE++5Z226aG104Oxe7HaLdmhokP7sw/n//93/OyFw2j4e1srELMBbS3n///aBslp8qYcFtfmS1BmfjVtGkxUEnPQr2sGCFBfvsf//9d3399dcZtlCdMATZ62zYsCEFJJyRfWesgGNXkixwWmGrfv36TjDIKLVVCUOQ/W3tcK0wYgGCUJ1xpHZYcPsl2HHX2ncjedn+2bRpU6dPE4Eh5cyePduZxXnIkCFOYLDWN8EqVcKCNT1y+yYkxt4wu38wv2nBIhjDghsQbAZCKwS1a9fOKRyUL1/+omjXbFe5rMbBxkf+4YcfnNdsB91GjRoRHC5yFhDs6mfg98KCs52YLwbusWH+/PnOccs9NhAc0r/UDAt2Ndaah86ZM4cmRynMOuJWqVLFaZrEcKspw8px6eECeaqEhWefffaUn2djIcHuR1hIXDCFhYULFzrPxZbbb79dtWvXvmgKQWdjJzM3OFiTEhu6zq6uUji6OFgB+aefftKUKVOcvwmO8SxU275hxw2rdbTgYMd8jhnpU2qEBRu1x1gzt7Fjxzq/I+VZoLdaTztnUcuQ/AgLAax9lgUAu6qUGOuzYPdjVKTEpXVYsILQ9OnTnc/XCsLW1IyrhGdmBSO3cGSByjo4UduQMVktwuTJk0981k2aNKEz/Bm4NQ7jx493/u7YsSOBOp1J6bDgBgW78GK11khd1jz8+uuvd5ol0fk5eREWAhw8eNAp/Fv7LGtmdCbWTMltsoTEpVVYsJP7pEmTNHr0aAq95yEwZFkH0E6dOlGQzCAsDNrnamO8t27d2ilEUeg9d1bb8O233zojLN122228f+lESoYFd7QjO9fZ/oW0061bN1122WUEhmREWEjAahbsJGqBwWtoVAsIVg1t96EJ0rlJ7bCQMCR06NCB8dUvgDXFsM9vzJgxTmiw4YMJXemT1SRYJzXTpUsXp+oe58+GL7YhBK35HqEh+KVUWCAoBB8Cw6msHBYMUroon2phwbhzKVjtgTtMqo2A5NYo2OI1BwO8pVZYCCzUtmzZkpCQzBK+v7feeisFo3TCArTNsmlXwm3sbEJC8rLQYOcH3t/glhJhwW16RFAIPgSG5EPNwhlYWLCDv7XldVnnNpt/gRqFpEmNsOBeMbU5ELjynbKs4Pnpp586Ewv169ePzp5BzprL2L7Rq1cvrnynsMDj0P3338/FiiCTUjUL1j+BoBCcHnroIeXKlYtOzxeIsHAO0subFKxSOiyMGzfOCXc2k6CNBYzU4RaMKlSo4Lz3FEKDi13tfvvtt53fH374YQJ0KrEauG+++YZj0nkICTmuw6tH6+WlzfTsraWVKZnPu8kdFmx4VJujgzkUgpd1er755pud2gWGVT1/6aUczCeM09hJuX///s6EUe+++y4n5VRmnZ0HDx7s/N67d2+ncIrgYB1w7TOxyQUHDRpEUEhFFpptMIDnnnvOGTlp1KhRzrEKibOwsH/5XK3IHPyn/OPHjzuz2hIUgtvGjRudWnAu+F4cCAs4hRVMu3fv7sywbIUhqvvThhWMHnnkEWcYSSucUhWf9uwzeOmll5wmYlZoRdpww/SuXbuc4BDsgSFTpm1aOKizuj33jPpERCgi4gkN+nGn/vatXzCwi/oPeEidIzqrx/fbdHDNh3q1s93Ht/T5WN9uP6Yj855Wh1ErdTg01Ffo/0d7pj6mbuM2KOqvhfrKt13nvgHbdB5r6FD/dnqoz5Rtilr3qZ4ZtkWH37tbN3/xs5aN6OH/d/G3Hw2iK8NhYWFOIRTBzyaZ3Llzp6KiovxrkFERFnCCBQUrmFoV/9133+1fi7RktTrWsfPNN98kMKQhu4ptn4EVUulLkvYsTD/xxBPORY1gCwyZDs7SiB5v6tutSzTO9/OrvWFSyHHty9pM906eqenDSurAs6M0aWuYQjId0R9579QbMyfowzrL9EG//Sr2+lTNnDlFX7X7U8Penq+DtVuq7Te/aNnfocoUskVLJ+bQ1Q2yaumw9/VTjdf09axZmju+gbK8MtLZpvNYhyuq3Sf2WLWkwZP0fYG79d/7wpX7gVH6qtYyvfK/Bnpm8hzN/ayZMg/+WP/bHhUfSgb/qLVz7OdC7QxJ/bboVqtgk64xM3P6YSNc0m8h47ugsGBtrS5kSa5t4MK5QcEKpjQ7Ci42AowVUgkMacM6MtsQnvYZ0OwouNhFjWAKDJlCt2re8BH6tUNThU8doSkt2yqiYIzijl+qBq3qq3zWOGWpeL1uarFCSzceVFxMdlWsX0lF4o7rn80r9OvhKRrZpZVatGit9s/8pMhfV2l5VA3VvW6mPpu9XXHbF2mCGqlxgT+1aukWLRncVe18x+smHYdocuS6k9tsXMt5rOwFi6mQ/7mdkK+Ersrxqf7bZZDeWllEjd95SLcUyay8Te7V49GjNCr0ZvWJfl9vztunWP8/SS1Wq8AxLn2x5khbtmxx+pkg47qgsGBt1S5kSa5t4MLYSfaFF15wahRScmhCq0LfO7Wn2vqr1F1hYfv1x7Ae6vfTQc+TU9ZD3+rViLf17aHdWvDCberz82H/LfGsmj9+/QEd/WmAIl79Rbt8J52MxAqp1vzFAgN9GFKPFVxsSNukBIXMoWs1vWcXDVr+j39NvCxRczWqwzv69q9zucgRq5htY082SYnoevL73XWiloYkPmRhWMgurf9skIatjw3Yh9J2vzi5r566D18INzC481ykqXXfauj39XVzjrl6bWxl3XRtOeXy33QuIq/qr2Gz5zoDV8QvD6tNnpyqeFUV7Zw1TWO/nirdVEOX+75CcZHN1f2zmQH3/VhDmiT+aP/ma6ve40br3W6VVPXYAs18qI+e8B17j8cVUdXGxfTrB+uUr30drRk8Q8vP4XuWXKKjo50mLVb4RPpiNUF0cs7Y+HThnGRr1aqV4jUKcXHZVKz5Tergr1J3hUWu0C9TG+i62gUS+UIWVb0nx+jVBrn9fyeUSTkbDtSMPnVU2D9Gd0ZizV8s0Fmwo2NnyrOhbC2c2VXrpNQo/BtbVi26VdEvizcEhOJY/b1qvr5p20JN8iceFkJCfPff/Iem1h6k0bNnOwXBwQ3P9L33FqqdWj5hl2J9DxeVp436OAXPjLdfGJub5MiRI04tUJoq10b3XztfX0Y20WO3rNSE79fpiG91SJaD+nnqfK2NCtHx1d9pwswquvLywMlJQ5WtZBU1W/GDJize7/vzsHZP6ae2/X7Q+rCsyl6pvm7c+JGGfllBzaoVlrJfrsqNV2r6d79pV0iIEyxfbjtQn1gzpLOIPnREx5a+pOvajNf6um3VvP0dvkBzVAeORilTyE798eN2XXVPOR346hdV6B2h6nHJd7XY5lSy+ZXspxebgG379u3+v5CeWFiIjIz0/4WMiLBwkbMrp3aAtpNtaojJUUV1rl2on1Yf9a9xC1F1VCP7Ae38ddjJq6mdh2jM9sCT1Y4TVyWdE5u/k17TXqM1a6cVgqIDahZidOS0zoLHnSusL7d9VoNesI6BT+mdd3qeqIk4rYaiz3sa6e9A2PblWb4TvbUZPvm4dvuIgV2S9SppYizQ2VjzNoQkUpZNtmazB1uH2qQJdQp3bjtzExb2l1Yt2KQ6tUorb9wO/Tmujzrbdyiis7oNX6D1UbHOd67toJf1su8726LFtWr39Hxpan/d/tIYjfd9L3v/FPg9O6xNXzykbh/87issHvPYbw5p3Rdv6b3Df2h8j8c1dNbEEzULmQI7xnZ+VUMX7fIVIq3m4Qm98e5j8c/Lv++d8n0P6AybOWqtFgxz94PPNfdgfE3Gydflu+/nS32vy/d4nvtqwvu778P51XxYH4a+ffs6tUBpWfMWHVtCjXrcq6smzdGWVveq9Q/faIb1WYjLogJRszXiuha6+snDKvveI7q9xKnBLTrfNeoxuIJCB3VQRPMOum1mJd33cBOVjfk3/rh5zWVS3XqqUzxT/OPc21Pt9g7U7S1a6Jquvym2b3d1SLDNk7IpvGY9VRzdU3f8WkvP3blZn3ZsoabNe2vYpY+ob7P8OjR3hF7OdLfujv1Sr2b6P/VslNjFm6SxSVhr1KjhDLlp8yodPOj70gTIkiWLM6/C+aja+h49+dRTGvBgB1Us7AtTPvnzl1REl9566qkn1euWps66hMLD6+vWXv3PeLurcOGKurrroxrge4ynet2i2iVK+G85u3PdfmJKlKqt6+95UN2vq+VfE3xswAHrc4KMibBwEbOr03bl1CaVSq2x/GNi8uvKdo21Zf5656qrFaJWzj6im1tXUYG/l2nKc1uU80Xr4PedxnbbpJFjlmqP/9+edFx//ThU/Vdfp8FTZmpaz5IK3XxqISPrvikadlpnwbnaEOv70kfu0KFmwzR95jO668qzVNtviVL2Lp9p7tRXdNfW9zVi8Z4Ej5tPBxZG+++cemxSKhtr3q58p4aQkMAQdu6FuaQ2OUmJJirnyw3Rbdq08a9Jmn+z1VGbe9efCMVWezZveXvdXDOLDv74nnpvuE7PT56lObMG676Db+mV2btkjSojl+VSlfdn+r6z3+vr5+pLrQZpTP+GKu5sxRWlwzMHqdfWO/XivVcq/J/FHvvNGuXu/IgeyF1VHYe/rEd9j+uIXaepL76krwsO0OiZMzX9hdza8PhIjVtrJ/l92l66l0b5gsXIm9Y6+96+9V/pxdM6w/6jHbPe1ZPrr/ftBxP0VsVv9OrEpVo3ZZB6/FpTD06Y4dtn7lO9Bc/5Xtdm7ffcV4+f4X3Ycd7t5G3kNgt3NulnWoq+tLnuHd5TbUrUVCffz/bWZyE2TAVaPqZXrbnQF310X4VciosufkpNaZwvUOSq0E19vvA3K3q1q9oUi//c7LhZpfsYzXgxwgkPJjpvXbXv/4W/CdKL6t+4iLIn2ObJGqU4hZa9z3n8b+5tqSs7vaovnH/3hT7sUU9ls2ZSrkbPaVLvxirf1H7WVZG45D22WVh49tlnnWZGVrtQqlQpvfHGG/5bdVp4OB8heYv4wkJ8jU2eSy9XscLZnN8vVJYseVUgX3YdWzdXzw8Zq0Vbt/pvSR1ZshZQ0cty2sRY/jXBh+axGRth4SJmw9NVrVr1PK6cXqBitdV+efxV19Bt3+vtlY2dq2XHszbSne+2Vsk1kzX1/Ud0y6t/+P9BQke0ZdUmFbmmvqpniVPWUo3UtJ7/JkfMGTsL/rbLTrRXqFHV/Eq02Fu7oVqEZ1Nc9stUrIjd+9THzVLyarVpmzX+vqnILRRNmjTJvyZlxcVl7OZdXj755BN16dLF/1fSOU3urqzsD8VR2jbray1pX0Pl9Je2rPGtmz5Q91/XXE2b36Unv9+tP3/bqL32D2vXVu0CiRyWt32g5wauUcErSukyX4Hu3PcbX2jZtVxLl9TW1ddXU2FfweNEZ9t1FtCuUNMGJZUz7hIVKJbfuX+cR2fY24sf0Z7te5W7Xg1dkTWvU4id0qOg9i7dpTItW6iRr6wWnaW6ru1Uxfe6lukXz33Vty95vg+btecC+htZuLOQZxMbIjhZSLCLHbZYsLO/9+7dq6NH3drm8xT3r45H51Yxf/Ou7CXDVTiLb//4N76AXaFeG93T6wk9ZbUDT/XVg7e0VE7f+jiFKEvBauo1wNY/oV5dr1Hl8Pq6pVc//adXb6c2oWvXliqb03ccLNdIvW65Vi1u7O6/v28Z8Ki6RNRSjhyXqkbzW/Tg4wN86wfo8Qdu0mW+r7LX9ms0uEW9fM/hoQf/E19b4d9GBWd9T93SoLLy5CmkRrf01FO9uqpOk+oqHJpFRWpfrfvuedCpRYl/HfHLk/fertsDajBObqep73U8occffviUxy932WWqVL+DHnCfq3N7/OOeLxs+lUFnMi7CwkXMJjY63yunFyI6rpTq37ZX81ft1/Zlvylf17oqHfOvMu8cq6ce/Embs+bWv9Wf1Od2ZfUcxMVlV66CpxfavToLti+aeh32UlLDhg01evToVOm7EFizsDuT9zjuR0PjFL39W416rG18k5IPftf2gFwR2MH2lO2lQhOVpHKvkF1oZ/+4Yo11x7ZftSxyu5Z+Ha4b6hSOP+DGZlKZvmM0/cT3coZm9q17+qg1Z1KgvR56sqFyvTNF86Iynfd+cy6iCrQ7rTPs43O9ByI4F6fsqx7vQ3IE0tatWzvjvweL6ARX+xGvWbNmWrZsmdMkyWry1qxZc2G1C3GHtHNXtPIWtdqF0ipcvJCy/LVLu6N8YSE0r2rWq6JcBxZp7PDhmjBzizKXra7aZbP7ivIhypzpoJZ+9bkmL96tLOGVVK14Ft/aMOWI26Zpn36sjz/+QeuP+o5b6+bpu9XZValyPh1Z/L3ee+8T/bwlk0pWK6eqRWqo2lVllPPAMv3vmz90NF951amRz3P7FfNYodq37x79Q19+MFFLdmd2thEf0ROK0oa5y7Ur9rh2LpquYR+8qxeef16vvfa2b3s7dPz4Di1euPmM+6TX49cqW0k16lT0vR/L9MWI8VpyOEyXXGA53z5Dm80ZGdNFExYSDrmaERYT35b4/BZrxpIWY8ZbdXuBOvV1ydiR+nJShRMdm+MiD2mLLlOVRlerQ81jWj53nfTXER097SiYS+GVSmnntBmadzBOxzdP17ffBE4KE3bGzoLWDMkVFxeq7JfkUo65v2jRvhhFbZqnOWedC8h93PlafjzE43FTj9Uu2GeYEuORWxvz39/vqX4/bdGGzx/T4/MOOk1kTvAYx332/o2a/cZI/Vj3TU2d/KAaf/2ORi1LrP1qlI4ksYlK2F/fanCHd/TdHxOdn+c2slDSzJs3T02bXlgbYxMdW0x1bzqiycPHaEKNCKdjc2xs4HdXynx8paa/cJvunbrn1Pf4bLIVU6nmN+vmxtOc4TRjz7DfHHK+60d18OjJzyGmcHVdWXPRiY6xJzrblvMqyMYobvGLHp1hM6tQsYI6vGCZfo86ok3j7lfTvssUU72w/vxhpvO6Mh1fru/HrVCZajVUx3Nf9X4feny/+7yDiMuCtA11m1DC41/gEsjrdndxed0WuLi8bgtcXF63uUsgr9vdJZDX7e4SyOt2dwnkdbu7BPI6T7lLoMD11gzWht08fPiwXn/9dc2fP99/r6SK1v5te3TcmiIVsyZImfTXjr2+o4xPlrzKlzOLcobX1S09euimFuWUKySb8heyZqixOrZzi2b/sV5HDx7zHX1cvvW7duqXTVv8f8fbtna25v20RkfzlFabWzqrQcn4JryhuS5Vriz2HHZo+bKv9O7AQfpm8QHfLWfa/jHtXLdNuyL36tCRxI6Vp7JajAr126pJ1cxa4ztprTx4toDt8fhZ8ytfLl/4+HOb1u5arc3LN+mvZGrhFPjZZrTlYnbRhAWvYVfT+2JOXJFL4vLiiy+qXr1T2u6kKuuw17zcIk2tV1c1sscXD0JKNFW3BlP03+uaqsmd32lX8XDl+H2rth1JeCDMoksbP6A36i7Vuze11DVvblZsyVPvE1WgtWdnwdKnfONDla1yWz3S4EcN6Rih9qNjVaru2SaXyaK8je/XoIqT1bt1C8/HTU0W9DZv3uz/K3mE+IKA9ct4YtM1uiXbeD0/rZE6X5VfgYdJz3Hcj2zVltWlVadWKWXO2kR3fzNMT9Xyt5M/o0PamMQmKtt9n+t9j+3RB1ML6oZH92jkyAXJPnmUNWGpWbOm/68LEaoclWuo/PSturxeWeWOjfXtt4HfXV+AaP1fjSloHUwLn/IeJyq0uOrc2NSpXZiVt4XnfrP1eHnVujWLfvjPf/TsHBuTx/5dObV6ot+JjrHW2bb0y93VqbzXZxWmkCu76o3TOsNeruLNH9QLZb/z7Qft1H1CeXV/8Fo1vr6/hl+1JP51tRqmBfWe9t23pPJ57qtneh+KXvBJyYK0LQnbUHsdB90lkNft7uLyui1wcXndFri4vG5zl0Bet7tLIK/b3SWQ1+3uEsjrdncJ5HWecpdACW+rUqWKM/SmdYCuVKmS/15JF7PdV/g+nlvFa5ZX4SyHtX3jIf8tJlKbf/pGzz//vH95QRN+Pr1HXGIur3eDrm1YxmnCFLV9iX52mvClrlJXtlLTWpdo49wf9dWCFf61acs6rpuEn21GWlJKepiEMMT3BqTcO5AIS2pp+PDpnr1/CQ/W58odYjAtmiFlFDZT67C+H2rPg8PVv3rydKRLCivUjhs3zpnJNrlkDlmqse2f04JevVRvyBAt6GNDdubQkXnPqt3PN2hM/6La+N++mtD8fadZhTUvGnjjRlX6sJrvffifot54VfeXiS/uWYflef77vlVlbvz9Jj6qtpfabLG2vXrqd+k4fRn+qt6/9jJlDtuv34b21kdVn9ZdK57Rm/71CQuP8Y85RznfvU2F+n+kPYOHnHjMxFizrcQ681t/kJEjR6Zap38kP7sYYse2tKg5vRhZDcP5nMut34I1QxowYIDatm2r4cOH+29JGhsNqV3NEC0ev1ChTVqrVmFf+I3aojkT1qrYDc1UePcq7SpYSeH/rtWMyYsVU6axmtUvpP0/L9W/1euq8M6fNWTsHKet/3URl2nnjGUKqdvgxHob1ajhTb7t+P6efqic2tXKohXfztRv0cXU+Oq6Cs+8XXO/2qyS7RuqyF/LNWVhrOq2vlJ5d63RtnzldFnC7S/aoyK1C/keZ7qmrNinK1rfquZFdmv6rH9Uq01lZf7zJ337eyY1tG1rg6ZNPqhqHa9UlpWzNHNXETVvHK6ji+fpkxmLnddfrFh11Wl/napk3qhpX/2uPE2vVt3wOK1P8DpOPP7M5QqpXV/hkb9r0jfrVfLaVv77T9fYn1c620yqJk2aqE6dOhw3k8jKcWXKlAn6flYXehEHuGjYVffA4Vib3vS5Vrd8Qt1qXOK/R/oXrSq65rErtHryEZUZ0Fj7RszQknPpK5CrhMIrbtAvizfp338Xa0LPDrr7uz0nmpTEZcut/DmWad4f+xUatVbzramM8ujyJDZRibMmUL//op9b36CI3ZP0WcPb1L5sYjUY8SwodO/eXaNGjTprX4/du3dzwkvnLCTYrLIITjYakvVZuOuuu5wRku655x6nNujC/a29+44ozvdf1O7t2uqOvB37l5Ys/F37s1ZQ6zvvVJsGRXR8/XItWp/0Pl+RWzdq27FLdUXbm3V7+2rKeuxvxWW5RHlz7NZvv/6po/lqqF27Wrrs+Bbf8XDnuTcv9Inev05rt0YqZ9kmutXdtm99TOR27dgTrXxVr1bHllWVP2tulWxw3YkOznddV0JbV2/TsZzldO2d7VQ1a5SOne2B4/Zo2S+rdcT3XDvf21E184fqQmfUKFCgABOzJdHs2bOVO3dup4O//R7MqFlIx6hZuLilRM2CsT4LS4e+pNFXPKYeW97U8PD+elJvqP3ZahYmPqJWR7/RJ68P0+hlkcpxzQC99mg5HRgcf9/XGkk7v3tRjwz+VfsKtNJdbfZo3I6OGtGvpI598ZqeGLZE+2peo5Z/L9GB20bo9YaRWuuuVwGFd+6lJ7s2VKXIrzXo7k2q9HxRrXpqhyqOelht8p77McT66dgoUtam3WoQvL7/FgTPd79CcOD4lrrOtWbBOjBbOLAhu5955hmnVsGGVDU2KZvNH5MemmRkJPnyFVOlZjeoUeUQrfl2pr5attp/S9L06NFDBQsWJDAkgQVmW4yFhWAODISFdIywcHFLqbBwMXDfOxtm87777juluYoVfGz/oHYh/aIZUuo6l7BgIx+5hSObX8GGTA30zz//6M8//9TEiRP9a5BSbJK36hGNVaNozvi+UnFHtWPZQk2YuUwHz2MmZuuvYBO7hl3AsMcXGwsGgTOau0MKu+Eh2BABL1J2BWDDhg3+v5AerV69OvXnyMgg7H2zkGVzKbz00ktO4dKd5M4KPhYiUlpIyD/aO7Wn2o5a6UxQaKOWxCx7WZ0jOp8YFSgsbL9WDO+mPmM+OjH0bKCTQ9LGOk3kBozdqOgQ767Sp81QfoZJ9tzmdgm3FThp3snhb2dowbhuKT5hX1LZ52fNIhA8rPOyFZCsQJQwKJhs2bJxPEslWzct0rcjh2ig29l74BCN/Pbn8woKxjqox1wkc/AkF6thc2vWbLHfbV2wIixcpMqXL+9Myob0y8JeyZIl/X/hfNhcCtaZ2a5Ad+zY0altCA8P15IlS/z3SDk2cVvR6nVVZMFW7Qmx+SeOa/+uPcpaJqt2LtvkTE4WGrtFq6eUOsPQpjoxQ+8NeSO1f/lcrch8Lof0s0+y5zyPRLZ1cqK+CNXr9GFQTdhnoc+WokWL+tcgWFhgOBtrwkJtd/pTuXJlZclybn3HEF+r4M4x4rLfbV2wNkWiGVI6diHNkMyDDz54WhMMpA9WGLLCrTWX8Tq5Bn4v7Er5mST1fme7j0nO+6XUazBnu1/9+vWd9/fdd9/1r4mXKXSr5g18XrOuf8sZ/Spz6Fp9e8/72vD4QN0R/YXef/ozTd0n5bjmYf3ntuvUKvc0DbzxZ2W+MUrzJy7TvgJt1P31h3RbsZMTF2WJmqv3Oy5Voc/+ow55V2nywwO1sGZtHR2fW9eNv0cRBz5Rt2fy65mX/9WYjqdvq1vO750+IzWejtNnz32tbb5t5n5glCa12KWv3n9db//ge0Kqq5bPPqxHm8doudPf5B09E/d6/OhWfUto7/Bn1HPsn777lVHN3k/rxfLf6J4e409s68uOpZTJd5wOHN3qjVp7tGjiML34gfUp8f27+/6jxzpXUfG/ftAHz7+uT5dFSideb5iit0/292fJofBbB+ile/Nq04uP6f1Lm6ny7PG+9y3+sZ+5PlyX7p+v8Qmee59qizUkkffSZfvEnj17dPfdd/vXIKXZ/pQc53K7Oh0dHa1XXnnFvwbBzs4/VatWZUK2JHCb4yWsSbC/LSwEY2BIs7BgnZiqV69OWLgAFxoWZs2a5UyAQ5v39IcCUfKxYDB06FD98ccf6tmzp1PbYEHamiidOouzNRN6VR2XtNXH91RV/u2fOQX5p5/er/e6/qE8r/XT4zXjtGlsP3Vf1lGf9PnbV8D/n/b4CsHPXp9Le2395m4a3a/+iavw1sxo+bsD9E39IXq60EQ91uO4rvuyif5+5CVfCHlPPY685jzeFzdt0Js3nr6tiT32aLjTwbyHqn7/f+oV9qwm3RyqBS8+rQnVn3cK33n3/08vdVmmIsO7q/Sox04JCxNuXKwHHs2u//MHkz53bFTVz3qpwY8POttyg4I5GRbeUN/DL+iWGS00+IUbdVWkLyA885Z+vu419Tv0vHoe7aPR95RR1OS+umXuDRo2qIQ29X5co696TcPbbdOnHUdr98DH1WLKYxoY8ohee7SFym59X4/fd1xNx3dUgWFPnP7cn66s7f2mnvW9dNlnZxN90aQl9SRXWDA2QdvatWvpu5AO0Fch6SwIuH0V3M79LhsAIFj7LqRZMyQ7EFgbxWCtcrkY2KRsVkAK9vF9cSor3I4ZM0YdOnTwr8H5sOFTrdmR1dBY7Zo1R3LDgQWFTz75xPn9pFBlr1RfbSdN1Lfb/9H25Yulm65Qns0rtbBuhG6qld+XJ/KowrXXq9XClfptlw1GeIWaNiipnHGXqEAx3+0JxPruX6pqQW3c9Zf+3r1VazrUUY0cl6lCS2np+rVasWCT6tQqLZtnNrFtuUL/3qhVS7doyeCuate8uZp0HKLJkeu0dONB/z1OistXQlfl+FT/7TJIb60sosbvPKRbiyU2h/J+/bl4r2p2aK4rs8QoJm99Xd86XH/+tl2xRUsox+iHdfugb/VzbHsN7t1Clf/Z5Tlhn/fkfmu9n7sz8VXir99CdLFixQgK6Zhdoa5YsWKCoI5gdPXVV9NXIYkC+yokFMx9F9IkLFh6stEQ7CpeMHfoyOhstBf7DIYMGXLWcecRXD799FPnykTyjEt+cbJaNZtzYdeuXRo/frxTlR44+pEVVKzQaYXPQDbzeN0b1mr27An6+t28albtsqTNvJyAtf3PW6aiMo/9Qh9/t1wFfYXgnLHZVaJ8Ge2c9rW+WlhBV5RK+jwecZHN1f2zmU7NY/zysYY0iY8cgaIKtFPvcaP1brdKqnpsgWY+1Ef9fzx0Yn6MpMmqnE1f0PgvB+uhKzIp29bP1fv+oZq4K9p/+7nxeu5vXZ94Z2U3RHfq1Mm/BumV1VJYc0B3VmAEHztm5suXj74KSWAXxxP2VUgoWPsupElYsKBgHZ1sFBKriqF2Ie24haLPP//cvwbBzAq5a9ascWY7RdJZLVr//v2dgPDcc8/pkUceOWPosgmjrPAZWPMWE5NXFa+qokMffKCxV9RXneLZlLd0ZdVdOEMTFu/3HVEPac3332lq3cqqVvgc2/AWq60Ol83QmJlVfOGjsO+gHKocl1dRk2U/aE6RK1Qx37kfpqMPHdOR7JercuOVmv7db9oVEqKYbWP1ctuB+mRrwqYCMYpb/KKuazNe6+u2VfP2d+ima4/qwFGbGC9+W5EBoyGdlF9lahXUkkmztPR4mML+mq/vpmxRmWq5tHd4Z1334XFVu/4mtel0g66LPKDDYeFnnbDvFLnKez73D9ce99/hzKydu4VoahXSv0yZMjnh3a5cI/jYbM1WG0s/haQ5W62CK1hrF1I9LLi1Cu4bYT+pXUhb1r7XJqmygiiClxVaR4wYoSeffJI5AM6D1Z5ZLdo111zjdF5OrFBpo+lYzdvTTz+tHTt2+NfGN0W6NkcOlWlaVaVj/lV00Y7q/145hQ7qoIjmN+rhjddqwP2NVfocj66xIflVpFwuX3Kv5wsfmeLX5S2vK2vmPvEYicum8Jr1VHH0w7rlgyOqdm9Ptds7ULe3aKFruv6m2L7d1aFEwuYCYQq5sqveuHOzPu3YQk2b99awSx9R32alVcq/rds/+MM/rGugbCra/GG9XnOeXmrdzJnJfEXDQXquVVVdeWNPdT/+uu5o0VRNOv6s477HvSG8jJo92l2NF/ZUq1Z99VHRR9S7WSHvk09ocTXyeO6dyp/96qXNym2oVcg4LDDYletu3br51yAY2AXGRo0a+f/CuTqXWgVXMNYupHoHZwsG9gYEvgnWoeOjjz4K2skogtWFdnAOZIWh3r17n+jgieDC55N2rF+DdTgbPHgww3EGIQsK69atc0IdITptJGcH54Ssw/Pu3bv14Ycf+tcgrdi5xx1Jjk7NSXOmEZDOxKusnJZSNSycqae3BQVbgilFpQfJGRYMBdLgZCOHWZM9Ppe0YwVSq30jMAQXgkJwSMmwYCwwHD16VN999502btzoX4vUZH0UrrzySqdDM0Ehaaxse6YRkM4k2EZGStVmSG5fhYQv3NoG03ch7VkhyApDb7755olqfaQtaxpGUEh7NkTtbbfd5oRpRg9Le9akzGbdJihcHKxtfK5cudSuXTuOg2ngjjvuODEfE0Eh6ayWILG+CgkFW9+FVKtZSCwlUbuQdMlds+CyE7F1/jR9+/Zl1J00YJ+B9U+wWba5mh08Fi5c6IRpCw5ek+Eh5VkN6AsvvKAKFSro3nvvJSgEgZSuWXDFxsY6j7N69WrmYUgFFhCaNm2qSy65hM7M5+l8ahVcwVS7kGph4VzaX9F3IWlSKiy43LbadkJu3ry5fy1Sml25to64FIaCkxVW3377bef3hx9+mCCXimwoW9s3BgwYwDEpiKRWWHBZs6QDBw44F1OsmSaS34033ujMd2HNjhge9fxZedaW860hCJa+C6kSFs41HVG7kDQpHRaMW3C14VWtuRgFo5RjtQk2hK21jSegBT+34GqjiVlhiVCXctzjUO7cuQloQSi1w4KxwBAaGkotQzKjNiH5WFn2fGsVXMFSu5AqYSEpyYjahXOXGmHBWCHWHsdO1rfffrszczBNk5KP+/7amP4tW7Z0ps+n4Jk+WC2DHa+2b9/uzPpMe+rkZROtDR061JlpngAdvNIiLLgsNFjzJKtlmDt3rn8tksomwGvYsKHzMzo62hm6FhfmQmsVXMFQu5DiYSGpqYjahXOXWmHBZSfuSZMmOVe+LS3bhDmEhvMXGBKqVq3qjBHPhFLpkzWFGDZsmPM7oeHCucea0aNHU3OTDqRlWDDWVMbOh4cPH9by5csJDUlg4cCOV6VLl3ZCQtasWf234EJYGfZCaxVcwVC7kOJh4XwSEbUL5ya1w4Ir8ERuNQ2tWrWiWUAS2Pv3008/ERIyIOsA/cknnzi/d+zYUfXq1aOQmwTW3Mj6SllNAhck0o+0Dgsuq2EwFhpsiFVrKghv1tzIlvDwcPolpIDkqlVwpXXtQoqGhfNNQ9QunJu0CgsuK/ROnz7d+XxLlizpnNzt4EPhyJtdfbbv9Ndff+2ELJsyn5CQMQUWeq1pGZ/1mVkNmzUhGT9+vPN369atqUlIZ4IlLLis8GvPx35u2bJFK1eupCO0n81gb+Wyyy67zGnCRb+E5GezL1uZNzlqFVxuedrKEDYFQWpL0bBwIUmI2oXEpXVYcNnJ3g7EFho2b97sFI5q167tBIeLnbVpnzdvnvPe2BVSrjZfXNxAPWfOHOdv6zjYqFGji74mzj1mWE2MhWcbP9+O9Rwz0qdgCwuBjh8/7lw1t1mg7Xi8YsWKi25iN2tmVK5cOee4Y/MkWMdwW5ByLDAkd6E+JbZ5rlIsLFxoGytqFxIXLGEhkBWO7As9bdq0E8GhSpUqF1WNgxWCFi1apMWLFzt/U0CEcb8X1ufHgqN9L2rWrHnR1Di4x4bff//dCQh16tRxrnISntO/YA4LLmuiZDUNVkjet29fhg8OgQHBag/stVOLgPOVYmEhOdpXUbtwdsEYFgK5hYP58+c7z9MKBzZdvI3dbAexjFJAsCYnNnyfFQbd12mjSlhBkIAAL/Zdse+M1TjYfmIF5iuuuMKZWyOjfGfsdW3duvW012mFGJorZizpISwEsuBgnXmtxsEubO7du9cJD+m5Y7TtU9b/oGDBgipSpMiJ/hsEBCSHFAkLydVzm9qFswv2sJCQW0CywrVbqLbQYKMxlChRIl1cYbUTihWArNYk8HVkxBCE1GGF6LVr1zpXOa02yvYRK3y5J/8CBQoEfYCwZkU2fKw99w0bNmjNmjWnvA7bN+izkXGlt7CQkLXdt/OpDRfqhgeb9G3Xrl3OeSsYWT8oOzbkyZNHhQoVcp672weBJkZIbikSFpKz1za1C2eW3sJCQlbYtoK3VQOvW7dOv/zyi1OosAngrIBhk8JYiMiRI0eqFpas8LZ//35nsZOGFX527tx54vnZ1V8bZs59roQDJCf3irx1zLSCinWStvbWViDLmTOn892zq4f58+d3ltQcLcj2WWNBIDIy0vk78PkVLlzYCf8ZqYYEiUvvYSGhqKioE+HBXteRI0ec/dJqI+yCkd1u/W1SmnshzSYjtH3f/WnnRnsOhqFOkRqSPSwkV62Ci9qFM0vvYcGLHYitPakVlPbs2eNc2XGvWBq7ip8rVy7nd7tSaUEikF2JTbjO5W4jUOBVI/e9tFEibEjThAUzrowirbhX7gMD7NGjR08U1N3vrHG/t4Hc4O3F3WYgNwgYKyhZUDbu/ufuexaYUzuwIPhktLDgxZr1uDUQtrjNe2z/sBBhHaltyNZAto8mXOdKGKYtmNjIOVYrYBeg3KFMbd+3Tsn2/hIMkFaSPSykxFiw1C54y4hhITFuAcYkVvhPKLFwQS0B0iu3NswkVvhP6FzCBUEZZ3MxhIVzZcHBFmPn6DM1CbIOx65s2bL5fwOCU7KHBRvW6Y033kjWgr0FBesoa9vFSRdjWAAABBfCApCxpUifBaQOwgIAIK0RFoCMjS7zAAAAwNlEf6nBZeP7rJxYmj+hZ1cd8t/BQ+wKLXi6uW5beNS/ItASTbw1j6qMHq1XsjVQJ8/7BAfCAgAAAJCI2G31dfOCI05NWlzcVv169af670sztMJ/+2liV2ruK1GK78WSUE3d+Pkhrbj9dvX952eNq5vTvz74EBYAAACAJIqLuUTV2tRSJR3Tjp+6qWvRwBqHbVo0+EE9HjVfX9Zrq06fvaoumdvp1ptznqiZqPLl1vgN7XhWXUP+T8/uiFbs9rfUv3Fm3+1FVeihh3z/5j7/+o/0+q3uv71Wzceu1hEt0fhO+dX82stV1Hf/oiNWnyGYXBjCAgAAAJCI0OJW8M/lL7CXUJ2nMyt6/2Ed2faqnoyQcv5wUHFxR7Xt/h/0wsPTlOU/7+rlrFYb8Y3GtTimkOgNWtlphWLiFmvCLbn9Ww0Qs0Ff9XtKI6+fp79895lb5Uf9EB3irJ/Uu69GNp2vPXFxitlaX6XvfFL9VudQSJZjmlf8NU2N2aEd91ZUJv+mkhNhAQAAAEjEqc2QdmjVe6Fa+/An+m7ubH0f9ZHeq3KpL0TkVPHOvyp6xi+auLOA/1+6GqpDw2JnLnwfWqwFY1vq5vbVdamKqOJt9+mOTHHO+l/m7NXK+6upkC+ohJX4r0ZFL9fs33crJCaryre6StVSsERPWAAAAACSxFeYb9dBt0Uf0J4DMdobMVKzYixEuMv7erbYPv99L1zc3hv1wKq/A7a/Xitujp+kNqURFgAAAIAk2anVX0/SmIiGatk2Ql3mjNHAGdsVa+uHVlfmlqP0W6zd76D2HvrH+Rcn5VGeIpm0988dvlvjtzPdWV1L9W75QV9+tTx+/Zhh+syaIbnrR87VithYHV3ZU10y36QHV5860WxKOb+w4DV8VNGuuu3nnSnSsQIAAABIS6f2WSiqSuOu15Nv36SqJfvo+dklVKxrcYUFrK+Wpb5aPH1Es69tpeYTAovcJVX3njvU+q16yhtyjW5aVk4VbHVYabV/6Xl1/66Rb30tNfmhVMD6N9Vv242qGhamXFVWa+unL+ilipF2a4o7v0nZfGHhlZxDtGjONP9QT9E6urCLWjcqqVv3vaAH8lBhkRrsy8qkbACAtMSkbEBKOKYd0zqp8/XV0rxsnUyPnEk5a3VQ27A5mr068pyGdyr06LPq4wwNZbUS3fXgSpvU4tShpzJ3eV1v2XpnSKlr1f2Bir5/G3h/AAAAIAOwSdwGVYkv64bkVLG7CqjEnEfUI40vwifTo/sK+TM/0jcxTdWs/M5zGN5pjSYXfk9v1P9eO+IiteaZOXqv1wStWNFX3Rrt0PaPtykmbqvmVxyinr71q2LsMXZoQbUvtcomwXhomt57+SyTYAAAAADpSWgV1eu/wlc29ndi3vGxxjQokiLDoSbFeYeFU9ttnUw//xc6/RyGdwpVkdKlVPDVCIV3eUefHn1G40Z2Vr4VCzTtms4aEGHDShVX7bu6q8u0X/TD1ijfIzbUzTdUUh4VVLGyheKfBAAAAIAUc95h4dSxZk+mH9tg4sM7XaJinX7Rtq3j9Fb1wwrf+rg61XlEH6w45r8dAAAAQFpL/kZQua46h+Gd/tTM3nmU9ZkwNez1vLr37qG79x5UTNmrdM20L/xDT23Too9G6pNr6qhliaz+fwcAAAAgtSR/WAi96hyGdyqjZr3e1MuRXVQ9zJoqzdcG330evPMDfTivqH/oqRKqv7qX3hxykyqF+f8ZAAAAgFRzfkOnIigwdCoAIK0xdCqQsSV/zQIAAACADIGwAAAAAMATYQEAAACAJ8ICAAAAAE+EBQAAAACeCAsAAAAAPBEWAAAAAHgiLAAAAADwRFgAAAAA4ImwAAAAAMATYQEAAACAJ8ICAAAAAE+EBQAAAACeCAsAAAAAPBEWAAAAAHgiLAAAAADwRFgAAAAA4ImwAAAAAMATYQEAAACAJ8ICAAAAAE+EBQAAAACeCAsAAAAAPBEWAAAAAHgiLAAAAADwRFgAAAAA4ImwAAAAAMATYQEAAACAJ8ICAAAAAE+EBQAAAACeCAsAAAAAPBEWAAAAAHgiLAAAAADwRFgAAAAA4ImwAAAAAMATYQEAAACAJ8ICAAAAAE+EBQAAAACeCAsAAAAAPBEWAAAAAHgiLAAAAADwRFgAAAAA4ImwAAAAAMATYQEAAACAJ8ICAAAAAE+EBQAAAACeCAsAAAAAPBEWAAAAAHgiLAAAAADwRFgAAAAA4ImwAAAAAMATYQEAAACAJ8ICAAAAAE+EBQAAAACeCAsAAAAAPBEWAAAAAHgiLAAAAADwRFgAAAAA4ImwAAAAAMATYQEAAACAJ8ICAAAAAE+EBQAAAACeCAsAAAAAPBEWAAAAAHgiLAAAAADwRFgAAAAA4ImwAAAAAMATYQEAAACAJ8ICAAAAAE+EBQAAAACeCAsAAAAAPBEWAAAAAHgiLAAAAADwFBLn4/8d6UxISIj/NwAA0g5FCSDjIiwAAAAA8EQzJAAAAACeCAsAAAAAPBEWAAAAAHgiLAAAAADwRFgAAAAA4ImwAAAAAMATYQEAAACAJ8ICAAAAAE+EBQAAAACeCAsAAAAAPBEWAAAAAHgiLAAAAADwRFgAAAAA4ImwAAAAAMATYQEAAACAJ8ICAAAAAE+EBQAAAACeCAsAAAAAPBEWAAAAAHgiLAAAAADwRFgAAAAA4ImwAAAAAMATYQEAAACAJ8ICAAAAAE+EBQAAAACeCAsAAAAAPBEWAAAAAHiQ/h9trpSE8yOBfAAAAABJRU5ErkJggg==;" vertex="1" parent="1">
          <mxGeometry x="90.5" y="1620" width="779" height="270" as="geometry" />
        </mxCell>
        <mxCell id="90qTcsNyrZuAhWfa71IT-91" value="" style="shape=image;verticalLabelPosition=bottom;labelBackgroundColor=default;verticalAlign=top;aspect=fixed;imageAspect=0;image=data:image/png,iVBORw0KGgoAAAANSUhEUgAAAyEAAAEECAYAAAA/EDtfAAAAAXNSR0IArs4c6QAAAARnQU1BAACxjwv8YQUAAAAJcEhZcwAADsMAAA7DAcdvqGQAAEZnSURBVHhe7d0HXNT1/wfw1zEVcYHixq0o7oW4ATM1t6ZmZZqpmeX4paZmZqWZSTnKXH/TzEHmTFNzb3Hj3gNEQdyAKMj43/vLnR7IEu6+cPB6Ph73AL73vft+j7vvfT+v72dp4rRARERERESkEgvdTyIiIiIiIlUwhBARERERkaoYQoiIiIiISFUMIUREREREpCqGECIiIiIiUhVDCBERERERqYohhIiIiIiIVMUQQkREREREqmIIISIiIiIiVTGEEBERERGRqhhCiIiIiIhIVQwhRERERESkKoYQIiIiIiJSFUMIERERERGpiiGEiIiIiIhUxRBCRERERESq0sRp6X4nM6fRaHS/EWUP/HoiIiLKnhhCshEJIdu3b9f9RWTevLy8GEKIiIiyKTbHIiIiIiIiVTGEEBERERGRqhhCiIiIiIhIVQwh2ZR10DKMbr8IeyKtlL9tIvdgYQ8veI3djiuW1tolsYjxm4L2Uw4h2NJSWceQlVUgfCf1wsgDobolWY857CMRERERvYohJLsqUQ8exa4i8EGM8mfcg0D42ZZHrdNncOFBLCwsInDz0lUUq1UGTjHx6xARERERqYEhJJuK1TiiZL1AnLj+GBrNM9w+eQjXmr6BBuWO4fSNJ7DEbVzcVgQtahSFzcNDWDu5hzIakZfXWEzeG4Qw3fPg8SX4zh3wYnm4RRyib+7AqhfrD8DITYGIfrwBU7XrTJ/1OXrI8h7TsOzWHZyd3xsD/ruDOItw3FjRV7v+JCwL0ig1M7+3n4hlgXdxdcXI+Md49UDfeb64EhmL8P3j4DXyNyzQbaf9lJ24FGkBK00QzsyX/fFC8+FLsTNIAlR0/PpTDyu1Oi9rSB6k6Xnk/vkTe7NGhYiIiEglDCHZVExMQbg0cMGVC4GI0ATAb9NDNGrQCp5tCuLwlTuIeRqMW3fLo2TB29g3dw721/oJ63buxJ6VjWDz4wKsuWkJjeVTHN9xC7Z952Pr3NJ4MOF3/HPrES5uXoQN5SfHr7+kBay912Dr7efard7DrXLD8fvO1VjQ9RIWLLsGh/quCNp5Glc1Ybhz7ZF2nVvwDwnH0/MHsca1Fqpe/QUjrrXFdxt3YvdObwx8NBM/7gqGMjBrQCRy916CPZt/RJ+bczD/WAge7p2NMRfawnvTDmwZWhoW/q82JXtFqs/jgAeHonUrExEREZGpMYRkWxawK+uKmr43cS8iGDcDPNHYxRHFKroAvhdx6exBrG/fAG6ayzh/IgDHvT9ARw8PNOs2DRsjLuPE9UeIi8mNOp09UNsmDjYub6Gr51ntckvU6j0eA+3O4cTaSRj23gIc0m0RqI7mjUrDPi4PCpVw1P5tidxV3NH5rC8On72Ms/udUKXKfVwPvgN/aQrmUR6WV64gdOtEDGrrgeYeffDlf3dw9dR13JWnq9cYns65EJe7CEoUk7ARhoDzN1CslTtqavfJtkwTNG8oK6YileexKf0G2rW3jV+XiIiIiEyOISQbiy1YCe74B6sWrMOayiVR3E4Di5KuaH/hP/y57gYquJREXu16cREe6LdkhzLRYfztD0xrJve8pImNQNj9GCDmEjaOGY9VYXnw2MILwxYPQWvdOkl5ZlcNDd66hWuH/HDeygsf9qmDoOPabex/hrJF88Mi1grlRy3D1hfb3o4do9zgpHt8SuLiciNvYYYHIiIiInPDEJKNRcc5o04XK6xfHYhiHtVRLuY5YvOUg2vja9i3ryRql82P2NxlUbXpOWz99xSCNRrEBPpgSvuJWKxvjvXVD5i89zYeXNqJzZebonkVS4Rezw2Hqu7o0MEFVqcO4ihC8TA8uZmt86FIGRvsXLwOF9pXQ7USpVB9mw98gr3Q2KUYnKuUQdCW7dj3CLCO0u7HpF7ovzkkvjnWK/IarB+HKP+t2LA+Urknd568sNtzGEfvxSDyxj7s9lUWJ0P/PAdxMkqT4HmIiIiIyPQYQrKxuDgbOBQtjkKooXRAlzc7JqYQytVyBtwaokFJK0THlkKT/kPR8e5EvOvpiVYfnELsqH7oXComvjnWiC7wODcBnb4MRSXvD9DOqTyaDCgMv/+9BQ+PEfC+Vwl17ALgH5RcId4WxWu6wU27F8VKOCJ38SqoVxKwe7M+auW2RIGmn2C62wnM6uqFZm2+wbLCQzCqRVFodI9OyMZg/ZZoNcMfsaWlY7oVclVtjyGN9mJaNy90WhqLMm7xQxMnzQYFmw7CZJeNGNFG+5pfPA8RERERqUETp6X7ncycRqNRmjPR67F6tBNzRy1EyOB5GFMzl24pZTYZuYxfT0RERNkTa0Iox9FoohB2cSGmyuSNMtRv1+W40HIs+tbKo1uDiIiIiEyJNSHZCGtCKDthTQgREVH2xRCSjUgIISIiyqlYpCEyHwwh2QhrQoiIKKdi7SmReWGfECIiIiIiUhVDCBERERERqYohhIiIiIiIVMUQQkREREREqmIIISIiIiIiVTGEEBERERGRqhhCiIiIiIhIVQwhRERERESkKoYQIiIiIiJSFUMIERERERGpiiGEiIiIiIhUxRBCRERERESqYgghIiIiIiJVMYQQEREREZGqGEKIiIiIiEhVDCFERERERKQqhhAiIiIiIlIVQwgREREREamKIYSIiIiIiFTFEEJERERERKpiCCEiIiIiIlUxhBARERERkaoYQoiIiIiISFUMIUREREREpCqGECIiIiIiUhVDCBERERERqYohhIiIiIiIVMUQQkREREREqmIIISIiIiIiVTGEEBERERGRqhhCiIiIiIhIVQwhRERERESkKoYQIiIiIiJSFUMIERERERGpiiGEiIiIiIhUxRBCRERERESqYgghIiIiIiJVMYQQEREREZGqGEKIiIiIiEhVDCFERERERKQqhhAiIiIiIlIVQwgREREREamKIYSIiIiIiFTFEEJERERERKpiCCEiIiIiIlUxhBARERERkaoYQoiIiIiISFUMIUREREREpCqGECIiIiIiUhVDCBERERERqYohhIiIiIiIVMUQQkREREREqmIIISIiIiIiVTGEEBERERGRqhhCiIiIiIhIVQwhRERERESkKoYQIiIiIiJSFUMIERERERGpiiGEiIiIiIhUxRBCRERERESqYgghIiIiIiJVMYQQEREREZGqGEKIiIiIiEhVDCFERERERKQqhhAiIiIiIlIVQwgREREREalKE6el+53MnEajwfbt23V/ERER5RxeXl5gkeZVsbGxiIqK0v31kpQZbG1tdX8RAY8ePcLatWtx8uRJWFpaokmTJmjRogUKFCigW8O4GEKyEYYQIiLKqXJKCJFQ8fz5c+WcL69XHyQkaDx79gwxMTHK3/fu3VN+poWVlZVS0JTnlMJn3rx5leWyrcjISGWZ4bYo+xk9ejSmTJkCFxcXFCtWTFl24cIFhIaGYuHChXj77beVZcbEEJKNMIQQEVFOlR1DiAQAeU25cuVSwkVYWBgePnyI6Oho3L59W1lnz549yk9TqFGjhhJO8uXLB3t7e+Wn7Ev+/PmVgCL7YWFhoYQYMl89evTA3r170blzZxQtWlS3NN7169fh4+ODGTNmoH///rqlxsEQko0whBARUU5l7iFEX8NhbW2tvA6pyZCr0BI2bt68qRQGsxI3NzcljDg5OaFgwYJKWJHaGCmLyGsg87Br1y60bdsWw4cPVwJmUuSz99dff+Hs2bMoU6aMbmnGMYRkIwwhRESUU5ljCJHQIaQ2ISgoCHfv3kVAQABOnTqlLDc3zZo1Q/HixVG4cGEllOhfH0NJ1tWyZUvY2NjA3d1dtyRpq1evRvfu3TFmzBjdkoxjCMlGGEKIiCinMpcQIgVz6WPx9OlThISE4PLlyzh06JDu3uyjbNmyqFixIkqUKKH0MdC/N2y6lbVIM7uBAwem2vn8xIkTSq2cr6+vbknGMYRkIwwhRESUU2XlECJ9J2TfpMmV1HScO3fObGs70qtVq1YvAon0b5Gr75T5pOz47bff6v5KnjTJks8tQwgliSGEiIhyqqwYQqSPhBS2AwMDcfXqVZN2IjcXUkPi6uqKChUqIE+ePEowY+1I5pGO6NInRN6XlBw8eBB2dnZYuXKlbknGGT2E3LhxAxMmTICfn58yznDz5s1Rq1YtDBs2zKidWehVOSWESHVgRESEcpMrSkJ+v3LlivK7IRlJ5PDhw7q/4snwc3I1JjE5EKWDnZD2rI6Ojsrv8kVJlN3pj6v79+8r7dJFcsfVrVu3lKEbDSV3XMnxIycuoT+u5G9pN05kTFkphEj4kCZX165dU5paZbVO5VmF9CEpX748SpYsqdSOyP+M1DVo0CCldqNLly66JUmbNm0afv75Z/Tp00e3JOOMGkIWLVqEvn37YujQoejUqZMSPiSMyHKZ/GT69OlG3XlKKDuFEBmCUApDUtCRNrPBwcE4c+YM7ty5k6CwI8MH6snyxJIq7OifOzEZfeTJkyfK73LiCA8PTxBi5AQnbSfLlSsHZ2dnFCpUiAUpMisSNGTEHQnv+s944uNK/xnXS+txpQ8xiRmGFf02DUMMjysylqwQQvThQz7f0oae4SNt5Fxet25dJYxI0zXWjKhHKg+qVaumNJerXbu2bmlC0ildvt8vXryoW2IcRgshEjIkYMhQXxI+EpPlEkxkPZl9kYzPXEOIhAIJAPKlLVdd5TUUKVJEOSjkKqpcPS1VqpRyBVWGAcwM0oFQCk76q8TSlldfkGrQoIHS+U6ql2U/WYCirECOq0uXLsHf3//FcaUPGnLCl2YQmX1c6S8IJHVcSYFSjv/SpUujUqVKmbaPZD4yM4Sw5sM45LupYcOGynlfyKhhZHpSNn/33XeVYZdllCz9UL0yg/rGjRuV7+rNmzcnWb7PCKOFEGlqJTUdEjSSI/dLrYjUjpDxmUsI0ReOZLzpY8eOKX9L4JAvH30hKXfu3Lq1szZ9OJEQdfr0aeUqgbwe+RKtXr06KleuzFBCqtAfV1IA0ncclM+h1DCY63ElYUQKdYavR44rOREylFBimRFCpD+DbFOG15WLrQwfxiHNtOrUqaMUhjm8rzqkbD5q1Chs3bpV+VvOFxICO3TogN9++y3V0bPSwyghRA48qQWRKp3UyIuQF8r+IcaXlUOINNXYt2+fUj0tzZs6duyYbQvphiFr27ZtSmFJqpnr1auXoPkYUUbpj6vdu3dn+/Arr1VCvoR9CSVyXEmfQymosN8WCbVDiNR+yPbk88gO56bRs2dPpaUBm2ipS8qTUl4zds1HYkYJIfo+H3JLjTTFko7rbJJlfFkthCQuIMmEODmxIM7/AxmT4edJ5NSCuDQxO378+IvjSmrhmzRpwprHHEzNECI1INLUcf/+/az9MDF9EyHpi8aO6+qQ8qQaxxJDSDaSFUKINKOQdt3yWZAvaBa4E0pcgGzTpg0aN27MpiWUIjmu5GqrDI3IAver9MeVfO/IsdStWzelVshcmp+RcagRQvTNr44ePYotW7bolpKpyfCxUm6U7zz2EzE9swoh0rxKToqpNceSDi7SDIvNsUwjM0OIFIykHaEUAqR/h5wM5OoFJU+u5EoV/tKlS5UOYdIGls1KyJAcV2vWrFE+I3JMtWvXjoE+FXIRRJoIr1u3TjmuOnfuzJCfQ5g6hMhM5xJC5CJSdpzh3BzovwNZI2JaZhVChIQKmQtEbsmRGhA5OciNjC8zQohhIUlO+K1bt+bV2dck/0Op0l+2bJkS4Lp3784wksPpjyvpUyS1iSxIvz7D/6HUikjtCL+bsjdThhAJIM+ePVPCLZtfZS4JIjKULOcVMR2zCyESLKQ2RJpmJTVCliyXgCLrmbqjS06lZgiR5iHLly9/ET5YSMo4+Z/K+6cPIzLYAwtNOYthwblXr15KoYpNijLG8LhioMveTBVCGECyHmlpIfNaUNKkPJjZ0nIsGi2ECH3QkBAiNxkJS5pgydC80gSLAcS01AohO3fuxPz585Wri++//z5P6EamLzTJ7KQDBw5E+/btWRDNATZs2KC85xLq33nnHb7nRmZ44WT48OEMeNmQKUKIjMoknx0GkKyHTbNMx+xqQvQkdOg7qku7SRm5RQKJXNU1xRjD9JKpQ4h0/vzll18QGhqqnMTZZMi05Kr47NmzlRmtR48ezb4A2ZT0DZLwIfN4sPbL9OR7TM5RMg8Jv8eyF2OHEGnuI+S8yj4gWVOXLl2UyUw5l4hxmW0IMaTWi6B4pgwh+toPaSIiVx9IPdLR9ocfflDCvPQXyepsH2/AxC7XUWX1MLTLH38ST41GE42wfRPQ8UAHLB3tjqK6k39yXnf9rEpqP6SZUP/+/eHh4aFbSmrgd5ppWD08hCU/3UblSd1RO+65bqk6jB1CpBP6kSNHOApWFjdgwAA4OjpyHhEjYgih12aqEPL7778rbdS//fZbXjXMJFIr8uOPPyq/jx8/Pts1I8lpIUSad0gBWGZZ/uyzz1j7kUn0tbt58+ZVakXYPCvjrK7ORvsRThi/tqdZhxCZiDAkJAQLFy7ULUlZ+cqt4dmtPoomHj02NhjH9oShcosiCNq+FT4HzunuSFn+/E6o3uYdeBS7g00r9+PozZu6e+I5O7ujcdcWKBp0ANN84od8Fw4OJeDi/ibqFw3Gcu3jwp9r4PpmL7Qq/gAXokqjalEb3ZoiEg9unMWhvacQVrwx2nolv4/JbS85lRu2QxM3J9zavBubL17VLX0pudeX2utOigzfK01Y2SzLeNQqv3OwZUqWFJTGjBmDy5cvY8GCBQwgmUj63UyePFmZObZfv35K4SmrkpqQqV6/YMPjOzg0uQf6zp6NqT28tAWEARi5KRDhFhawjrwE37kDlEKD18jl2P3wZSe63A/W6R5vqYSN8P3j4DX1MIItYxDu9zNGah/j6TkGP2+/pXtEFMIuLtRtQ57vD2y4FaW7L+uR40oCvZBAyQCSeeR/L++Bvb298p7Ie2PO4o+9kdrX0jfBsSDLp7SfgMmTemiXT8KfRw5jrfbYVNbxGovJe4MQ9XADvDsvwp7I+KvJ1kHLMLjvGpx4dhdXV4xED2Vd7fE8zxdXImPjj8uRv2GB7nnaT9mJa0+PYcW3KxEa+htG9P4Lp+7txKLP28dvp8c0LLulbijJCCnQvv5InlEIOvovvvvuu5e3SfOxca8Ppn03I80BRDx+HIJ9PjPw3TSfNBXE9ayt7VCgeGHYW8R/pxYsWBolS+TD8/BwbeSQTHQcc2fOVPZt5bbLiCteC57NK+OO3z+vvY8psS5YFEXt1QkF0ldHWgxI/x0yLwwhlCR9QUkKvdnxyru5+vDDD5WmOyNGjMgSQcRKE4TTc4Zi9P4AXFv+ufbnI8Tq7lNoonAv1AUdF+/A1rl1Ae812PUwCrd3zsKXV96C96ZVmOmyHlNXn0W47iHJsb23CXO/uo9y8zZjz6a+cLeOeLl89H2U+HkzduzYhLUdr2LuL3twBYHw/aEvRu89jQPyM/G+ZQLD42rIkCE8rrIAeQ/kvZD3xJyCSPLH3mOE1f8O/+xcjQX1fTFt1l5c095hEXEbj1vMxc6dvVFx+2zsr/UT1u3ciT0rG8HmxwVY+awxWr95CPsvhGvD/zPcOnkMz3vWR7mjv2DEtbb4buNO7N7pjYGPZuLHXcFQrpEGRCJ37yXYs/lH9Lk5B7NPVET38d2QL98n8F7cDvl2LMYq1ylYs3MjfPrewIJZWfO4TExqQa5du2a0juiVG/XE8K+Gomej5ug5fCy++OwzDB/3Fb76aiyGf9AKFYuURuMug/DFV7LsK4wb/j5aVKuMJj2H4qvhPVGvVBnU8uiJwV+M094/Dl980hVFtOX7OGhgU7hGgucqXac5ahe1gUXROujfvQnyFS6L4gWeI/jm3Vf+z/4nd+LIpYewKVIctWt30O1jVaUW4yPtfsq+fPXVKAzu2RL2usfA1gnvDB71YnlS++5Ruy3c6xSDhUVR1O/mida1m6PrR8MxzmCd2qV0A9rYOMGt2/uvLn9N0rRV+vDo+/GQeUgxhEh1TEZuxnoOUpdhQUkKvSwoZS3Sd2Do0KFKEJFmWplFow0YD/fOxtgbrdAz10p8t6UJetR3TPClEheTGy5N66KSbRxyFy4BJ2VpBEJu3UW+hrVQ3bYgXPstw4Z+VV+e5JIUg2f+Z7HL1QNvVLJDtG0luDer+GL5kdBNWNC7NTw926DT1/sRceQ8LjwujaYDu6LQz7vxsF17FPJego0GNS5qS3xcUdYi74m5BJGUjr1Yu0Zo71kGeWLzo/Kbb6H1oXM4FSw1ENXRpJojrJ5ex/kTATju/QE6ar9LmnWbho0Rl3HiehyqNCyDA8v34TICcGK1HVrUyIPAi1cQunUiBrX1QHOPPvjyvzu4euo67sqO1GsMT+dciMtdBCWKJb7qbQ3H4qVgt/QzvDt5Aw7EdoL3CE9UQMksdVwmRWpB0tcR3QbF6r2lFKhf3LQhwlF3r9CWbGBt9Qgn1i7HxmN3YONcBXUrVUPVKgUQfmYrli7biwBrZzSoW0a7ZjwLmzKoUb887B/44Z/1ZxDuUAkNajkk+VzlHvvhRHCUUuMxf8U+WDjkQ56oe7jh/0T3bC9FRDxC6J0HeKL9Hi6ST7c1jRPqNHRF3gdH4TNvHlbtCIB1hZqoV0HKARawL5pf+9lbp93efdhXrAn36jVf2ff6NaJw6HgQYmODcWTlLtwv44oqjqE4us5HWeemdSnUrlYsfnvWFgg79R+WrzuGOzYGy9Ph3LlzSj8eMh8phhBpD5aRm7Geg9Qlw1gKYxSUrC0uYevQ3ph88pluSTybyD34vfOv2JCGk4+VVSB8J/XCyAOhuiVpl7A5T+pVwwnW1wTjypLJmHsl632pyRjp0lFd+olkVoHJCmex5afTcGmbF1cn7kWh/l6obaPOVai4OAvkzpMXdrq3JqL+GMzdtUfpExV/+0zpFB9XuBaaum3H/110Qed3jmHBjhuIzqSLGzICFgNI1qYPIvJeZWUZPfbiIjzQb8kOg+PlD0xt5IDcVdzR+ew+7PtzCX51aI4GJbXHSqwVyo9ahq0v1t2OHaPcdBcUUmKDvE2+xcq/vfFpdSvkurkcIwbNVr7zs9JxmZg06ZG+WumrBUmiOdY0H9zX3RsvFk+CArDrzBWEP3qifYQseoKwcA0cqnlqg2EJRN04gR27L8XXNmlZ5C2AvDbRuB94Gyf91mLWxMlYf+yB9p4knsuApVUBFC3pBJsnoQh5ksYmqraOcLC3gb2zG3oOGICunhWRV5MLjk55tXfGItz/Mjafuoi7Z84hINxGu1wbIl7Z94sGtS6xuHlwB/ZfDEOBqo3RplsTONsavNdPgnHuUgiiHj1EeFTGynxSG2JhwQY+5oTvFiUg7SqlE7o0wTKG57EV4NnXFYePXUPoiy+HWDw9fxDr23uimWPWOPHoxcVZwb7xRGwf2QClEISTq4IRm7V28QUZKUs61K5fv163RF3RcEWrz6vjwsYwlB/XFPfmb8eJqLS0AbaDU4nCCPX1w+nIMNxYMQieY7bhqq4MFZcrHxzt/LDvzH1YRF7CwT2XtUstkau0K1qc3YZVx+7DMuoCdmw6jgiLhMthEYo7m0aj/ehtuGJpDc1dP+w95IWPKl/AmuV10c+zDKyMcHFDmsLJqEppvVoqJ8ewsDCl8yRlbfIeyXsl71lWldKxZxFxAOu1hfonFo9x8b9/sdmtKmoUfTl8aWzusqja9By2/nsKwdqCf0ygD6a0n4hlQdrf7Vzh1ukS/lx4EcU8qqN8rB2cq5RB0Jbt2PcIsI7SPm5SL/TfHPKigJyU3NFhCHt2D2cX9ELbhVGo8VZXtOveAW0jHiD0GUx2XKbFjRs3lOkCZP6ypMiVdBm+WVVxIdjy5x/YdvQSgsKt4Vi2Dlp3ckeBDJ578hQoixJFrfDwdhAeJvH/tbMrgHxFHJAn8iHuhBreHwH//esNwtQkrDoQorsvnpW1LWystTsY+zCJfW8Mxxely1xwbdUOjcvm0/7+FLcO++JKuOku7EmAZG2I+WAIoRfkiroMBSvNEYzXBMtCubrWfv1h+D2N/7hZWj7Eed8baFC3HArG3U6202P7yVMwpYcXmo/6F2ekv9ljfWfm+I6U4RZxiL65A6tedLCM7/gcbdAJ09PzGyw6ESYPRvCu7zHyxTYsYakJTr7D5dTt2PvXTPwWegYrB3yB2TtXJ9lZ+rHSEXQsps/6PP55dJ0vpb32mfn6jte/Yf7E3umqyUmNjOgjc/LIXBNqi4uzQcGmg/B9mS3wedYNX7Xah7+O3De4ApYcWxT3GIxJFf7FiDYd0W9VJfQb3ALldfnlmV1dvPVJYVwf3xUt3v8XwSWdYRcbh8hCbTDAuzIsJndGizYLcfC5nbK+4XIvj87otaMKBn7WDC5x17B37irc+19zFNywHvdGvIe2BY1T0JEOzXKcLF68WBm8IaX/vzSZkyvrMgoWmzZmffIeyXsl71lmNndMScrHXn7kPfIVOnh0wWfX2+HHzz1RzuBMHx1bCk36D0XHuxPxrqcnWn1wCrGj+qFDCW0IiSkIl7o1UQg10KJGUWi02ynQ9BNMdzuBWV290KzNN1hWeAhGtdDep3u+xDTODdC10ip803stQryGol/Uz3jPszmadTuAKO12upQIMNlxmRZlypRRvjNlrhj5PXHncxsbG/WH5M1VBe988gHcCtzFji1bceqG9lyh3Q99dIwNe4SwKCs4liyOGjXaov8XX6KnR4lk3wOh0T7eXmpQrENx67o2QSYiAaSSW2s0qJQf4Tf9cUf/FkTex4MwGxRzKY962v9Pba/3MXzc52ihb45V0Q2De76BopXLo6hNOILuFU5+3zXWyJXbGra22i/3qPvw27UP/hbFUDSPJaxtbVPc//S6e/euMsM9mQcO0ZuNyP9bqsrTS678yZCExm4uIp0c7/w7EQtKjMOYmrmUplgzhz1Fy3lvoMjuCei9zwNThnuham5/7PvhC/xe0xs/2f+GTjOLY/icwehU+Cb2T/wMY+/3gfekTqgZMAdfDLyH2ks+Qc0NQ+GdfwJ+6VkBBW8twcj37qPpryVx5tNNuP/tj/i+iT0iZCjX8Rp0mzceQ5xPwWfERPzX9hdMzTMPfZLb9oEO+HuUNXZ2WoQQ72kYVmjji7kv2heIfDE87OoBIZjX5R+EjBiPCW/lxV2f0ejn3wtz3bdi+Jo6+FZbMK4Rshzeg/7BvTFzMLWRXA0yLpnv4ODBgxg7dqxuCalJjhuZ66Nly5bo3LmzMpKZIRni2snJiXNRmBl5X6VzsnRaNxfpmaMnO5GLPq9T5pAgMmzYMNSqVetFKHn8+DFmzpypWyPtkh2iV5poXQ5C3ooFEbTdDxq3Ri+GuZUO6/HD4u5GQME6cKtdAvZSMtcW2C8fPoLAIo10Q9X6IrpCQzRuUAEONtpyVfgN7Nt6DcXeaJbEc23H5QJuaFm3OJTBeCMDsHvVHlwMt0LdDl1QNw1D9J6ILYem7jVQTBndSrvO5ePYeeAJasoQvQ+uINi+LCoUfI7bfoew/oA/Kri/mWjffXH0flG0aFMHxawf4pJfGIrXKq3cHxd+FyFwgFPURfjeLwl33VC8IZqSuiGAD+IIar7WEL2GpKmy9Jvk5IUZo1b5nSEkG8lICJFaEBn6ddasWa8UooxBhnv8aF0NTPmkIp5tHItxmlGY39YKZ+Z9hiHL7ujW0mn9LeY32oT+ujkgSmq0AeGbUVjlEV+Ilz4i+r+n1w3B3q0X8Dz2NP6ZsQ3H0QkjlBAS+EpgkOcqFqv/uyFGOyzDDylsO+0hJPFy7XMXWIG/nadizptFYG15H6dmj8CiajNMEkLE4MGDOftzJpLjR/pSSVNGaaYlhSG5oi5X0uW9kSGuWQtiXkz9nWgKDCGvP0/Io0ePlKZZ33zzDTZu3IgGDRrgt99+091L5kgGBKCMUav8zuZYpJC+IA0bNjTZyTauRFO8F3gEfhG3cGKdMzo0KBr/4UtHp0dNbATC7mtPsDGXsHHMeKwKy4PHFl4YtngIWuvWSV40noZJ8yytdHe4zHratGmDPXv26P4itUnAkBpEb29v5ViSkcukv8jWrVuVGhIGEPMj75m8d/IemovI/O0wUjcoA6WN9A+ZMGGC0hFd+tjt27cPJ06c0N1LRKaUI2tCZL/oVd9//71SlWkasYg+8SvG7Q3FA9tO8B5UA/njniF070T0WuOCkV/1gpfdOWycOhF/13vZJEpfE6I0x9paBS0nfIpPi63HhOHP4bGwMSL7/4pLE2bhy9pRCPr3ewzxzouOP1TBrdG3EtZOjL8M5x7DMaGbJY6Mm4aj707HmLhf8V4K246vCYl//q9dDmNOtz9wafRPmFr/Njb/9A1+sPo8mZqQN1VtjiX0V9ylWZAhuTKYHH2tWUrrCGOup19H5IT1SpUqhf/973+oUaOGbsnrkaaMIZu+wIe3B2LpR9WQT9fh0tLyPk7+NgZLqv2I7xsXMNrVJMNaRsPPquFy78Z2us+5ByaVXoIplhPwd7eMdyxObtuZSfr6SC3W4cOHdUsSMpfPaUrrCGOuZ6rXIFJbT+6XMkdK53jDMkni9VavXq1MXNmqVSu4uLgotZpkfqQmhOW8pKW1TK5W+Z3NsbIR+X8bfmG/DvmyNXWzA+kLMqfbUtyZOEPpGyKkc/ilv37C2LnHcQ+FlKDw5QcNUPToeKW5U4LmWHX+h64B8/Dljoro/u3HGFglDneU4HFE+9jyqNOnIQqtOITY/i1gNeNeomDQHD81PI6lE64CA/+Hz3u4ogRupbLtKni2fBT6zdWg5c/faAuCP8Vvq1Br9GkXghW3u2HJx3eTCCEdsGxUKdyd9zWG+mi3V6cVWj49jge95pu0cCUhZOLEiWbTdCQ7kjA4e/ZsnDlzRpnLRfrppPeY1FOOm57XUMHnIzSzjZ8ROKllxpCWEGKqz3BWDCFCCrYZfQ9JHfoQkh4yatb+/fuVC3HSD8jd3V13D5kbNsfKOClP+vj4oEePHrolpsEQko1kJITwRGs6Vo92Yu6ohQgZPO9F+DIFqcmSYXvZL0R90n9AhkqeO3eu0jdHjicJJJMmTVLCfUYotR6zxmG9+zTd5ycWMX5T0e14e/zxUTU43D+IlXN+xi/b7mnvc0PLCZ9hmEcMTk4Yi3XP8uHawbuw694BTS75YJlfBFCoHfr9/Cl6lbBE9K2NWPzzXCz1s4PzO+PwQ/+CuPH955hToAWq7lqJzfe04X7EeHzbHjipBIRf8XXcz69eINAGh2lVj+H/vvsZfxpso3fJe/DTh3G5UKB9rq/fckaB5PY5xW3olq8tjl4Ou7FM+1i7VuPw0zAvVM116+V26nRFz/y+uOT5q1HCjIx+Jn1DeFxlfekJIfo+IXKTQSSkFiSz54lxdnaP76R9xx/hZcvC/uo+pfN5Ul6sm0qH7pfrxXdkz4hqbT5Cx3rFDGpg4xD18AZOHjmGzYfO65Yl5OBQAi7ub6J+0WAsl47ojx/r7jGuZs2aKU3LbW1tdUvodckxIRcza9asCT8/P91S02CfECIjk9mMwy4uxNQeMvSvF5p3XY4LLceib608ujUoO5HRyaSQGhwcjJUrVyqjYEl/goiICJQoUUK3VvrFxDiidsemCDh4RZlrR4a4PrcrDG+3cYUDtAX0uXOwv9ZPWKfdjz0rG8HmxwVYc9MSGqswnCn4PqbvWISvC27DWtcpWLNzI3z63sCCWXtwRXMFu6YvwF63Gdi8cTCarvsVv/tFaT/AUbgX6oKOi3dg69y6gPcabL+f2kgzT3Bly2KsSrSNGxfX4vt/GuHrjbuxZ0kLWHv/gX8Cbia7z2kSEIncvZdgz+Yf0efmHMw/FqLMHj7mQlt4b9qBLUMd8OCQ8WqHpJ8AZU8yIpaMjCXD9MqtS5cuSnOszBYQcBDLp03GtGXLMH/SpDSGhjjs85mhTI74uiNKpYvMhr5imTKPyB9/bsGl2OKo37wBmpUvq1shIWtrOxQoXhj2FqZtJpUvXz7lgiylnwTyxo0bK7WDiYewNjbWhGQjrAnJ2VgToi59f4HQ0NAkRyaT+1esWGGUoZOtLS5hw8B9yD19ALweLEbfrx0xakE7VI3Yjrm9v8ESqVB4oSTqfDcaXXd+p9RQeDfOpfS9+ujr/Yho9Qk+qu4A54Yt4JZnL+Z0W4fI6VMxqHz89ajETaJejrbUHYV+HZ5CLcVMjI+d+co2Gmj+xY8fT8MGtEa3AfVQpngdtC93EvNT3OdUakJeWT4Jfc5+jRkmGo2Ox5X5SGtNiBSspDO6FLKkwNWpUyfdPUBUVJTSMT0tc4Xkz++E6m3egUdpS4TDDvY22sc/vIqDuw7jenhB1PRqilrF7aEtCemW+6P4G81QHNGws8+FqJvnccWuPFwd5ap9DMIDjmLD5jOwq9oQDWq5oKgMkRsXrgyFu+NUHNy6eqB0dBii8heAvSZ+/f92hsUPnZugJsRwSF8ZNfc8dmy6jfKdXn38hs0nYVG2fpJD8tbo2vzlvgb4Yt7fB/AoIiK+JqSOBsdW7sDmi1LLCVSq1QlvtCuPsAPbsTckH+o0rIsqxeS1y0u4gcM3cqN+tSLKle/Y4ONYc1qDRkluM+l9vHwn0UiWyRgwYAAKFy7MmdPTSWpB9HPp6MO5KYMI3yUiotckM6aPHz9eabohza2SKqBKLYixgn10XBm497qLg+fv45bfKTh84IZyMfETcsVFeKDfkh3KtuJvf2Bas5dX72Viu7xNvsXKv73xaXUr5Lq5HCMGzcbqYOPVFgBJb2MN2mPEiqWY1bcKqj3xxY5PR2LE1geITmWfsxLp3+Po6Kj7i8ydBA8JHS1atHjxuyG5mPfaNZjWsbh/dBOWrzuOB3nKoWHdiijr1gg1893HvjXLsHjpDgRYltEuL64tdFnCLi4QW/5cjI13CqKKQzhOr/8bq/cHwtq5Otyr1UDN+lXgEH4KPvMWY8e5ZyhU2x1NK+TWFug1sLZ6hBNrl2PjsTuwca6CGiUN5/2IZ2FTBjXql4f9Az/8s/4Mwh0qaUONQ5KPr1uhijYwuCLvg6Pa7c3Dqh0BsK5QE/WU7b3c1x//2KYEkOQ8e3AHD57YwNGpAApVrIYqjqE4us4HS5ftxU3rUnC1vYETwVFKAPHZ/hA1k91mEvtYPm3HX9myZVGoUCEGkAyQUC61g3J8yBw60hyLIYRMTsZGN+as2xYW4bixoq9yZerlbQBGrriAYE3SzS70zZjG+VwHrALhO6lXumYZt3p4CD7j1uCEJmOTFclV4ZT2wXB/o7NA9a8U5ozR/IdSJzOmy0hkMilWcqRJVpEiRYwy67YEiUIN3JHHZwH+XlMZbetpT7Ta5bG5y6Jq03PY+u8p7XGlQUygD6a0n4jFBk2bpE/J2QW90HZhFGq81RXtundA24gHCLV0hrPLNRw+dgPPnx/DqqGd8eG/IanOeJ87T17YBd9G0NNYRN7Yh92+sjSpbdzBvX+/Qtt2K3HFrT08Or2Hrm+G44FFSbimss/KNvYcxtF7MQbbSE5eOFcpg6AtB3EySoMo/63YsD5Sd1/G6N87DvaQfchVXrnaKzUhSZFJ7kqWLKkUaNMq7qE/Dp+9hbv+R3HePxy2DiVQplAeWNiXRtPOvdD7XS9UyGelXe4Ie+0R9iQ4CIdvBCA2NBxP4Ijq7drA3SkKN44ewNGnBeBoGw7/s9dw+Y4/gk6eR3CkrbZwLyFd+9igAOw6cwXhj54gKn7zr7CQmdJtonE/8DZO+q3FrImTsf7YA+09STze1hEO9jawd3ZDzwED0NWzIvJqcr3cnm5f0y4ONw/uwP6LYShQtTHadGsCZ9uE50ebfE4pbzMNrzEprq6uiInh8NTppe8fpT82ZPhqCSLJHSvGwBBCitq1a+P48eO6v4wn3ye/478d8Vc892weCLdt32Oh3xPdvQlJof7+yT04a22B6JhSaPjlsvQ1p3hwHH+dTa0olXGG+5vZZG4KCZKcjyJrkQ6SxurYF2PnCo+KR7G5oRtq5Y7/fEfHlkKT/kPR8e5EvOvpiVYfnELsqH7oXOrliVj6lNTsMhT9on7Ge57N0azbAURp1+ngXB4thvVD00ND0br1KCwqPgQjWjilclKwQq6q7TGk0HKMaOOJTkvDULC0bCupbXyMHu9/gunv++PPbp5o7jECcwsMwSgvNzRLcZ9122i0F9O6eWm3EYsybla6+5Jig4JNB2Gyy0Zln1rN8Eessk8Zd+nSJeU9pJxFmmRleLh6TRwiAw7il59+UvpNKH0nVp2CbpYqxbn9Pli1ZBOOXQpCuDYMlK3ngVauBaD+Ja0I+O9f/2I/v/tuElYdCNHdlza5HIrAIY/2nBgSAddW7dC4rJy7n+LWYV9cCU/qfJzxbSZWtWpV2Ni8WjNEaWNYC6Jn6toQ9gnJRjLSJ0SalxhjJB89qQm55vMZhhvMIfBy2Xgsb3Ad/y6Zi9+U0XHiR835vtJ6fDRgJQK1S/J98i1GXJiFtR5z8HPjiOSH0k00Us6MIfng9/EozJInKTkY3otaIN/fk9P02FdH2dEPrTsbk0v5YV2K+/s71ngGY20SI/6c+u7V0YZkhCB73ZwPxiCjusiVu5SuzJP6ZMJCaVs7efJk3RIyNWOORicjY0lzHdPNn0TGlNY+IWkhV9Q3bNigXOBJzos+IRU08D+4FwfuFoFHm9ooGHwMvs8qoVmZKJzZvRenwouiyRva886Dywh0qIgiQQcw95+TcH2zF950tcKVnTtwMCgfGrVvjlKP/XHHqSyKPjyJ1f+chlPjtmjiaoeg/SfwvKbbi9GtKjfqibZeRRC03Q8at0YJ+oT8908wXLo2RjHtc2w6FAs3ZZ8uvth2gsfvOAlNPXc4P7+E7RuPIaZ8U7Rwd8L9Awm3Zyhxn5By1VrArXkDlLcOwJa1J1HojQ6oY3MJK1cdRm5XT+3zlYb1TT+cs3FFLe3ytZvuoLr2taa2zZevcSt8DpzTbT1pMqhAxYoVGULSybAviGEIEVITYqq+ISa7hKs/cOWFUdYnzUtkVAkpNJmKxYMj2L4tBg0q2OLq5kXYUH5y/Og4yqg5a/BfoQ/xzUDn+AJ9j9KIb5wRhUd7f8OIa23x3cad2L3TGwMfzcSPu4KhnGoSjZQz+0RFdB/fTftaPoH34s6osH96mh/76ig7pWHhL3vxGBdT29+3LeCb3Ig/SYw2tOuh8a51SZORpUuX8optFiSFV+m4bsymjpSQqUajk/fM39+fASSHkhCS5u/U5xZwrNcG73SsBft7p7Fj91lcP3QAfvdyo9obXfBuZ3cUe34Dvsdux597tCIiHiH4xGH4BVmigmdn9H7XE84x2nWOHoXfkfN4YF8DPQf0hmfVXLh34iD2Xnmqe2TqYqNu4NSRqwh3qIWOHeuiSFQADh8LerHtBOJCcPzQady3rYw277+Pdo2KIerKSRxNbXsWRVG/ey9lTo53OzeBs+Y2jh48iTMhQQi6dhtPClbD2/0/xFs18uDJk1jY2Nvi0a17eO5QDZ3aFMGl9GwzGTIZrEwuyQCSfknVguiZsjbEZDUhkpzmzJmDjz/+2KTtyeiljNSECAmOMs+Bt7d3hpv16Gs9+s01bEtaHnV0EwWWenYRe7dewPPY0/hnxjYcRycMXz0A1f77WKk9WdPDEr76kW/Of4khyxKNjNH6W8xvtAn9k5qvoMhStB/hhPFr34DN/338Go9NOMqOjcFIQdPrhqS4v+va+WNBKqMUJRxtaBja5TdOk5GZM2eiXLlyytCwlPWwNsQ8SS2IDDzA2kXzYcyaEPH8+XNlYAKpEUnKi5qQZObmIHV89tlnsLOzYwhJp5RqQfRMVRtikpoQfecW/Y21IeZBriZIx2aZdM1YDPuEbN8+D1O7u6CU5jw2jhmPVWF58NjCC8MWD0Fr3fpJirVC+VHLsFV5jvjbjlFucNLdnaIMPDYuLjfyFrYFYi6laX9TG6XIFCQ4+vr6Kidfypr0V9KTK8hQ1iNzvwgGkJxNOqnLeZG1YVnXe++9hzx58jCAZEBKtSB6pqoNMUkIkRck7Wh79uypvDD5m8zDoEGDlDRsymZZiHuC0Ou54VDVHR06uMDq1EEcRShCI+JrBqIfP8HLruv6kW+2Y582y1pHncPWSb3Qf3NI0lXLOrmjwxD27HUfa7h+3MtRduIiUt3fsDSMUmRs0o/nhx9+wLfffssO6VmcXKmT0bTYLCvrk+Nq4sSJyntGJOQiT1JB5PHjEHUnCKQEpPbf2dlZCYuUPvpKg9RaLJlqpCyjh5DEL0h+yt+sDTEPMhSlFGpnzJihnIxNIUZTHk0GFIbf/96Ch8cIeN+rhDp2AfAPiYNznYZwWfoZes47jfhPjA0KNP0E091OYFZXLzRr8w2WFR6CUS2KJjuCiMa5AbpWWoVvei/GiXpDX+Oxhttq+XKUHatyqe/v/4WhRiqjFBnT06dP8csvv6BXr16cRM0MSJ+roUOHKnOLmOq4ooyT92bEiBHKBIXynhFZWloiNjYW7u7urzVsL5mWBBCppZL3h9JPyuep1YLomaI2xOh9QiR0yARAixYt0i2B8uLkZuwERQlltE+IIakJkSAi/UN4Ms5aJIBIUJSRQD788EPdUjIH0sxn/vz5PK6yIH0AkWDP/lXmydh9QgxJ/xAJI7t37zZtSwFKFQOIcUjlQGp9QRKTcrwx+4YYNYToX5AkJfmpJzsrzbMknEiVDpmGMUOI0AeR0aNHKwc8ZT4pKEkNCAOI+ZK+IdI0i0Ek69AHEDlPde/eXbeUzI0pQ4iIjo5+cZ5lEMkc0gdEmmAxgGRcegJFeoJLSozaHEuqdeRL3DCACNlR9g0xP9IGVpqQSL8DfUdNyjzSn0AKSjKxJAOI+ZKreHJcyXvJgkzmk/dA3gt5TxhAKCVWVvGTZsqoaTIvBalHmsINGDBAmc2eASTjEnedSCtj9w0xWk1IcrUgeqwNMT1j14ToyVVCmciwcuXK6N+/PztBZwL91XMpKHGkluxBQqX0EWnZsiXeeecdHlcqk2aNMhKgXNGT5o3sW2X+TF0TYkiaZz148ABbt27F9evXdUvJFJo1a6bM2SLhQx8EKWMy0qzKmLUhRgsh8oIS9wVJTHZWbsZKUJSQqUKIkBO2tGWX4WDZPEs9+uZXQkbrYfOd7EWOq2nTpuHWrVsYPnw4C8IqkQAo/3cZklxGBJQBOcj8qRlChL551tGjR7FlyxbdUjIWqf1o3LgxSpcurfxtYWGy+bVzFGOEiIyEGENGCSGp1YLosTbEtEwZQvRkXgppnlWtWjWevE1If5VWJo+Uwik7ymZv+g7rUivSuXNnHlcm8vDhQ6xZswbbtm1TanU5D0j2onYI0ZMO648fP8aePXuUcyRlnJzzqlatqgQPDsFrXMYIEMaqDTFKCElLLYgea0NMR40QIgwLyO+++y4LTUYk/1t5D6XpFYNeziLv/fLly5UCsozQJAUqNtEyDsPjis3fsq/MCiFCakWkqVBgYKBSuGMTrfSRplc1a9ZUJiBk+DA+YzalMkaYyXAISWstiJ7sLGtDTEOtEKKnv6q4dOlShpEMShw+pIMsm+bkTNIETy7onDlzhmEkgxIfV3369GGTxmwsM0OIXmRkpBJGrl27hnPnzrFmJI304SNfvnzK32x6ZRrGakYljBFoMhxCXqcWRI+1IaahdgjRSxxG5MuEBei0kf+ddGyUg5jhgwxJv4WNGzdi3bp1ynHVunVrFqDTSILc5s2ble+kjh07om3btjyucoCsEEL0JIzY2toqNSPHjh1jGEmGNLuSvh8MH6ZnzFoQvYyGmgyFkNetBdFjbYhpZFYI0ZMC9f79+5WrjlIj0q1bN2VEC17FTUiuzsoJSd4rubGASSkxDKrSQVO+O2VgCB5XCemPK/k/+fv7s39NDpSVQoheTEyM8jMsLExpoiUjHeZ08v0l/T30831I2YXD7pqeVBbIzRi1IHrpzQF6GQoh6akF0WNtiPFldggxJGPvy02u4sqVSBlWNqcXnKSAJKOoSJt/FibpdSUOrzyuXv5P9N81UgiVG4+rnCkrhhA9CSPSgV2u9AcFBSkj4uWkEbWktsPV1VX5KRef9TVFlLOlO4RkNP2wNsT4slII0UuqkODu7q7MOZLdr/zLFexLly69eO0NGjRQJrmSiTt5dZYyQj5b8t0rhZjDhw8rgaR69eo54rOlf+2nT5/mcUUJZOUQYkg6sQs5Z+sDyeXLl7NdZ3a5GCDNIJ2cnFC4cGE8e/YMuXLl0t1LlIEQkpFaED3WhhhXVgwhhvSB5OzZs0obWSlMSHMtKTxlh1CiDx1JvT4WkMhUDIO+zOMjn7O6desqVx1LlSpl9seV9O+4efPmK8eV1AJVqlSJxxW9YC4hxJBMeihkJCi5uHv37l3lMy/D/ZobCR3SxEoCh9zkNcnrY40HJSddISSjtSB6rA0xrqweQhKTL9qLFy8qV3+kcHHhwgXlJCJXTqS5kqOjY5btTCr7fu/ePQQEBCgFQBnJSEjhqFy5cnBxcWFHWMoU+uNKagrkpxTaZdADKSBIwSArBxN94JCCWOLjKrtcrCDTMccQklhUVJTy08bGBk+ePEFISIhS5goNDc1SwUSaVem/S6RTuVwMkH2W/ZcmZ5zZnNIiXSHEGLUgeqwNMR5zCyGJyRVdqZaWMCLDG0o1tTQ1kQK9zGwshXo7OzvlSov8lJupCiT6fRGyP0IKRdK50HCf9Fd+5MuYV2QpK5IQIgV7CcxyXEkwkc90cseVhH9TfZZlX+7fv4+IiAhlf+SnjAKmP+5lnyRoSJDncUWvKzuEkMSkH4l+ZnapWZBjRvpTyEUwKfDLT2GKgCLnN7lALE2oHBwclH5W9vb2yJs3r9KRXJpXyX6xpoPS67VDiLFqQfRYG2I85h5CkiNXR+WL1zAMCH3BRegLVIaKFi2qtEVNilxdCg4O1v0VTx8wRJEiRZSrxyJxIY01HJQdJHdcSe3DnTt3lN+NcVwZHqeGx5UUcIRsw5QXFCjnyI4hJDkSTqSpk5z35TXrg4B0gJfjWu6Xm5AaFbmwlpRChQrpfoNSeyHhQo5HIY/Xz3siz8v+HGRsrx1CjFkLosfaEOPIriEkLfRXWA3J39KsIykyG6tcZTXEghBRQvqgYojHFWVVOSmEEGUHrx1Cpk+frtRcGKMWRE9qQ6RmZdiwYbollB45OYQQEVHOxhBCZF7S1SeEsiaGECIiyqkYQign0jfJM0ecH5+IiIiIyAxZua1ABW0QkTASfysOp/+twq6w+D5BSYo9C9/xHuh1KFy3wNBxrH4nP1yXLsWPuRqhe5LrGAdDCBERERGRmQq0nYIVz+OUGpG4sJ/w+Z4PMHhz/AifSYo9hz0/RiJ+2szE6qDL8sc4++67GPXsAFa42euWGx9DCBERERFRNhF7+1287V5E+9sT3N7fFx8U19WSeIzFhPOBOOo9GF9EHsTfDduj+5Kp6G3dEe+8bf+iNsX175vxT3R7Aj7QfIwJt6MRe2smxjS1jq9p+fRT7WMG6pYvws/v6B/7Jjx8LiAMx7GyuyM83iyL4tr1i8+/kGTgYQghIiIiIjJTJSO/QHdrXdDI2wtjtUX+u6FPERs4FV96AfbbHiEuLhyBg7Zh0mdbYPO/WZhi6463fddjhecTaKKv4Vz3s4iJO4ZVPfPpntVAzDWsHf0VFry1Dw+16+xx3Ytt0Rpl+ZoRo7Cg+UGExMUh5qY7yr3/JUZfsIPG5gn2lfwJm2Nu43Z/FyQ1fSVDCBERERGRmUrYHOtfzG/+F+YtOoxb5/fhv8hF+M21gDag2KNkjyOI3n4Yq4Nezg8TrzE6Ny6RfCh4fAy+Pi3xdqeaKIBicOk1EO9ZxSnLD+++i3ODasBJG4AsS32D36NPYtfpO9DE2KJS6/qokULSYAghIiIiIsoO7L3wVufKiL7zCNKl/K7XAuyM0QUU5TYHE0rEz7RvDHF3u+CT808Nnv8Kzr6dV3dvyhhCiIiIiIiyg/Dt+HfNFRRrUh0VqjRB793LMHH7LcQiCBdm14R1y99xShk46xHuPn6mPOSl/MhfzAp3r97W3qtdf90abFUW10XDntvw99qT8cuXzcUSaY6lX75gD87GxiL83FD0tu6KwRfiZ91PTTIh5C6O/uCk62Siv1WH6+R92o3oViEiIiIiokyVsE/IRxhb7Hcs61kJ1iVH4rtdpVDig5Kw1BRHlRVv4ctfuqKGjTs8x4dh15ut4bHKMAqUhttH76HNzIYoqGmFrn4VUVkWW5ZDpx++Q79/m2iX10WzbWUMls/A6MAuqGZpibyuF3Dzz0n4wSVC7k1VMpMVSghxRROLjXg8qh5sZVH4cvxQ91P898tF7GyVuC0ZZQXy4eNkhURElBNxskLKiaTsp+7n/glub+mOHm/VwDv3JuGT/OlvVJX2R9q3RMu+ljjodwNRaRiOy2nYBIxUhvLSrlO8Hwafe6x9koRDhVn3/hkzZbkyBNib6PeJi/axhusTEREREVGmkckNJ7vGl9E19ijRpxBK7R6CARkIICLNj469tRwrFsbAvXoM1qc6HNdFbCz6G6a7/4fbcRG4+PVu/DZ8Fc6eHYW+TW7j1h+BiIm7iYMu0zBUu/x8jGzhNnxr/I3z2uVHPt2C36Zsx1lly0RERERElCksXNFwzFltmV7X+fz2H1jWqFiSw+6+jhRDSOQX9ZFLST0aWJacj3/7rMOShmkZjssCxcqVQeGpXnDu/Sv+DP8aKxb0gMNZX2xp1QPjvGQYsJKo16cfem85jG03I7Vba4y3O1RBfhRGiQpO8TtARERERERJMucmiCmGENspR/BMn3riTuPsmCYooX1E6sNx5UGJ7ocReHMFZtYMhfPNL9C9wRD839knuvuJiIiIiCinev3GXHnrp2E4rqvYMSI/bL+2ROPh36HfiAH48O4jxFSoj1Zb/tINFRaIo4sWYHGrBmhZSun6TkREREREOcDrhxCL+mkYjqs8WgyfgSkRvVHTUppsHcQ17TqD3/8/LNxXXDdUWCm4XxiOGdO6ooql7mFERERERJTtJTNEL5kj6bvDIXqJiCgn4hC9RObl9WtCiIiIiIiIMoAhhIiIiIiIVMUQQkREREREqmIIISIiIiIiVTGEEBERERGRqhhCiIiIiIhIVQwhRERERESkKoYQIiIiIiJSFUMIERERERGpiiGEiIiIiIhUxRBCRERERESqYgghIiIiIiJVMYQQEREREZGqGEKIiIiIiEhVDCFERERERKQqhhAiIiIiIlIVQwgREREREamKIYSIiIiIiFTFEEJERERERKpiCCEiIiIiIlUxhBARERERkaoYQoiIiIiISFUMIUREREREpCqGECIiIiIiUhVDCBERERERqYohhIiIiIiIVMUQQkREREREqmIIISIiIiIiVTGEEBERERGRqhhCiIiIiIhIVQwhRERERESkKoYQIiIiIiJSFUMIERERERGpiiGEiIiIiIhUxRBCRERERESqYgghIiIiIiJVMYQQEREREZGqGEKIiIiIiEhVDCFERERERKQqhhAiIiIiIlIVQwgREREREamKIYSIiIiIiFTFEEJERERERKpiCCEiIiIiIlUxhBARERERkaoYQoiIiIiISFUMIUREREREpCqGECIiIiIiUhVDCBERERERqYohhIiIiIiIVMUQQkREREREqmIIISIiIiIiVTGEEBERERGRqhhCiIiIiIhIVQwhRERERESkKoYQIiIiIiJSFUMIERERERGpiiGEiIiIiIhUxRBCRERERESqYgghIiIiIiJVMYQQEREREZGqGEKIiIiIiEhVDCFERERERKQqhhAiIiIiIlIVQwgREREREamKIYSIiIiIiFTFEEJERERERKpiCCEiIiIiIlUxhBARERERkaoYQoiIiIiISFUMIUREREREpCqGECIiIiIiUpUmTkv3O5k5jUaj+42IiCjnYZGGyHwwhBARERERkarYHIuIiIiIiFTFEEJERERERKpiCCEiIiIiIlUxhBARERERkaoYQoiIiIiISEXA/wPUHXT0T2qM5QAAAABJRU5ErkJggg==;" vertex="1" parent="1">
          <mxGeometry x="50" y="940" width="801" height="260" as="geometry" />
        </mxCell>
      </root>
    </mxGraphModel>
  </diagram>
</mxfile>
